<?xml version="1.0" encoding="UTF-8"?>
<!DOCTYPE svg PUBLIC "-//W3C//DTD SVG 1.1//EN" "http://www.w3.org/Graphics/SVG/1.1/DTD/svg11.dtd">
<!-- Creator: CorelDRAW 2018 (64-Bit Evaluation Version) -->
<svg xmlns="http://www.w3.org/2000/svg" xml:space="preserve" width="7.4578mm" height="7.4578mm" version="1.1" style="shape-rendering:geometricPrecision; text-rendering:geometricPrecision; image-rendering:optimizeQuality; fill-rule:evenodd; clip-rule:evenodd"
viewBox="0 0 51.05 51.05"
 xmlns:xlink="http://www.w3.org/1999/xlink">
 <defs>
  <style type="text/css">
   <![CDATA[
    .fil0 {fill:#4B566B;fill-rule:nonzero}
   ]]>
  </style>
 </defs>
 <g id="Layer_x0020_1">
  <metadata id="CorelCorpID_0Corel-Layer"/>
  <path class="fil0" d="M35.3 1.93c3.06,1.27 5.87,3.14 8.28,5.54 2.41,2.41 4.28,5.22 5.54,8.27 1.27,3.06 1.93,6.37 1.93,9.77 0,3.41 -0.66,6.71 -1.93,9.77 -1.27,3.06 -3.14,5.87 -5.54,8.28 -2.41,2.41 -5.22,4.28 -8.28,5.54 -3.06,1.27 -6.36,1.93 -9.77,1.93 -3.41,0 -6.71,-0.66 -9.77,-1.93 -3.06,-1.27 -5.87,-3.14 -8.28,-5.54 -2.41,-2.41 -4.28,-5.22 -5.54,-8.28 -1.27,-3.06 -1.93,-6.36 -1.93,-9.77 0,-4.33 1.09,-8.5 3.08,-12.18 2,-3.67 4.9,-6.86 8.54,-9.23 0.26,-0.17 0.57,-0.22 0.86,-0.16 0.29,0.06 0.55,0.23 0.72,0.5 0.17,0.26 0.22,0.58 0.16,0.86 -0.06,0.29 -0.23,0.55 -0.5,0.72 -3.31,2.15 -5.96,5.05 -7.78,8.4 -1.82,3.34 -2.8,7.14 -2.8,11.09 0,6.4 2.61,12.21 6.81,16.42 4.21,4.21 10.01,6.81 16.42,6.81 6.4,0 12.21,-2.61 16.42,-6.81 4.21,-4.21 6.81,-10.01 6.81,-16.42 0,-6.4 -2.61,-12.21 -6.81,-16.42 -4.21,-4.21 -10.01,-6.81 -16.42,-6.81 -1.71,0 -3.39,0.18 -5.02,0.54 -1.63,0.36 -3.22,0.9 -4.76,1.61 -0.29,0.13 -0.6,0.14 -0.87,0.04 -0.28,-0.1 -0.51,-0.31 -0.65,-0.59 -0.13,-0.29 -0.14,-0.6 -0.04,-0.88 0.1,-0.28 0.31,-0.51 0.59,-0.65 1.69,-0.79 3.44,-1.38 5.24,-1.77 1.8,-0.4 3.64,-0.6 5.52,-0.6 3.41,0 6.71,0.66 9.77,1.93zm-21.43 25.56c-0.18,0.47 -0.17,1.29 -0.16,1.97l0 0.62c0,0.14 0.06,0.26 0.16,0.35 0.11,0.1 0.26,0.16 0.43,0.16l4.6 0 0 -0.3c0,-0.75 0.13,-1.48 0.37,-2.16 0.22,-0.61 0.52,-1.17 0.9,-1.68 -0.3,-0.42 -0.69,-0.77 -1.13,-1.02 -0.51,-0.29 -1.11,-0.46 -1.72,-0.46l-0.05 0c-0.31,0 -0.62,0.04 -0.91,0.12 -0.3,0.08 -0.59,0.2 -0.85,0.35 -0.27,0.16 -0.58,0.19 -0.87,0.12 -0.28,-0.07 -0.54,-0.26 -0.7,-0.53l-0.01 -0.02c-0.15,-0.27 -0.18,-0.58 -0.11,-0.85 0.07,-0.28 0.26,-0.53 0.53,-0.69l0.01 -0.01c0.44,-0.25 0.92,-0.45 1.4,-0.58 0.49,-0.13 1,-0.2 1.51,-0.2l0.05 0c0.95,0 1.88,0.24 2.69,0.67 0.71,0.37 1.33,0.88 1.84,1.51 0.48,-0.31 1,-0.57 1.55,-0.76 0.66,-0.22 1.37,-0.34 2.11,-0.34l0.05 0c0.72,0 1.41,0.12 2.07,0.33 0.54,0.18 1.06,0.43 1.53,0.73 0.51,-0.61 1.13,-1.12 1.83,-1.48 0.81,-0.42 1.72,-0.65 2.66,-0.65l0.05 0c1.61,0 3.08,0.65 4.14,1.71 1.06,1.05 1.72,2.51 1.72,4.11l0 1.56c0,0.77 -0.33,1.48 -0.85,1.98 -0.52,0.5 -1.25,0.82 -2.04,0.82l-4.54 0c-0.1,0.68 -0.43,1.29 -0.91,1.75 -0.56,0.55 -1.34,0.89 -2.19,0.89l-6.98 0c-0.85,0 -1.62,-0.34 -2.19,-0.89 -0.47,-0.46 -0.8,-1.07 -0.91,-1.75l-4.64 0c-0.79,0 -1.51,-0.31 -2.04,-0.82 -0.53,-0.51 -0.85,-1.21 -0.85,-1.98l0 -0.56c-0.01,-0.89 -0.02,-1.94 0.27,-2.73 0.1,-0.3 0.31,-0.53 0.56,-0.66 0.26,-0.13 0.57,-0.17 0.87,-0.08l0.02 0.01c0.29,0.1 0.52,0.3 0.65,0.55 0.13,0.26 0.17,0.57 0.08,0.86l-0.01 0.02zm19.82 -2.51l-0.05 0c-0.6,0 -1.18,0.16 -1.69,0.44 -0.43,0.24 -0.81,0.57 -1.12,0.97 0.39,0.51 0.7,1.09 0.93,1.7 0.25,0.69 0.39,1.43 0.39,2.21l0 0.3 4.5 0c0.17,0 0.33,-0.06 0.43,-0.16 0.1,-0.09 0.16,-0.22 0.16,-0.36l0 -1.56c0,-0.98 -0.4,-1.86 -1.04,-2.5 -0.64,-0.64 -1.53,-1.04 -2.51,-1.04zm-5.1 2.32c-0.78,-0.77 -1.85,-1.25 -3.04,-1.25l-0.05 0c-1.19,0 -2.26,0.48 -3.04,1.25 -0.78,0.77 -1.26,1.83 -1.26,3l0 2.11c0,0.23 0.09,0.43 0.24,0.58 0.15,0.15 0.36,0.24 0.59,0.24l6.98 0c0.23,0 0.44,-0.09 0.59,-0.24 0.15,-0.15 0.24,-0.35 0.24,-0.58l0 -2.11c0,-1.17 -0.48,-2.23 -1.26,-3zm-8.82 -5.87c-0.64,0.64 -1.52,1.04 -2.5,1.04 -0.97,0 -1.85,-0.4 -2.49,-1.04 -0.64,-0.64 -1.04,-1.52 -1.04,-2.5 0,-0.97 0.4,-1.85 1.04,-2.49 0.64,-0.64 1.52,-1.04 2.49,-1.04 0.97,0 1.85,0.4 2.49,1.04 0.64,0.64 1.04,1.52 1.04,2.49 0,0.97 -0.4,1.85 -1.04,2.49zm-1.61 -3.38c-0.23,-0.23 -0.54,-0.37 -0.88,-0.37 -0.34,0 -0.66,0.14 -0.88,0.36 -0.23,0.23 -0.37,0.54 -0.37,0.88 0,0.34 0.14,0.66 0.37,0.88 0.22,0.22 0.54,0.37 0.88,0.37 0.34,0 0.66,-0.14 0.88,-0.36 0.22,-0.23 0.36,-0.54 0.36,-0.88 0,-0.34 -0.14,-0.66 -0.37,-0.88zm18.01 -1.61c0.64,0.64 1.04,1.52 1.04,2.49 0,0.97 -0.4,1.85 -1.04,2.49 -0.64,0.64 -1.52,1.04 -2.49,1.04 -0.97,0 -1.86,-0.4 -2.5,-1.04 -0.64,-0.64 -1.03,-1.52 -1.03,-2.5 0,-0.97 0.4,-1.85 1.03,-2.49 0.64,-0.64 1.52,-1.04 2.5,-1.04 0.97,0 1.85,0.4 2.49,1.04zm-3.38 1.61c-0.22,0.23 -0.36,0.54 -0.36,0.88 0,0.34 0.14,0.66 0.36,0.88 0.23,0.22 0.54,0.36 0.88,0.36 0.34,0 0.66,-0.14 0.88,-0.37 0.23,-0.23 0.37,-0.54 0.37,-0.88 0,-0.34 -0.14,-0.66 -0.37,-0.88 -0.22,-0.23 -0.54,-0.37 -0.88,-0.37 -0.34,0 -0.66,0.14 -0.88,0.36zm-4.49 -1.2c0.71,0.71 1.15,1.69 1.15,2.77 0,1.08 -0.44,2.06 -1.15,2.77 -0.71,0.71 -1.69,1.15 -2.77,1.15 -1.08,0 -2.06,-0.44 -2.77,-1.15 -0.71,-0.71 -1.15,-1.69 -1.15,-2.77 0,-1.08 0.44,-2.06 1.15,-2.77 0.71,-0.71 1.69,-1.15 2.77,-1.15 1.08,0 2.06,0.44 2.77,1.15zm-3.93 1.61c-0.3,0.3 -0.48,0.71 -0.48,1.16 0,0.45 0.18,0.86 0.48,1.16 0.3,0.3 0.71,0.48 1.16,0.48 0.45,0 0.86,-0.18 1.16,-0.48 0.3,-0.3 0.48,-0.71 0.48,-1.16 0,-0.45 -0.18,-0.86 -0.48,-1.16 -0.3,-0.3 -0.71,-0.48 -1.16,-0.48 -0.45,0 -0.86,0.18 -1.16,0.48zm21.23 6.71l-2.83 0c-0.09,0 -0.18,0.04 -0.24,0.1 -0.06,0.06 -0.1,0.15 -0.1,0.24 0,0.09 0.04,0.18 0.1,0.24 0.06,0.06 0.15,0.1 0.24,0.1 0.96,0 2,-0.04 2.95,0.01 0.28,0.03 0.53,0.16 0.72,0.36 0.18,0.2 0.3,0.47 0.31,0.75l-0 0.11c-0.19,2.62 -0.86,5.15 -1.96,7.49 -1.1,2.34 -2.63,4.47 -4.52,6.3 -0.23,0.22 -0.52,0.32 -0.82,0.32 -0.29,-0.01 -0.59,-0.12 -0.8,-0.35 -0.22,-0.23 -0.32,-0.52 -0.32,-0.82 0.01,-0.29 0.12,-0.58 0.35,-0.8 1.6,-1.54 2.9,-3.32 3.87,-5.27 0.9,-1.81 1.51,-3.77 1.79,-5.8l-1.56 0c-0.73,0 -1.38,-0.3 -1.86,-0.77 -0.48,-0.48 -0.77,-1.13 -0.77,-1.86 0,-0.73 0.3,-1.38 0.77,-1.86 0.48,-0.48 1.14,-0.77 1.86,-0.77l1.55 0c-0.58,-4.17 -2.55,-7.93 -5.4,-10.78 -2.86,-2.86 -6.62,-4.82 -10.8,-5.39l-0 2.47c0,0.73 -0.29,1.38 -0.77,1.86 -0.48,0.48 -1.13,0.77 -1.86,0.77 -0.73,0 -1.39,-0.3 -1.86,-0.77 -0.48,-0.48 -0.77,-1.13 -0.77,-1.86l0 -2.46c-4.16,0.59 -7.91,2.55 -10.76,5.4 -2.85,2.85 -4.81,6.6 -5.39,10.77l1.46 0c0.73,0 1.38,0.3 1.86,0.77 0.48,0.48 0.77,1.13 0.77,1.86 0,0.72 -0.3,1.38 -0.77,1.86 -0.48,0.48 -1.13,0.77 -1.86,0.77l-1.46 0c0.58,4.16 2.54,7.91 5.39,10.77 2.85,2.85 6.6,4.82 10.76,5.4l0 -1.48c0,-0.73 0.3,-1.38 0.77,-1.86 0.48,-0.48 1.14,-0.77 1.86,-0.77 0.73,0 1.38,0.3 1.86,0.77 0.48,0.48 0.77,1.14 0.77,1.86l0 1.49c1.36,-0.19 2.7,-0.52 3.98,-1 1.42,-0.53 2.78,-1.22 4.04,-2.08l0.01 -0.01c0.26,-0.18 0.57,-0.23 0.86,-0.18 0.28,0.05 0.54,0.22 0.72,0.47l0.01 0.02c0.18,0.26 0.23,0.57 0.18,0.86 -0.05,0.29 -0.22,0.55 -0.48,0.73 -1.54,1.05 -3.21,1.88 -4.96,2.49 -1.75,0.61 -3.58,0.98 -5.43,1.12l-0.11 0c-0.28,-0.01 -0.55,-0.13 -0.74,-0.31 -0.2,-0.19 -0.34,-0.44 -0.36,-0.72 -0.05,-0.92 -0.01,-1.94 -0.01,-2.87 0,-0.09 -0.04,-0.18 -0.1,-0.24 -0.06,-0.06 -0.15,-0.1 -0.24,-0.1 -0.09,0 -0.18,0.04 -0.24,0.1 -0.06,0.06 -0.1,0.15 -0.1,0.24 0,0.93 0.05,1.95 -0.01,2.87 -0.03,0.28 -0.16,0.54 -0.36,0.72 -0.2,0.18 -0.47,0.3 -0.75,0.31l-0.11 -0c-2.54,-0.19 -5,-0.83 -7.28,-1.88 -2.28,-1.05 -4.38,-2.5 -6.18,-4.3 -1.8,-1.8 -3.25,-3.9 -4.3,-6.19 -1.05,-2.28 -1.69,-4.75 -1.87,-7.28l-0 -0.11c0,-0.28 0.12,-0.55 0.31,-0.75 0.18,-0.2 0.44,-0.34 0.72,-0.36 0.91,-0.05 1.93,-0.01 2.85,-0.01 0.09,0 0.18,-0.04 0.24,-0.1 0.06,-0.06 0.1,-0.15 0.1,-0.24 0,-0.09 -0.04,-0.18 -0.1,-0.24 -0.06,-0.06 -0.15,-0.1 -0.24,-0.1 -0.93,0 -1.93,0.04 -2.85,-0.01 -0.28,-0.03 -0.54,-0.16 -0.72,-0.36 -0.18,-0.2 -0.3,-0.47 -0.31,-0.75l0 -0.11c0.18,-2.54 0.83,-5 1.87,-7.28 1.04,-2.28 2.49,-4.38 4.3,-6.19 1.8,-1.8 3.9,-3.26 6.18,-4.3 2.28,-1.05 4.75,-1.69 7.28,-1.88l0.11 -0c0.28,0.01 0.55,0.12 0.75,0.31 0.2,0.18 0.34,0.44 0.36,0.72 0.07,1.22 0,2.61 0,3.85 0,0.09 0.04,0.18 0.1,0.24 0.06,0.06 0.15,0.1 0.24,0.1 0.09,0 0.18,-0.04 0.24,-0.1 0.06,-0.06 0.1,-0.15 0.1,-0.24 0,-1.24 -0.07,-2.64 0,-3.86 0.03,-0.28 0.16,-0.54 0.36,-0.72 0.2,-0.18 0.46,-0.3 0.75,-0.31l0.11 0c2.54,0.18 5.01,0.82 7.3,1.87 2.29,1.04 4.39,2.5 6.2,4.3 1.81,1.81 3.26,3.91 4.31,6.19 1.05,2.29 1.69,4.76 1.88,7.3l0 0.11c-0,0.28 -0.12,0.55 -0.31,0.75 -0.18,0.2 -0.44,0.34 -0.72,0.36l-0.12 0.01z"/>
 </g>
</svg>
