<svg id="bell" xmlns="http://www.w3.org/2000/svg" width="13.545" height="14.965" viewBox="0 0 13.545 14.965">
  <path id="Path_22977" data-name="Path 22977" d="M36.153,9.789a.388.388,0,0,1-.388-.388V6.66a4.842,4.842,0,0,0-3.394-4.614,1.528,1.528,0,1,0-2.878,0A4.841,4.841,0,0,0,26.1,6.66V9.4a.388.388,0,0,1-.388.388,1.552,1.552,0,1,0,0,3.1h3.62a1.654,1.654,0,1,0,3.2,0h3.62a1.552,1.552,0,0,0,0-3.1Zm-5.868-8.26a.648.648,0,1,1,1.2.33,4.82,4.82,0,0,0-1.113,0A.643.643,0,0,1,30.285,1.529ZM31.706,13.31a.773.773,0,1,1-1.423-.418h1.3A.768.768,0,0,1,31.706,13.31Zm4.448-1.3H25.712a.67.67,0,0,1,0-1.341A1.271,1.271,0,0,0,26.981,9.4V6.66a3.951,3.951,0,1,1,7.9,0V9.4a1.271,1.271,0,0,0,1.269,1.269.67.67,0,0,1,0,1.341Z" transform="translate(-24.16 0)" fill="#4b566b"/>
</svg>
