<svg xmlns="http://www.w3.org/2000/svg" width="14.642" height="14.642" viewBox="0 0 14.642 14.642">
  <path id="briefcase" d="M13.641,2.488H10.767V1a1,1,0,0,0-1-1H4.876a1,1,0,0,0-1,1V2.488H1a1,1,0,0,0-1,1V13.641a1,1,0,0,0,1,1h12.64a1,1,0,0,0,1-1V3.489A1,1,0,0,0,13.641,2.488ZM4.733,1A.143.143,0,0,1,4.876.858h4.89A.143.143,0,0,1,9.909,1V2.488H4.733Zm9.051,12.64a.143.143,0,0,1-.143.143H1a.143.143,0,0,1-.143-.143V7.321L5.981,9.326v.865a.716.716,0,0,0,.715.715H7.947a.716.716,0,0,0,.715-.715V9.326l5.123-2.005ZM6.839,10.047V8.479H7.8v1.569ZM13.784,6.4,8.662,8.4V8.336a.716.716,0,0,0-.715-.715H6.7a.716.716,0,0,0-.715.715V8.4L.858,6.4V3.489A.143.143,0,0,1,1,3.346h12.64a.143.143,0,0,1,.143.143Z" fill="#59b828"/>
</svg>
