<svg xmlns="http://www.w3.org/2000/svg" width="19.116" height="12.182" viewBox="0 0 19.116 12.182">
  <g id="Buy" transform="translate(-1.95 -1.95)">
    <path id="Path_27982" data-name="Path 27982" d="M27.529,2h-1.9a.317.317,0,0,0-.317.317v.121L24.636,2.1a.955.955,0,0,0-.425-.1H19.566a.951.951,0,0,0-.593.209L17.647,3.268h-5.33A.317.317,0,0,0,12,3.585V8.655a.317.317,0,0,0,.317.317h9.508a.317.317,0,0,0,.317-.317V6.262a2.861,2.861,0,0,0,2.517-.205l.424-.254h.228V6.12a.317.317,0,0,0,.317.317h1.9a.317.317,0,0,0,.317-.317v-3.8A.317.317,0,0,0,27.529,2Zm-14.9,6.339V3.9h7.584l-.355.356A.951.951,0,1,0,21.207,5.6l.3-.3V8.339ZM24.992,5.169a.315.315,0,0,0-.161.045l-.5.3a2.228,2.228,0,0,1-1.978.153l-.214-.087V4.667l.4-.4.164.055a2.232,2.232,0,0,0,1.4,0L24.46,4.2a.317.317,0,1,0-.2-.6l-.349.117a1.594,1.594,0,0,1-1,0L22.56,3.6a.317.317,0,0,0-.324.077l-.634.634h0l-.843.843a.317.317,0,0,1-.448-.448l1.232-1.232a.317.317,0,1,0-.448-.448l-.242.242H18.662l.705-.564a.317.317,0,0,1,.2-.069h4.645a.323.323,0,0,1,.142.033l.959.48v2.02Zm2.22.634H25.945V2.634h1.268Z" transform="translate(-6.831)" fill="#59b828" stroke="#59b828" stroke-width="0.1"/>
    <path id="Path_27983" data-name="Path 27983" d="M25.951,9.951a.317.317,0,0,1,.317.317H26.9a.951.951,0,0,0-.634-.892V9h-.634v.375a.949.949,0,0,0,.317,1.843.317.317,0,1,1-.317.317H25a.951.951,0,0,0,.634.892V12.8h.634v-.375a.949.949,0,0,0-.317-1.843.317.317,0,0,1,0-.634Z" transform="translate(-15.711 -4.782)" fill="#59b828" stroke="#59b828" stroke-width="0.1"/>
    <path id="Path_27984" data-name="Path 27984" d="M19.951,14h-.634a.317.317,0,0,0,0,.634h.634a.317.317,0,0,0,0-.634Z" transform="translate(-11.612 -8.197)" fill="#59b828" stroke="#59b828" stroke-width="0.1"/>
    <path id="Path_27985" data-name="Path 27985" d="M33.951,14h-.634a.317.317,0,0,0,0,.634h.634a.317.317,0,0,0,0-.634Z" transform="translate(-21.175 -8.197)" fill="#59b828" stroke="#59b828" stroke-width="0.1"/>
    <path id="Path_27986" data-name="Path 27986" d="M15.139,48.562a.947.947,0,0,0-1.3-.349L11.8,49.386a.951.951,0,0,0-.929-.752H8.434l-.063-.042a3.476,3.476,0,0,0-3.835-.021v-.254A.317.317,0,0,0,4.218,48h-1.9A.317.317,0,0,0,2,48.317v3.8a.317.317,0,0,0,.317.317h1.9a.317.317,0,0,0,.317-.317v-.043l.3.2a.944.944,0,0,0,.531.164h4.706a.926.926,0,0,0,.475-.127l4.247-2.45a.956.956,0,0,0,.475-.826A.941.941,0,0,0,15.139,48.562ZM3.9,51.8H2.634V48.634H3.9ZM14.474,49.31l-4.252,2.453a.3.3,0,0,1-.154.04H5.363a.31.31,0,0,1-.177-.055l-.651-.432V49.268a.317.317,0,0,0,.176-.053l.144-.1a2.845,2.845,0,0,1,3.165,0l.144.1a.317.317,0,0,0,.176.053h2.535a.317.317,0,1,1,0,.634h-1.9a.317.317,0,1,0,0,.634h1.9a.943.943,0,0,0,.628-.242l2.658-1.533a.307.307,0,0,1,.236-.032.315.315,0,0,1,.194.15.306.306,0,0,1,.043.155.32.32,0,0,1-.158.277Z" transform="translate(0 -38.355)" fill="#59b828" stroke="#59b828" stroke-width="0.1"/>
  </g>
</svg>
