<svg id="calender" xmlns="http://www.w3.org/2000/svg" width="41.868" height="40.473" viewBox="0 0 41.868 40.473">
  <g id="Group_315" data-name="Group 315" transform="translate(18.143 16.747)">
    <path id="Path_471" data-name="Path 471" d="M235.923,211.857a11.863,11.863,0,1,0,11.863,11.863A11.863,11.863,0,0,0,235.923,211.857Zm0,22.33A10.467,10.467,0,1,1,246.39,223.72,10.467,10.467,0,0,1,235.923,234.187Z" transform="translate(-224.06 -211.857)" fill="#f68501"/>
    <path id="Path_472" data-name="Path 472" d="M271.406,249.583v-4.315h-1.4v4.315a2.092,2.092,0,0,0-1.267,1.267h-2.92v1.4h2.92a2.089,2.089,0,1,0,2.663-2.663Zm-.7,2.663a.7.7,0,1,1,.7-.7A.7.7,0,0,1,270.708,252.246Z" transform="translate(-258.845 -239.685)" fill="#f68501"/>
    <path id="Path_473" data-name="Path 473" d="M240.765,278.679h1.4v1.4h-1.4Z" transform="translate(-237.974 -267.514)" fill="#f68501"/>
    <path id="Path_474" data-name="Path 474" d="M290.881,328.794h1.4v1.4h-1.4Z" transform="translate(-279.716 -309.255)" fill="#f68501"/>
    <path id="Path_475" data-name="Path 475" d="M341,278.679h1.4v1.4H341Z" transform="translate(-321.458 -267.514)" fill="#f68501"/>
    <path id="Path_476" data-name="Path 476" d="M290.881,228.563h1.4v1.4h-1.4Z" transform="translate(-279.716 -225.772)" fill="#f68501"/>
  </g>
  <g id="Group_316" data-name="Group 316">
    <path id="Path_477" data-name="Path 477" d="M116.872,141.632V121.4h32.1v6.28h1.4v-9.769a3.493,3.493,0,0,0-3.489-3.489h-4.885v-.7a2.093,2.093,0,1,0-4.187,0v.7h-9.77v-.7a2.093,2.093,0,1,0-4.187,0v.7h-4.885a3.493,3.493,0,0,0-3.489,3.489v23.725a3.493,3.493,0,0,0,3.489,3.489h13.956v-1.4H118.966A2.094,2.094,0,0,1,116.872,141.632Zm22.33-27.912a.7.7,0,0,1,1.4,0v2.791a.7.7,0,0,1-1.4,0Zm-13.956,0a.7.7,0,0,1,1.4,0v2.791a.7.7,0,0,1-1.4,0Zm-6.28,2.093h4.885v.7a2.093,2.093,0,1,0,4.187,0v-.7h9.769v.7a2.093,2.093,0,1,0,4.187,0v-.7h4.885a2.094,2.094,0,0,1,2.093,2.093V120h-32.1v-2.093A2.094,2.094,0,0,1,118.966,115.813Z" transform="translate(-115.477 -111.626)" fill="#4b566b"/>
    <path id="Path_478" data-name="Path 478" d="M146.116,196.548a1.4,1.4,0,0,0-1.4-1.4h-2.791a1.4,1.4,0,0,0-1.4,1.4v2.791a1.4,1.4,0,0,0,1.4,1.4h2.791a1.4,1.4,0,0,0,1.4-1.4Zm-4.187,2.791v-2.791h2.791v2.791Z" transform="translate(-136.346 -181.196)" fill="#4b566b"/>
    <path id="Path_479" data-name="Path 479" d="M187.879,196.548a1.4,1.4,0,0,0-1.4-1.4h-2.791a1.4,1.4,0,0,0-1.4,1.4v2.791a1.4,1.4,0,0,0,1.4,1.4h2.791a1.4,1.4,0,0,0,1.4-1.4v-2.791Zm-4.187,2.791v-2.791h2.791v2.791Z" transform="translate(-171.132 -181.196)" fill="#4b566b"/>
    <path id="Path_480" data-name="Path 480" d="M229.642,198.641v-2.093a1.4,1.4,0,0,0-1.4-1.4h-2.791a1.4,1.4,0,0,0-1.4,1.4v2.791a1.4,1.4,0,0,0,1.4,1.4h1.4v-1.4h-1.4v-2.791h2.791v2.093Z" transform="translate(-205.916 -181.196)" fill="#4b566b"/>
    <path id="Path_481" data-name="Path 481" d="M144.72,245.268h-2.791a1.4,1.4,0,0,0-1.4,1.4v2.791a1.4,1.4,0,0,0,1.4,1.4h2.791a1.4,1.4,0,0,0,1.4-1.4v-2.791A1.4,1.4,0,0,0,144.72,245.268Zm-2.791,4.187v-2.791h2.791v2.791Z" transform="translate(-136.346 -222.938)" fill="#4b566b"/>
    <path id="Path_482" data-name="Path 482" d="M186.484,245.268h-2.791a1.4,1.4,0,0,0-1.4,1.4v2.791a1.4,1.4,0,0,0,1.4,1.4h2.791a1.4,1.4,0,0,0,1.4-1.4v-2.791A1.4,1.4,0,0,0,186.484,245.268Zm-2.791,4.187v-2.791h2.791v2.791Z" transform="translate(-171.132 -222.938)" fill="#4b566b"/>
    <path id="Path_483" data-name="Path 483" d="M271.406,197.246v-.7a1.4,1.4,0,0,0-1.4-1.4h-2.791a1.4,1.4,0,0,0-1.4,1.4v.7h1.4v-.7h2.791v.7Z" transform="translate(-240.702 -181.196)" fill="#4b566b"/>
  </g>
</svg>
