<svg xmlns="http://www.w3.org/2000/svg" width="22.756" height="20" viewBox="0 0 22.756 20">
  <g id="shopping-cart" transform="translate(0 0)">
    <path id="Path_22653" data-name="Path 22653" d="M7.331,13.242H19.422a.666.666,0,0,0,.641-.48L22.73,3.493a.659.659,0,0,0-.109-.581.669.669,0,0,0-.532-.263H5.794L5.317.519A.666.666,0,0,0,4.667,0h-4a.662.662,0,1,0,0,1.324H4.132L6.539,12.082a1.984,1.984,0,0,0,.794,3.809H19.422a.662.662,0,1,0,0-1.324H7.333a.662.662,0,1,1,0-1.324ZM21.2,3.973l-2.286,7.945H7.868L6.09,3.973Zm0,0" transform="translate(0)" fill="#4b566b"/>
    <path id="Path_22654" data-name="Path 22654" d="M150,362.055A2.055,2.055,0,1,0,152.055,360,2.057,2.057,0,0,0,150,362.055Zm2.055-.685a.685.685,0,1,1-.685.685A.686.686,0,0,1,152.055,361.37Zm0,0" transform="translate(-143.373 -344.11)" fill="#4b566b"/>
    <path id="Path_22655" data-name="Path 22655" d="M362,362.055A2.055,2.055,0,1,0,364.055,360,2.057,2.057,0,0,0,362,362.055Zm2.055-.685a.685.685,0,1,1-.685.685A.686.686,0,0,1,364.055,361.37Zm0,0" transform="translate(-346.094 -344.11)" fill="#4b566b"/>
  </g>
</svg>
