<svg id="cash-on-delivery" xmlns="http://www.w3.org/2000/svg" width="36.054" height="33.597" viewBox="0 0 36.054 33.597">
  <path id="XMLID_57_" d="M39.7,136.418c.327-.03.656-.045.984-.045a10.909,10.909,0,0,1,3.488.572,10.664,10.664,0,0,1,1.313.539l6.856,3.354,11.473-6.225A2.2,2.2,0,1,1,66,138.426L54.661,148.817l-.021.017a4.057,4.057,0,0,1-3.89.537l-9.167-3.462a6.423,6.423,0,0,0-4.823.3v-9.1A10.97,10.97,0,0,1,39.7,136.418Z" transform="translate(-31.838 -116.614)" fill="#ffbb98"/>
  <path id="Path_22663" data-name="Path 22663" d="M6.495,138.983v11.409a.787.787,0,0,0,.787.787h2.772a.787.787,0,0,0,.787-.787V138.983a.787.787,0,0,0-.787-.787H7.282A.787.787,0,0,0,6.495,138.983Z" transform="translate(-5.921 -119.933)" fill="#ff4a73"/>
  <path id="Path_22664" data-name="Path 22664" d="M6.495,138.983v11.409a.787.787,0,0,0,.787.787H7.9a.787.787,0,0,0,.787-.787V138.983A.787.787,0,0,0,7.9,138.2H7.282A.787.787,0,0,0,6.495,138.983Z" transform="translate(-5.921 -119.933)" fill="#f973a3"/>
  <path id="XMLID_56_" d="M39.7,148.65c.327-.03.656-.045.984-.045a10.911,10.911,0,0,1,3.488.572,10.673,10.673,0,0,1,1.313.539l6.856,3.354,1.087.532a2.041,2.041,0,0,1-1.838,3.645l-8.417-4.117a12.521,12.521,0,0,0-5.431-.885l-.981.079v-2.987A10.975,10.975,0,0,1,39.7,148.65Z" transform="translate(-31.838 -128.847)" fill="#ffcaa6"/>
  <path id="Path_22665" data-name="Path 22665" d="M105.267,29.852H82.631a.718.718,0,0,1-.718-.718V15.764a.718.718,0,0,1,.718-.718h22.636a.718.718,0,0,1,.718.718v13.37A.718.718,0,0,1,105.267,29.852Z" transform="translate(-70.506 -14.472)" fill="#44c7b6"/>
  <path id="Path_22666" data-name="Path 22666" d="M118.35,43.573H100.987a.718.718,0,0,1-.718-.718v-7.84a.718.718,0,0,1,.718-.718H118.35a.718.718,0,0,1,.718.718v7.84A.718.718,0,0,1,118.35,43.573Z" transform="translate(-86.225 -30.958)" fill="#44c7b6"/>
  <path id="Path_22667" data-name="Path 22667" d="M214.018,35.012v7.84a.718.718,0,0,1-.718.718h-2.155a.718.718,0,0,0,.718-.718v-7.84a.718.718,0,0,0-.718-.718H213.3A.718.718,0,0,1,214.018,35.012Z" transform="translate(-181.175 -30.955)" fill="#3bb2a0"/>
  <path id="Path_22668" data-name="Path 22668" d="M103.138,43.57h-2.155a.718.718,0,0,1-.718-.718v-7.84a.718.718,0,0,1,.718-.718h2.155a.718.718,0,0,0-.718.718v7.84A.718.718,0,0,0,103.138,43.57Z" transform="translate(-86.222 -30.955)" fill="#4bdbc3"/>
  <path id="Path_22669" data-name="Path 22669" d="M232.378,15.762v13.37a.718.718,0,0,1-.718.718h-2.155a.718.718,0,0,0,.718-.718V15.762a.718.718,0,0,0-.718-.718h2.155A.718.718,0,0,1,232.378,15.762Z" transform="translate(-196.898 -14.47)" fill="#3bb2a0"/>
  <path id="Path_22670" data-name="Path 22670" d="M84.788,29.85H82.633a.718.718,0,0,1-.718-.718V15.762a.718.718,0,0,1,.718-.718h2.155a.718.718,0,0,0-.718.718v13.37A.718.718,0,0,0,84.788,29.85Z" transform="translate(-70.507 -14.47)" fill="#4bdbc3"/>
  <g id="Group_17338" data-name="Group 17338" transform="translate(0 0)">
    <path id="Path_22671" data-name="Path 22671" d="M34.194,130.683l-11.212,6.083-6.588-3.223a11.491,11.491,0,0,0-8.4-.665v-.638a1.363,1.363,0,0,0-1.362-1.362H3.859A1.363,1.363,0,0,0,2.5,132.24v11.407a1.363,1.363,0,0,0,1.362,1.362H6.631a1.363,1.363,0,0,0,1.362-1.362v-.491a5.813,5.813,0,0,1,4.055-.13l9.157,3.457a4.654,4.654,0,0,0,4.437-.615c.044-.033.05-.038,2.167-1.981,2.9-2.661,8.933-8.2,9.448-8.6a2.774,2.774,0,0,0-3.063-4.608ZM6.843,143.647a.213.213,0,0,1-.213.213H3.859a.213.213,0,0,1-.213-.213V132.24a.213.213,0,0,1,.213-.213H6.631a.213.213,0,0,1,.213.213Zm29.713-9.267c-.513.394-5.186,4.677-9.525,8.661-1.1,1.01-1.976,1.814-2.1,1.921a3.5,3.5,0,0,1-3.324.446l-9.167-3.461-.019-.007a6.948,6.948,0,0,0-4.432-.007v-7.848a10.342,10.342,0,0,1,7.9.49l7.936,3.883a1.466,1.466,0,1,1-1.327,2.615l-8.58-4.2a.575.575,0,0,0-.505,1.032l8.574,4.194a2.616,2.616,0,1,0,2.262-4.716l10.5-5.7a1.625,1.625,0,0,1,1.8,2.694Z" transform="translate(-2.497 -113.189)" fill="#5f266d"/>
    <path id="Path_22672" data-name="Path 22672" d="M101.845,11.05H79.21a1.294,1.294,0,0,0-1.293,1.293v13.37a1.294,1.294,0,0,0,1.293,1.293h22.636a1.294,1.294,0,0,0,1.293-1.293V12.343A1.294,1.294,0,0,0,101.845,11.05Zm.144,14.663a.144.144,0,0,1-.144.144H79.21a.144.144,0,0,1-.144-.144V12.343a.144.144,0,0,1,.144-.144h22.636a.144.144,0,0,1,.144.144Z" transform="translate(-67.084 -11.05)" fill="#5f266d"/>
    <path id="Path_22673" data-name="Path 22673" d="M114.927,30.3H97.565a1.294,1.294,0,0,0-1.293,1.293v7.84a1.294,1.294,0,0,0,1.293,1.293h17.362a1.294,1.294,0,0,0,1.293-1.293v-7.84A1.294,1.294,0,0,0,114.927,30.3Zm.144,9.132a.144.144,0,0,1-.144.144H97.565a.144.144,0,0,1-.144-.144v-7.84a.144.144,0,0,1,.144-.144h17.362a.144.144,0,0,1,.144.144Z" transform="translate(-82.802 -27.536)" fill="#5f266d"/>
    <path id="Path_22674" data-name="Path 22674" d="M154.085,45.161c0-.4.657-.365,1.029-.2a.536.536,0,0,0,.414-.986,2.161,2.161,0,0,0-.55-.15v-.2a.505.505,0,1,0-1.011,0v.264a1.4,1.4,0,0,0-1.063,1.362c0,.844.679,1.224,1.341,1.484.568.23.616.416.616.571,0,.244-.216.4-.55.4-.612,0-.729-.315-1.087-.167a.549.549,0,0,0-.06.978,2.423,2.423,0,0,0,.754.222v.226a.509.509,0,0,0,1.018,0v-.285a1.479,1.479,0,0,0,1.112-1.425C156.048,45.643,154.085,45.77,154.085,45.161Z" transform="translate(-131.289 -38.508)" fill="#5f266d"/>
    <path id="Path_22675" data-name="Path 22675" d="M213.044,81.34H212.7a.575.575,0,0,0,0,1.149h.341a.575.575,0,0,0,0-1.149Z" transform="translate(-182.017 -71.244)" fill="#5f266d"/>
    <path id="Path_22676" data-name="Path 22676" d="M187.426,81.34H185.7a.575.575,0,1,0,0,1.149h1.724a.575.575,0,0,0,0-1.149Z" transform="translate(-158.895 -71.244)" fill="#5f266d"/>
  </g>
</svg>
