<svg id="checked" xmlns="http://www.w3.org/2000/svg" width="40.54" height="40.54" viewBox="0 0 40.54 40.54">
  <circle id="Ellipse_40" data-name="Ellipse 40" cx="20.27" cy="20.27" r="20.27" transform="translate(0)" fill="#32ba7c"/>
  <path id="Path_28019" data-name="Path 28019" d="M188.8,169.264l10.423,10.423a20.256,20.256,0,0,0,15.026-19.566v-.575L206.064,152Z" transform="translate(-173.71 -139.851)" fill="#0aa06e"/>
  <g id="Group_26607" data-name="Group 26607" transform="translate(6.81 10.007)">
    <path id="Path_28020" data-name="Path 28020" d="M99.171,208.456a2.394,2.394,0,0,1,0,3.325l-1.854,1.854a2.394,2.394,0,0,1-3.325,0l-8.121-8.185a2.394,2.394,0,0,1,0-3.325l1.854-1.854a2.394,2.394,0,0,1,3.325,0Z" transform="translate(-85.2 -193.653)" fill="#fff"/>
    <path id="Path_28021" data-name="Path 28021" d="M179.139,125.871a2.394,2.394,0,0,1,3.325,0l1.854,1.854a2.394,2.394,0,0,1,0,3.325l-14.067,14a2.394,2.394,0,0,1-3.325,0l-1.854-1.854a2.394,2.394,0,0,1,0-3.325Z" transform="translate(-158.07 -125.2)" fill="#fff"/>
  </g>
</svg>
