<svg xmlns="http://www.w3.org/2000/svg" width="10" height="10" viewBox="0 0 10 10">
  <g id="close" transform="translate(-0.039 0.001)">
    <path id="Path_23025" data-name="Path 23025" d="M.553,10A.515.515,0,0,1,.19,9.121L9.161.15a.515.515,0,0,1,.728.728L.917,9.848A.516.516,0,0,1,.553,10Zm0,0" transform="translate(0)" fill="#797f81"/>
    <path id="Path_23026" data-name="Path 23026" d="M9.525,10a.51.51,0,0,1-.364-.151L.19.878A.515.515,0,0,1,.917.15L9.888,9.121A.515.515,0,0,1,9.525,10Zm0,0" transform="translate(0 0)" fill="#797f81"/>
  </g>
</svg>
