<svg xmlns="http://www.w3.org/2000/svg" width="60" height="60" viewBox="0 0 60 60">
  <g id="Group_17569" data-name="Group 17569" transform="translate(-198 -537)">
    <g id="Group_17489" data-name="Group 17489" transform="translate(197.52 537)">
      <circle id="Ellipse_25" data-name="Ellipse 25" cx="30" cy="30" r="30" transform="translate(0.481)" fill="#e1ffd9"/>
      <g id="Ellipse_26" data-name="Ellipse 26" transform="translate(2.481 2)" fill="none" stroke="#fff" stroke-width="1">
        <circle cx="28" cy="28" r="28" stroke="none"/>
        <circle cx="28" cy="28" r="27.5" fill="none"/>
      </g>
    </g>
    <path id="rice_1_" data-name="rice (1)" d="M83.1,28.9l-1.662-2.01V23.865a1,1,0,0,0-.26-.672l-.935-1.029a2.943,2.943,0,0,0,.343-.294,2.888,2.888,0,0,0,.851-2.055V17.562a1.537,1.537,0,0,0,1.371-1.526V14.822a1.537,1.537,0,0,0-1.535-1.535h-.358V8.042a2.214,2.214,0,0,1,.39-1.259l.855-1.245a.49.49,0,0,0-.4-.768H80.11a2.285,2.285,0,0,0-1.808.888v-.25A2.2,2.2,0,0,1,78.7,4.15l.862-1.245a.49.49,0,0,0-.4-.769H77.492a2.306,2.306,0,0,0-1.955,1.079,4.251,4.251,0,0,0-8.374,1.036V5.409H65.642A2.149,2.149,0,0,0,63.5,7.555V8.724a3.758,3.758,0,0,0-1.648,1.256L60.69,11.539a3.781,3.781,0,0,0-.708,1.749h-.1a1.537,1.537,0,0,0-1.535,1.535v1.213a1.537,1.537,0,0,0,1.437,1.531v2.84a1.466,1.466,0,0,0,.432,1.044l.419.419a2.911,2.911,0,0,0,.343.294l-.935,1.029a1,1,0,0,0-.259.672v3.025L58.12,28.9a2,2,0,0,0-.458,1.272V31.62a1.819,1.819,0,0,0,1.817,1.817H61.41a.49.49,0,0,0,0-.981H59.479a.837.837,0,0,1-.836-.836V30.173a1.019,1.019,0,0,1,.233-.647L60.5,27.557h2.276a.49.49,0,1,0,0-.981H60.763V23.865a.018.018,0,0,1,0-.012l1.346-1.482a.49.49,0,0,0-.173-.782,1.916,1.916,0,0,1-.614-.413l-.419-.419a.492.492,0,0,1-.145-.35V17.571H63.5V18.6a.49.49,0,0,0,.357.472,2.134,2.134,0,0,0-.357,1.184v1.513a.49.49,0,0,0,.49.49h1.268a2.892,2.892,0,0,0,.84,2.272l.813.813a1.058,1.058,0,0,0,1.494,0l.813-.813a2.892,2.892,0,0,0,.84-2.272h1.268a.49.49,0,0,0,.49-.49V20.254a2.134,2.134,0,0,0-.357-1.184.49.49,0,0,0,.357-.472V17.571h3.226a.49.49,0,0,0,0-.981H71.753a2.136,2.136,0,0,0-.3-.689.49.49,0,0,0,.357-.472V14.268h9.464a.555.555,0,0,1,.554.554v1.213a.555.555,0,0,1-.554.554H77.127a.49.49,0,1,0,0,.981h3.332v2.244A1.928,1.928,0,0,1,79.3,21.582l-.043.018a1.924,1.924,0,0,1-.724.141h-.54a.49.49,0,0,0,0,.981h.54a2.919,2.919,0,0,0,.793-.11l1.128,1.241a.019.019,0,0,1,0,.013v2.712H71.853a.49.49,0,1,0,0,.981h8.866l1.628,1.969a1.018,1.018,0,0,1,.233.647v1.447a.837.837,0,0,1-.836.836H63.5a.49.49,0,1,0,0,.981H81.743a1.819,1.819,0,0,0,1.817-1.817V30.174A2,2,0,0,0,83.1,28.9ZM78.951,6.452a1.312,1.312,0,0,1,1.159-.7h.718l-.328.477a3.19,3.19,0,0,0-.562,1.814v5.246H78.3V9.061a5.588,5.588,0,0,1,.649-2.609ZM76.319,3.819a1.328,1.328,0,0,1,1.173-.7h.727l-.329.476a3.175,3.175,0,0,0-.567,1.815v7.88H75.665V11.875a.49.49,0,1,0-.981,0v1.413H71.718a2.139,2.139,0,0,0-.27-.566.49.49,0,0,0,.364-.473V10.736a2.134,2.134,0,0,0-.364-1.194.49.49,0,0,0,.364-.473v-.73L74.685,9v.783a.49.49,0,0,0,.981,0V6.427a5.548,5.548,0,0,1,.654-2.608ZM70.831,17.085v1.023H69.309a1.167,1.167,0,0,1-1.166-1.166V15.919h1.522A1.167,1.167,0,0,1,70.831,17.085Zm0-5.327H69.309a1.167,1.167,0,0,1-1.166-1.166V9.57h1.522a1.167,1.167,0,0,1,1.166,1.166Zm-3.668-1.166A1.167,1.167,0,0,1,66,11.758H64.476V10.735A1.167,1.167,0,0,1,65.642,9.57h1.522Zm-2.687,4.346V13.916a1.167,1.167,0,0,1,1.166-1.166h1.522v1.023A1.167,1.167,0,0,1,66,14.939H64.476Zm6.355-6.361H69.309a1.167,1.167,0,0,1-1.166-1.166V6.389h1.522a1.167,1.167,0,0,1,1.166,1.166Zm-6.355,9.53V17.085a1.167,1.167,0,0,1,1.166-1.166h1.522v1.023A1.167,1.167,0,0,1,66,18.108H64.476Zm4.833-3.169a1.167,1.167,0,0,1-1.166-1.166V12.75h1.522a1.167,1.167,0,0,1,1.166,1.166v1.023H69.309ZM71.414.981a3.274,3.274,0,0,1,3.27,3.27V8L71.8,7.329a2.149,2.149,0,0,0-2.134-1.92H68.144V4.251a3.274,3.274,0,0,1,3.27-3.27ZM64.476,7.555a1.167,1.167,0,0,1,1.166-1.166h1.522V7.412A1.167,1.167,0,0,1,66,8.578H64.476Zm-3,4.569,1.158-1.558a2.776,2.776,0,0,1,1.147-.9,2.132,2.132,0,0,0-.287,1.07v1.513a.49.49,0,0,0,.364.473,2.137,2.137,0,0,0-.27.566H60.974a2.791,2.791,0,0,1,.5-1.164Zm-2.151,3.912V14.822a.555.555,0,0,1,.554-.554H63.5v1.161a.49.49,0,0,0,.357.472,2.136,2.136,0,0,0-.3.689H59.88a.555.555,0,0,1-.554-.554Zm5.15,4.218a1.167,1.167,0,0,1,1.166-1.166h1.522v1.023A1.167,1.167,0,0,1,66,21.277H64.476Zm4.044,3.582-.813.813a.076.076,0,0,1-.108,0l-.813-.813a1.914,1.914,0,0,1-.547-1.592,2.145,2.145,0,0,0,1.413-.768,2.145,2.145,0,0,0,1.413.768A1.914,1.914,0,0,1,68.52,23.836Zm2.311-2.559H69.309a1.167,1.167,0,0,1-1.166-1.166V19.089h1.522a1.167,1.167,0,0,1,1.166,1.166Z" transform="translate(156.863 550)" fill="#4b566b"/>
  </g>
</svg>
