<?xml version="1.0" encoding="UTF-8"?>
<!DOCTYPE svg PUBLIC "-//W3C//DTD SVG 1.1//EN" "http://www.w3.org/Graphics/SVG/1.1/DTD/svg11.dtd">
<!-- Creator: CorelDRAW 2018 (64-Bit Evaluation Version) -->
<svg xmlns="http://www.w3.org/2000/svg" xml:space="preserve" width="7.4378mm" height="7.4376mm" version="1.1" style="shape-rendering:geometricPrecision; text-rendering:geometricPrecision; image-rendering:optimizeQuality; fill-rule:evenodd; clip-rule:evenodd"
viewBox="0 0 69.02 69.01"
 xmlns:xlink="http://www.w3.org/1999/xlink">
 <defs>
  <style type="text/css">
   <![CDATA[
    .fil0 {fill:#4B566B;fill-rule:nonzero}
   ]]>
  </style>
 </defs>
 <g id="Layer_x0020_1">
  <metadata id="CorelCorpID_0Corel-Layer"/>
  <path class="fil0" d="M26.78 23.68l-21.33 0c-1.5,0 -2.86,-0.61 -3.85,-1.6 -0.99,-0.99 -1.6,-2.35 -1.6,-3.85l0 -12.8c0,-1.5 0.61,-2.86 1.6,-3.85 0.99,-0.98 2.35,-1.6 3.85,-1.6l21.33 0c1.5,0 2.86,0.61 3.85,1.6 0.98,0.98 1.6,2.34 1.6,3.85l0 12.8c0,1.5 -0.61,2.86 -1.6,3.85 -0.98,0.99 -2.35,1.6 -3.85,1.6zm36.8 17.07l-21.33 0c-1.5,0 -2.86,-0.61 -3.85,-1.6 -0.98,-0.99 -1.6,-2.35 -1.6,-3.85l0 -29.87c0,-1.5 0.61,-2.86 1.6,-3.85 0.99,-0.98 2.35,-1.6 3.85,-1.6l21.33 0c1.5,0 2.86,0.61 3.85,1.6 0.99,0.98 1.6,2.35 1.6,3.85l0 29.87c0,1.5 -0.61,2.86 -1.6,3.85 -0.99,0.98 -2.35,1.6 -3.85,1.6zm-21.33 -35.56c-0.07,0 -0.13,0.03 -0.17,0.07 -0.05,0.04 -0.07,0.11 -0.07,0.17l0 29.87c0,0.07 0.03,0.13 0.07,0.17 0.04,0.04 0.11,0.07 0.17,0.07l21.33 0c0.07,0 0.13,-0.03 0.17,-0.07 0.04,-0.05 0.07,-0.11 0.07,-0.18l0 -29.87c0,-0.07 -0.03,-0.13 -0.07,-0.17 -0.05,-0.05 -0.11,-0.07 -0.18,-0.07l-21.33 0zm21.33 63.82l-21.33 0c-1.5,0 -2.86,-0.61 -3.85,-1.6 -0.98,-0.98 -1.6,-2.34 -1.6,-3.85l0 -12.8c0,-1.5 0.61,-2.86 1.6,-3.85 0.98,-0.99 2.35,-1.6 3.85,-1.6l21.33 0c1.5,0 2.86,0.61 3.85,1.6 0.99,0.99 1.6,2.35 1.6,3.85l0 12.8c0,1.5 -0.61,2.86 -1.6,3.85 -0.99,0.98 -2.35,1.6 -3.85,1.6zm-21.33 -18.49c-0.07,0 -0.13,0.03 -0.17,0.07 -0.05,0.04 -0.07,0.11 -0.07,0.17l0 12.8c0,0.07 0.03,0.13 0.07,0.17 0.05,0.04 0.11,0.07 0.18,0.07l21.33 0c0.07,0 0.13,-0.03 0.17,-0.07 0.04,-0.04 0.07,-0.11 0.07,-0.18l0 -12.8c0,-0.07 -0.03,-0.13 -0.07,-0.18 -0.04,-0.04 -0.11,-0.07 -0.18,-0.07l-21.33 0zm-15.46 18.49l-21.33 0c-1.5,0 -2.86,-0.61 -3.85,-1.6 -0.99,-0.98 -1.6,-2.35 -1.6,-3.85l0 -29.87c0,-1.5 0.61,-2.86 1.6,-3.85 0.99,-0.99 2.35,-1.6 3.85,-1.6l21.33 0c1.5,0 2.86,0.61 3.85,1.6 0.98,0.99 1.6,2.35 1.6,3.85l0 29.87c0,1.5 -0.61,2.86 -1.6,3.85 -0.99,0.98 -2.35,1.6 -3.85,1.6zm-21.33 -35.56c-0.07,0 -0.13,0.03 -0.17,0.07 -0.04,0.04 -0.07,0.11 -0.07,0.17l0 29.87c0,0.07 0.03,0.13 0.07,0.17 0.05,0.05 0.11,0.07 0.18,0.07l21.33 0c0.07,0 0.13,-0.03 0.17,-0.07 0.04,-0.04 0.07,-0.11 0.07,-0.17l0 -29.87c0,-0.07 -0.03,-0.13 -0.07,-0.17 -0.05,-0.04 -0.11,-0.07 -0.18,-0.07l-21.33 0zm0 -28.26c-0.07,0 -0.13,0.03 -0.17,0.07 -0.05,0.05 -0.07,0.11 -0.07,0.18l0 12.8c0,0.07 0.03,0.13 0.07,0.17 0.04,0.04 0.11,0.07 0.17,0.07l21.33 0c0.07,0 0.13,-0.03 0.17,-0.07 0.04,-0.04 0.07,-0.11 0.07,-0.17l0 -12.8c0,-0.07 -0.03,-0.13 -0.07,-0.17 -0.05,-0.04 -0.11,-0.07 -0.18,-0.07l-21.33 0z"/>
 </g>
</svg>
