<svg id="delete" xmlns="http://www.w3.org/2000/svg" width="20.409" height="25.129" viewBox="0 0 20.409 25.129">
  <path id="Path_23016" data-name="Path 23016" d="M222.986,154.7a.588.588,0,0,0-.589.589v11.123a.589.589,0,0,0,1.177,0V155.292A.588.588,0,0,0,222.986,154.7Zm0,0" transform="translate(-209.31 -145.599)" fill="#4b566b"/>
  <path id="Path_23017" data-name="Path 23017" d="M104.986,154.7a.588.588,0,0,0-.588.589v11.123a.588.588,0,1,0,1.177,0V155.292A.588.588,0,0,0,104.986,154.7Zm0,0" transform="translate(-98.254 -145.599)" fill="#4b566b"/>
  <path id="Path_23018" data-name="Path 23018" d="M1.668,7.48v14.5a3.247,3.247,0,0,0,.863,2.239,2.9,2.9,0,0,0,2.1.909H15.769a2.9,2.9,0,0,0,2.1-.909,3.247,3.247,0,0,0,.863-2.239V7.48a2.248,2.248,0,0,0-.577-4.421H15.145V2.323A2.312,2.312,0,0,0,12.814,0H7.588A2.312,2.312,0,0,0,5.258,2.323v.736H2.245A2.248,2.248,0,0,0,1.668,7.48Zm14.1,16.471H4.634a1.864,1.864,0,0,1-1.789-1.971V7.531H17.557V21.979a1.864,1.864,0,0,1-1.789,1.971ZM6.435,2.323A1.134,1.134,0,0,1,7.588,1.176h5.226a1.134,1.134,0,0,1,1.154,1.148v.736H6.435ZM2.245,4.236H18.158a1.059,1.059,0,0,1,0,2.119H2.245a1.059,1.059,0,0,1,0-2.119Zm0,0" transform="translate(0.003 0.002)" fill="#4b566b"/>
  <path id="Path_23019" data-name="Path 23019" d="M163.986,154.7a.588.588,0,0,0-.589.589v11.123a.589.589,0,0,0,1.177,0V155.292A.588.588,0,0,0,163.986,154.7Zm0,0" transform="translate(-153.782 -145.599)" fill="#4b566b"/>
</svg>
