<svg id="delete" xmlns="http://www.w3.org/2000/svg" width="11.371" height="14" viewBox="0 0 11.371 14">
  <path id="Path_23016" data-name="Path 23016" d="M222.716,154.7a.318.318,0,0,0-.318.318v6.006a.318.318,0,1,0,.636,0v-6.006A.318.318,0,0,0,222.716,154.7Zm0,0" transform="translate(-215.092 -149.357)" fill="#f68501"/>
  <path id="Path_23017" data-name="Path 23017" d="M104.716,154.7a.318.318,0,0,0-.318.318v6.006a.318.318,0,1,0,.636,0v-6.006A.318.318,0,0,0,104.716,154.7Zm0,0" transform="translate(-100.969 -149.357)" fill="#f68501"/>
  <path id="Path_23018" data-name="Path 23018" d="M.928,4.166v8.078a1.809,1.809,0,0,0,.481,1.248A1.615,1.615,0,0,0,2.58,14h6.2a1.614,1.614,0,0,0,1.171-.507,1.809,1.809,0,0,0,.481-1.248V4.166A1.252,1.252,0,0,0,10.115,1.7H8.436v-.41A1.288,1.288,0,0,0,7.138,0H4.226a1.288,1.288,0,0,0-1.3,1.3V1.7H1.249A1.252,1.252,0,0,0,.928,4.166Zm7.856,9.176H2.58a1.038,1.038,0,0,1-1-1.1V4.2h8.2v8.049a1.038,1.038,0,0,1-1,1.1ZM3.584,1.294A.632.632,0,0,1,4.226.654H7.138a.632.632,0,0,1,.643.639V1.7h-4.2ZM1.249,2.359h8.865a.59.59,0,1,1,0,1.18H1.249a.59.59,0,0,1,0-1.18Zm0,0" transform="translate(0.003 0.002)" fill="#f68501"/>
  <path id="Path_23019" data-name="Path 23019" d="M163.716,154.7a.318.318,0,0,0-.318.318v6.006a.318.318,0,0,0,.636,0v-6.006A.318.318,0,0,0,163.716,154.7Zm0,0" transform="translate(-158.031 -149.357)" fill="#f68501"/>
</svg>
