<svg xmlns="http://www.w3.org/2000/svg" width="20.095" height="20.095" viewBox="0 0 20.095 20.095">
  <g id="delivered" transform="translate(0)">
    <path id="Path_27944" data-name="Path 27944" d="M18.285,1.621H14.91V.972A.974.974,0,0,0,13.937,0H5.51a.974.974,0,0,0-.972.972V6.62a3.57,3.57,0,0,0-2.593,3.427v1.945A1.3,1.3,0,0,0,3,13.264a2.6,2.6,0,0,0,1.217,1.619v.741l-2.957.682A1.613,1.613,0,0,0,0,17.885V20.1H11.02v-2.21a1.613,1.613,0,0,0-1.256-1.579l-2.958-.682v-.741a2.6,2.6,0,0,0,1.217-1.619,1.3,1.3,0,0,0,1.051-1.272V10.363a1.6,1.6,0,0,0,.972.333,1.622,1.622,0,0,0,1.483-.972H15.7a1.617,1.617,0,0,0,2.966,0h.461a.974.974,0,0,0,.972-.972V3.431Zm-.268.648L19.447,3.7V7.779H18.141a1.591,1.591,0,0,0-1.925,0H14.91V2.269ZM5.186.972A.325.325,0,0,1,5.51.648h8.427a.325.325,0,0,1,.324.324V7.779H11.01a1.6,1.6,0,0,0-2.386.538A3.587,3.587,0,0,0,7.554,7.131h6.059V1.3H5.835V6.5c-.107-.01-.215-.016-.324-.016s-.217.007-.324.016Zm3.889.972h1.3v.648h-1.3Zm1.945,1.3v-1.3h1.945V6.482H11.02v-1.3H8.427v1.3H6.483V1.945H8.427v1.3Zm-.648,3.241h-1.3V5.834h1.3Zm-7.779,5.51a.646.646,0,0,1,.324-.558V12.55a.646.646,0,0,1-.324-.558Zm7.025,4.946a.968.968,0,0,1,.754.948v1.562H8.427v-1.3H7.779v1.3H3.242v-1.3H2.593v1.3H.649V17.885a.968.968,0,0,1,.754-.948l3-.693,1.1,1.474,1.1-1.473Zm-3.46-1.164-.648.864-.648-.864v-.626a2.506,2.506,0,0,0,1.3,0Zm1.3-3.133a1.945,1.945,0,1,1-3.889,0V11.1a.843.843,0,0,1,.313-.658,5.222,5.222,0,0,0,2.928.906h.648Zm0-1.945H6.807a4.568,4.568,0,0,1-2.723-.907l-.16-.12-.179.089a1.486,1.486,0,0,0-.779.969,1.293,1.293,0,0,0-.372.149v-.828a2.917,2.917,0,0,1,5.834,0v.828a1.27,1.27,0,0,0-.324-.134v-.694H7.455ZM8.1,12.55V11.434a.643.643,0,0,1,0,1.116Zm1.945-2.5a.972.972,0,1,1,.972-.972A.974.974,0,0,1,10.048,10.048Zm1.483-1.621h2.73v.648H11.669a1.6,1.6,0,0,0-.137-.648Zm3.379.648V8.427H15.7a1.6,1.6,0,0,0-.137.648Zm2.269.972a.972.972,0,1,1,.972-.972A.974.974,0,0,1,17.179,10.048Zm1.945-.972H18.8a1.6,1.6,0,0,0-.137-.648h.786v.324A.325.325,0,0,1,19.123,9.075Zm0,0" fill="#59b828"/>
    <path id="Path_27945" data-name="Path 27945" d="M416.648,216.324a.324.324,0,1,1-.324-.324A.324.324,0,0,1,416.648,216.324Zm0,0" transform="translate(-399.145 -207.249)" fill="#59b828"/>
    <path id="Path_27946" data-name="Path 27946" d="M240.648,216.324a.324.324,0,1,1-.324-.324A.324.324,0,0,1,240.648,216.324Zm0,0" transform="translate(-230.276 -207.249)" fill="#59b828"/>
    <path id="Path_27947" data-name="Path 27947" d="M387.241,74.593V73.162L386.079,72H384v2.593Zm-2.593-1.945h1.162l.782.782v.514h-1.945Zm0,0" transform="translate(-368.442 -69.083)" fill="#59b828"/>
    <path id="Path_27948" data-name="Path 27948" d="M276.538,272a4.538,4.538,0,1,0,4.538,4.538A4.543,4.543,0,0,0,276.538,272Zm0,8.427a3.889,3.889,0,1,1,3.889-3.889A3.894,3.894,0,0,1,276.538,280.427Zm0,0" transform="translate(-260.98 -260.98)" fill="#59b828"/>
    <path id="Path_27949" data-name="Path 27949" d="M324.729,336.24l-1.325-1.06-.405.506,1.917,1.533,2.781-4.867-.563-.322Zm0,0" transform="translate(-309.913 -318.579)" fill="#59b828"/>
  </g>
</svg>
