<svg xmlns="http://www.w3.org/2000/svg" width="20.33" height="14.716" viewBox="0 0 20.33 14.716">
  <g id="delivery-truck_3_" data-name="delivery-truck (3)" transform="translate(0 -70.686)">
    <g id="Group_26475" data-name="Group 26475" transform="translate(4.321 82.734)">
      <path id="Path_27955" data-name="Path 27955" d="M109.218,374.9a.4.4,0,1,1,0-.794h0a.4.4,0,1,1,0,.794Z" transform="translate(-108.82 -374.103)" fill="#59b828"/>
    </g>
    <g id="Group_26476" data-name="Group 26476" transform="translate(0 70.686)">
      <path id="Path_27956" data-name="Path 27956" d="M19.728,81.62V78.192a.4.4,0,0,0-.028-.145L17.715,73a.4.4,0,0,0-.37-.252H13.539V71.083a.4.4,0,0,0-.4-.4H8.2a.4.4,0,1,0,0,.794h4.548v1.27H11.614a.4.4,0,0,0-.4.4v8.39H6.325a2.241,2.241,0,0,0-3.213,0H1.4V75.825H6.627v.658a.4.4,0,0,0,.627.324l2.6-1.845a.4.4,0,0,0,0-.647l-2.6-1.845a.4.4,0,0,0-.627.324v.658H1.4V71.48H4.631a.4.4,0,0,0,0-.794H1a.4.4,0,0,0-.4.4V81.62a1,1,0,0,0-.6.92v.422a1,1,0,0,0,1,1H2.621a2.25,2.25,0,0,0,4.195,0h6.129a2.25,2.25,0,0,0,4.195,0h2.192a1,1,0,0,0,1-1v-.422a1,1,0,0,0-.6-.92ZM1.4,74.245H7.024a.4.4,0,0,0,.4-.4v-.286l1.513,1.076L7.421,75.714v-.286a.4.4,0,0,0-.4-.4H1.4Zm1.066,8.927H1a.21.21,0,0,1-.205-.21v-.422A.21.21,0,0,1,1,82.332H2.606a2.273,2.273,0,0,0-.144.8C2.462,83.145,2.462,83.159,2.463,83.173Zm2.255,1.435A1.478,1.478,0,1,1,6.18,83.131,1.472,1.472,0,0,1,4.718,84.608ZM18.747,77.8H14.721V75.226h3.015Zm-6.737-4.251h5.064l.349.888h-3.1a.4.4,0,0,0-.4.4v3.363a.4.4,0,0,0,.4.4h4.609v1.077h-.584a.4.4,0,1,0,0,.794h.584v1.077H16.648a2.241,2.241,0,0,0-3.213,0H12.011ZM6.973,83.173c0-.014,0-.028,0-.042a2.274,2.274,0,0,0-.144-.8h6.1a2.274,2.274,0,0,0-.144.8c0,.014,0,.028,0,.042Zm8.068,1.435A1.478,1.478,0,1,1,16.5,83.131,1.472,1.472,0,0,1,15.041,84.608Zm4.494-1.645a.21.21,0,0,1-.205.21H17.3c0-.014,0-.028,0-.042a2.274,2.274,0,0,0-.144-.8h2.177a.21.21,0,0,1,.205.209v.422Z" transform="translate(0 -70.686)" fill="#59b828"/>
      <path id="Path_27957" data-name="Path 27957" d="M369.206,374.1h0a.4.4,0,1,0,.4.4A.4.4,0,0,0,369.2,374.1Z" transform="translate(-354.164 -362.055)" fill="#59b828"/>
      <path id="Path_27958" data-name="Path 27958" d="M60.887,286.739a.4.4,0,0,0,0,.794h1.952a.4.4,0,0,0,0-.794Z" transform="translate(-58.088 -278.16)" fill="#59b828"/>
      <path id="Path_27959" data-name="Path 27959" d="M64.427,246.668a.4.4,0,0,0-.4-.4H60.887a.4.4,0,1,0,0,.794H64.03A.4.4,0,0,0,64.427,246.668Z" transform="translate(-58.088 -239.299)" fill="#59b828"/>
      <path id="Path_27960" data-name="Path 27960" d="M151.934,71.48h0a.4.4,0,1,0-.4-.4A.4.4,0,0,0,151.935,71.48Z" transform="translate(-145.52 -70.686)" fill="#59b828"/>
    </g>
  </g>
</svg>
