<svg id="Layer_x0020_1" xmlns="http://www.w3.org/2000/svg" xmlns:xlink="http://www.w3.org/1999/xlink" width="185.724" height="55.03" viewBox="0 0 185.724 55.03">
  <defs>
    <linearGradient id="linear-gradient" x1="0.846" y1="1.02" x2="-0.385" y2="0.34" gradientUnits="objectBoundingBox">
      <stop offset="0" stop-color="#00a0ff"/>
      <stop offset="0.012" stop-color="#00a1ff"/>
      <stop offset="0.259" stop-color="#00beff"/>
      <stop offset="0.51" stop-color="#00d2ff"/>
      <stop offset="0.761" stop-color="#00dfff"/>
      <stop offset="1" stop-color="#00e3ff"/>
    </linearGradient>
    <linearGradient id="linear-gradient-2" x1="0.962" y1="0.612" x2="-1.324" y2="0.612" gradientUnits="objectBoundingBox">
      <stop offset="0" stop-color="#ffe000"/>
      <stop offset="0.412" stop-color="#ffbd00"/>
      <stop offset="0.78" stop-color="orange"/>
      <stop offset="1" stop-color="#ff9c00"/>
    </linearGradient>
    <linearGradient id="linear-gradient-3" x1="0.814" y1="-0.077" x2="-0.503" y2="-1.769" gradientUnits="objectBoundingBox">
      <stop offset="0" stop-color="#ff3a44"/>
      <stop offset="1" stop-color="#c31162"/>
    </linearGradient>
    <linearGradient id="linear-gradient-4" x1="-0.204" y1="2.615" x2="0.395" y2="1.846" gradientUnits="objectBoundingBox">
      <stop offset="0" stop-color="#32a071"/>
      <stop offset="0.071" stop-color="#2da771"/>
      <stop offset="0.471" stop-color="#15cf74"/>
      <stop offset="0.8" stop-color="#06e775"/>
      <stop offset="1" stop-color="#00f076"/>
    </linearGradient>
  </defs>
  <g id="_1757745546960" transform="translate(0)">
    <path id="Path_22979" data-name="Path 22979" d="M178.845,55.03H6.879A6.813,6.813,0,0,1,0,48.151V6.879A6.813,6.813,0,0,1,6.879,0H178.845a6.813,6.813,0,0,1,6.879,6.879V48.151a6.813,6.813,0,0,1-6.879,6.879Z" transform="translate(0 0)" fill-rule="evenodd"/>
    <g id="Group_17488" data-name="Group 17488" transform="translate(0)">
      <path id="Path_22980" data-name="Path 22980" d="M178.845,1.1a5.812,5.812,0,0,1,5.778,5.778V48.151a5.812,5.812,0,0,1-5.778,5.778H6.879A5.812,5.812,0,0,1,1.1,48.151V6.879A5.813,5.813,0,0,1,6.879,1.1H178.845Zm0-1.1H6.879A6.9,6.9,0,0,0,0,6.879V48.151A6.813,6.813,0,0,0,6.879,55.03H178.845a6.813,6.813,0,0,0,6.879-6.879V6.879A6.9,6.9,0,0,0,178.845,0h0Z" transform="translate(0)" fill="#a6a6a6" fill-rule="evenodd"/>
    </g>
    <path id="Path_22981" data-name="Path 22981" d="M386.054,67.509a3.753,3.753,0,0,1-.962,2.751,4.28,4.28,0,1,1-3.027-7.29,3.671,3.671,0,0,1,1.651.412,3.008,3.008,0,0,1,1.239.963l-.687.687a2.566,2.566,0,0,0-2.2-.963,2.74,2.74,0,0,0-2.2.963,3.323,3.323,0,0,0,0,4.676,3.544,3.544,0,0,0,2.2.963,3.017,3.017,0,0,0,2.338-.963,2.272,2.272,0,0,0,.687-1.651h-3.027v-1.1h3.989v.55Zm6.329-3.439h-3.715v2.614h3.439v.962h-3.439V70.26h3.715v1.1h-4.815V63.107h4.815v.962Zm4.541,7.292h-1.1V64.071h-2.338v-.962h5.778v.962h-2.338v7.292Zm6.329,0V63.109h1.1v8.254Zm5.778,0h-1.1V64.071h-2.338v-.962h5.64v.962h-2.338v7.292Zm13.069-1.1a4.319,4.319,0,1,1,1.238-3.026A4.043,4.043,0,0,1,422.1,70.262Zm-5.227-.687a3.245,3.245,0,0,0,2.2.963,2.74,2.74,0,0,0,2.2-.963,3.317,3.317,0,0,0,.963-2.338,2.832,2.832,0,0,0-.963-2.338,3.245,3.245,0,0,0-2.2-.963,2.736,2.736,0,0,0-2.2.963,3.317,3.317,0,0,0-.963,2.338A2.836,2.836,0,0,0,416.873,69.575Zm7.979,1.789V63.11h1.238l3.989,6.466V63.11h1.1v8.254h-1.1l-4.265-6.742v6.742Z" transform="translate(-320.845 -53.477)" fill="#fff" fill-rule="evenodd"/>
    <path id="Path_22982" data-name="Path 22982" d="M385.42,66.728a4.979,4.979,0,0,1-.231,1.574,3.2,3.2,0,0,1-.772,1.275,4.3,4.3,0,0,1-1.4.959,4.455,4.455,0,0,1-1.72.321,4.177,4.177,0,0,1-3.124-1.278,4.3,4.3,0,0,1-.959-1.4,4.455,4.455,0,0,1-.321-1.72,4.175,4.175,0,0,1,1.278-3.124,4.3,4.3,0,0,1,1.4-.959,4.455,4.455,0,0,1,1.72-.32,3.494,3.494,0,0,1,.859.107,4.216,4.216,0,0,1,.853.32,4.964,4.964,0,0,1,.743.443,2.33,2.33,0,0,1,.549.567l.062.093-.876.876-.095-.121a2.3,2.3,0,0,0-.892-.7,3.347,3.347,0,0,0-2.411.024,2.289,2.289,0,0,0-.885.674l-.021.021a2.236,2.236,0,0,0-.68.915,3.87,3.87,0,0,0,0,2.632,2.25,2.25,0,0,0,.68.915,5.35,5.35,0,0,0,1.024.671,2.5,2.5,0,0,0,1.093.262,3.158,3.158,0,0,0,1.221-.213,3.075,3.075,0,0,0,1.021-.709,2.2,2.2,0,0,0,.484-.715,2.131,2.131,0,0,0,.16-.7l-3.023,0V66.04h4.265v.687Zm-.491,1.488a4.721,4.721,0,0,0,.216-1.488v-.412h-3.715v.826h3.027v.137a2.408,2.408,0,0,1-.728,1.747,3.357,3.357,0,0,1-1.113.769,3.441,3.441,0,0,1-1.324.234,2.789,2.789,0,0,1-1.211-.288,5.638,5.638,0,0,1-1.076-.706,2.526,2.526,0,0,1-.763-1.025,4.131,4.131,0,0,1,0-2.84,2.517,2.517,0,0,1,.751-1.016,2.583,2.583,0,0,1,.98-.743,3.605,3.605,0,0,1,2.628-.026,2.481,2.481,0,0,1,.9.663l.5-.5a2.075,2.075,0,0,0-.419-.409,4.579,4.579,0,0,0-.7-.418,3.868,3.868,0,0,0-.8-.3,3.307,3.307,0,0,0-.791-.1,4.172,4.172,0,0,0-1.616.3,4.028,4.028,0,0,0-1.313.9,3.914,3.914,0,0,0-1.2,2.929,4.173,4.173,0,0,0,.3,1.616,4.01,4.01,0,0,0,.9,1.313,3.912,3.912,0,0,0,2.929,1.2,4.173,4.173,0,0,0,1.616-.3,4.026,4.026,0,0,0,1.313-.9,2.928,2.928,0,0,0,.707-1.167Zm6.681-4.789h-3.576v2.338h3.439V67h-3.439v2.338h3.715v1.376h-5.089v-8.53h5.089v1.238h-.137Zm-3.715-.276h3.576v-.687h-4.539v7.979h4.539v-.826h-3.715v-2.89H391.2v-.687h-3.439v-2.89h.137Zm8.254,7.566h-1.238V63.425h-2.338V62.187h6.053v1.238h-2.338v7.292h-.137Zm-.962-.276h.825V63.149h2.338v-.687h-5.5v.687h2.338v7.292Zm7.153.137V62.186h1.375v8.528H402.34v-.137Zm.276-8.117v7.979h.826V62.462Zm5.64,8.254h-1.238V63.423H404.68V62.186H410.6v1.238h-2.338v7.292Zm-.962-.276h.687V63.148h2.338V62.46h-5.365v.687h2.338V70.44Zm14.13-.865a4.3,4.3,0,0,1-1.4.959,4.455,4.455,0,0,1-1.72.321,4.175,4.175,0,0,1-3.124-1.278,4.3,4.3,0,0,1-.959-1.4,4.455,4.455,0,0,1-.32-1.72,4.169,4.169,0,0,1,1.278-3.124,4.3,4.3,0,0,1,1.4-.959,4.455,4.455,0,0,1,1.72-.32,4.179,4.179,0,0,1,3.124,1.278,4.3,4.3,0,0,1,.959,1.4,4.454,4.454,0,0,1,.32,1.72,4.174,4.174,0,0,1-1.278,3.124Zm-1.508.706a4.01,4.01,0,0,0,1.313-.9,3.912,3.912,0,0,0,1.2-2.929,4.173,4.173,0,0,0-.3-1.616,4.01,4.01,0,0,0-.9-1.313,3.911,3.911,0,0,0-2.929-1.2,4.173,4.173,0,0,0-1.616.3,4.029,4.029,0,0,0-1.313.9,3.913,3.913,0,0,0-1.2,2.929,4.172,4.172,0,0,0,.3,1.616,4.029,4.029,0,0,0,.9,1.313,3.912,3.912,0,0,0,2.929,1.2,4.173,4.173,0,0,0,1.616-.3ZM416.2,68.692a3.1,3.1,0,0,0,2.1.923,3.024,3.024,0,0,0,1.209-.237,2.3,2.3,0,0,0,.885-.674l.011-.012a3.185,3.185,0,0,0,.923-2.242,3.447,3.447,0,0,0-.231-1.316,2.237,2.237,0,0,0-.68-.915l-.012-.009a3.1,3.1,0,0,0-2.1-.923,3.019,3.019,0,0,0-1.209.237,2.3,2.3,0,0,0-.885.675l-.011.012a3.178,3.178,0,0,0-.923,2.24,3.452,3.452,0,0,0,.231,1.316,2.227,2.227,0,0,0,.68.915l.012.011Zm2.1,1.2a3.385,3.385,0,0,1-2.3-1,2.52,2.52,0,0,1-.752-1.016,3.715,3.715,0,0,1-.253-1.42,3.464,3.464,0,0,1,1-2.435,2.551,2.551,0,0,1,.981-.743,3.286,3.286,0,0,1,1.319-.261,3.391,3.391,0,0,1,2.3,1,2.521,2.521,0,0,1,.752,1.016,3.721,3.721,0,0,1,.252,1.42,3.461,3.461,0,0,1-.261,1.316,3.423,3.423,0,0,1-.743,1.119,2.551,2.551,0,0,1-.981.743,3.284,3.284,0,0,1-1.318.261Zm5.64.687V62.184h1.452l3.775,6.119V62.184h1.376v8.528h-1.315l-4.052-6.4v6.4h-1.238v-.137Zm.276-8.117V70.44h.687v-6.6l.255-.072,4.224,6.677h.888V62.462h-.826v6.327l-.255.072-3.95-6.4h-1.024Z" transform="translate(-320.072 -52.696)" fill="#fff"/>
    <path id="Path_22983" data-name="Path 22983" d="M412.214,162.516a5.788,5.788,0,0,0-5.916,5.916,5.871,5.871,0,0,0,5.916,5.916,5.788,5.788,0,0,0,5.916-5.916A5.708,5.708,0,0,0,412.214,162.516Zm0,9.354a3.587,3.587,0,0,1,0-7.152,3.332,3.332,0,0,1,3.3,3.576A3.414,3.414,0,0,1,412.214,171.87Zm-12.795-9.354a5.788,5.788,0,0,0-5.916,5.916,5.871,5.871,0,0,0,5.916,5.916,5.788,5.788,0,0,0,5.916-5.916A5.708,5.708,0,0,0,399.42,162.516Zm0,9.354a3.587,3.587,0,0,1,0-7.152,3.332,3.332,0,0,1,3.3,3.576A3.414,3.414,0,0,1,399.42,171.87ZM384.148,164.3v2.477h5.916a5.2,5.2,0,0,1-1.375,3.164,6.088,6.088,0,0,1-4.541,1.788,6.4,6.4,0,0,1-6.466-6.6,6.49,6.49,0,0,1,6.466-6.6,6.823,6.823,0,0,1,4.541,1.788l1.788-1.788a8.812,8.812,0,0,0-6.19-2.477,9.081,9.081,0,1,0,0,18.16,7.919,7.919,0,0,0,6.329-2.613,8.286,8.286,0,0,0,2.2-5.778,5.176,5.176,0,0,0-.137-1.514h-8.53Zm62.458,1.927a5.347,5.347,0,0,0-4.952-3.715c-3.027,0-5.5,2.338-5.5,5.916a5.758,5.758,0,0,0,5.778,5.916,5.647,5.647,0,0,0,4.815-2.614l-1.927-1.375a3.353,3.353,0,0,1-2.89,1.651,2.985,2.985,0,0,1-2.888-1.788l7.841-3.3-.276-.687h0Zm-7.979,1.927a3.341,3.341,0,0,1,3.027-3.439,2.434,2.434,0,0,1,2.2,1.238Zm-6.466,5.64h2.614V156.6h-2.614Zm-4.128-10.043a4.529,4.529,0,0,0-3.164-1.375,5.911,5.911,0,0,0-5.641,5.916,5.7,5.7,0,0,0,5.641,5.778,3.95,3.95,0,0,0,3.026-1.375h.137v.826c0,2.2-1.238,3.439-3.164,3.439a3.058,3.058,0,0,1-2.89-2.064l-2.2.963A5.674,5.674,0,0,0,425,179.3c3.026,0,5.5-1.788,5.5-6.053V162.793H428.03v.962Zm-3.026,8.117a3.587,3.587,0,0,1,0-7.152,3.6,3.6,0,0,1,0,7.152Zm33.567-15.27h-6.19v17.2H455v-6.466h3.577a5.372,5.372,0,1,0,0-10.731Zm.137,8.254H455v-5.916h3.715a3.02,3.02,0,0,1,3.026,2.888A3.148,3.148,0,0,1,458.712,164.854Zm15.82-2.477a4.627,4.627,0,0,0-4.541,2.614l2.338.962a2.431,2.431,0,0,1,2.338-1.238,2.585,2.585,0,0,1,2.751,2.2v.137a5.451,5.451,0,0,0-2.614-.687c-2.477,0-4.952,1.375-4.952,3.852a4.031,4.031,0,0,0,4.265,3.852,3.869,3.869,0,0,0,3.3-1.651h.137v1.375h2.475v-6.6a5.206,5.206,0,0,0-5.5-4.815Zm-.276,9.492c-.825,0-2.064-.412-2.064-1.514,0-1.375,1.514-1.788,2.751-1.788a5.327,5.327,0,0,1,2.338.55,3.206,3.206,0,0,1-3.027,2.751h0Zm14.445-9.08-2.888,7.429h-.137l-3.027-7.429H479.9l4.541,10.455-2.614,5.778h2.614l7.016-16.233H488.7Zm-23.112,11.005H468.2V156.6h-2.614Z" transform="translate(-318.526 -132.525)" fill="#fff" fill-rule="evenodd"/>
    <path id="Path_22984" data-name="Path 22984" d="M91.81,68.44a2.689,2.689,0,0,0-.55,1.927v30.4a2.73,2.73,0,0,0,.687,1.927l.137.137,17.059-17.059V85.5L91.81,68.44Z" transform="translate(-77.502 -58.122)" fill-rule="evenodd" fill="url(#linear-gradient)"/>
    <path id="Path_22985" data-name="Path 22985" d="M214.621,155.883l-5.641-5.64v-.413l5.641-5.64.137.137,6.74,3.852c1.927,1.1,1.927,2.89,0,3.989l-6.877,3.715Z" transform="translate(-177.475 -122.453)" fill-rule="evenodd" fill="url(#linear-gradient-2)"/>
    <path id="Path_22986" data-name="Path 22986" d="M117.885,188.288l-5.778-5.778-17.2,17.2c.687.687,1.651.687,2.888.137l20.087-11.557Z" transform="translate(-80.602 -154.996)" fill-rule="evenodd" fill="url(#linear-gradient-3)"/>
    <path id="Path_22987" data-name="Path 22987" d="M117.885,77.321,97.8,65.9a2.23,2.23,0,0,0-2.888.137l17.2,17.059Z" transform="translate(-80.602 -55.584)" fill-rule="evenodd" fill="url(#linear-gradient-4)"/>
    <path id="Path_22988" data-name="Path 22988" d="M117.756,219.922,97.808,231.2a2.25,2.25,0,0,1-2.751,0l-.137.137.137.137a2.25,2.25,0,0,0,2.751,0l19.948-11.557Z" transform="translate(-80.61 -186.766)" fill="rgba(0,0,0,0.2)" fill-rule="evenodd"/>
    <path id="Path_22989" data-name="Path 22989" d="M91.81,199.432a2.689,2.689,0,0,1-.55-1.927v.137a2.73,2.73,0,0,0,.687,1.927v-.137ZM121.526,184.3l-6.877,3.852.137.137,6.74-3.852a2.287,2.287,0,0,0,1.376-1.927c0,.687-.55,1.238-1.376,1.788Z" transform="translate(-77.502 -154.996)" fill="rgba(0,0,0,0.2)" fill-rule="evenodd"/>
    <path id="Path_22990" data-name="Path 22990" d="M94.7,65.834l26.827,15.271c.826.55,1.376,1.1,1.376,1.788a2.29,2.29,0,0,0-1.376-1.927L94.7,65.7c-1.927-1.1-3.439-.276-3.439,1.927v.137c0-2.064,1.514-3.026,3.439-1.927h0Z" transform="translate(-77.502 -55.379)" fill="rgba(255,255,255,0.2)" fill-rule="evenodd"/>
  </g>
</svg>
