<svg xmlns="http://www.w3.org/2000/svg" width="28.021" height="25.067" viewBox="0 0 28.021 25.067">
  <g id="earnings" transform="translate(0 -26.992)">
    <path id="Path_28001" data-name="Path 28001" d="M24.128,269.1l-3.573,2.639a4.087,4.087,0,0,1-1.13.566,2.461,2.461,0,0,0-1.551-3.139l-7.132-2.36a7.33,7.33,0,0,0-6.962,1.312H.821a.821.821,0,0,0-.821.821v8.209a.821.821,0,0,0,.821.821H4.1a.821.821,0,0,0,.821-.821v-.613L11.364,278a15.889,15.889,0,0,0,3.491.41h.152a15.223,15.223,0,0,0,8.7-2.87l3.28-2.429a2.463,2.463,0,1,0-2.863-4.008ZM3.284,276.328H1.642V269.76H3.284Zm22.753-4.555-3.28,2.429a13.589,13.589,0,0,1-7.768,2.564,14.128,14.128,0,0,1-3.259-.368l-6.8-1.546V269.3a5.744,5.744,0,0,1,5.3-.933l7.132,2.36a.821.821,0,0,1-.519,1.557h0l-5.03-1.659a.821.821,0,1,0-.514,1.559l5.061,1.669a5.764,5.764,0,0,0,5.157-.775l3.573-2.639a.821.821,0,1,1,.954,1.336Z" transform="translate(0 -226.35)" fill="#59b828"/>
    <path id="Path_28002" data-name="Path 28002" d="M334.356,88.818a4.928,4.928,0,0,0-1.433-.418,3.9,3.9,0,0,1-.959-.253c-.109-.058-.109-.073-.109-.172,0-.058.095-.164.276-.255a1.483,1.483,0,0,1,1.409.041.821.821,0,0,0,.985-1.313,2.61,2.61,0,0,0-.93-.433v-.2a.821.821,0,0,0-1.642,0v.226a3.09,3.09,0,0,0-.556.213,1.938,1.938,0,0,0-1.183,1.723,1.747,1.747,0,0,0,.978,1.62,4.926,4.926,0,0,0,1.433.418,3.9,3.9,0,0,1,.959.253c.109.058.109.073.109.172,0,.056-.1.165-.277.255a1.481,1.481,0,0,1-1.408-.041.821.821,0,1,0-.985,1.313,2.609,2.609,0,0,0,.93.433v.2a.821.821,0,0,0,1.642,0v-.227a3.087,3.087,0,0,0,.555-.212,1.939,1.939,0,0,0,1.185-1.723A1.747,1.747,0,0,0,334.356,88.818Z" transform="translate(-312.141 -54.827)" fill="#59b828"/>
    <path id="Path_28003" data-name="Path 28003" d="M249.388,41.769A7.388,7.388,0,1,0,242,34.38,7.4,7.4,0,0,0,249.388,41.769Zm0-13.135a5.747,5.747,0,1,1-5.747,5.747A5.753,5.753,0,0,1,249.388,28.634Z" transform="translate(-228.756)" fill="#59b828"/>
  </g>
</svg>
