<svg xmlns="http://www.w3.org/2000/svg" width="16.286" height="16.1" viewBox="0 0 16.286 16.1">
  <g id="edit_1_" data-name="edit" transform="translate(0.05 -0.211)">
    <path id="Path_23099" data-name="Path 23099" d="M14.893,47.712a.4.4,0,0,0-.4.4V51.7a1.209,1.209,0,0,1-1.206,1.21H2.009A1.209,1.209,0,0,1,.8,51.7V41.188a1.209,1.209,0,0,1,1.206-1.21H5.578a.4.4,0,0,0,0-.806H2.009A2.015,2.015,0,0,0,0,41.188V51.7a2.015,2.015,0,0,0,2.009,2.016H13.285A2.015,2.015,0,0,0,15.295,51.7v-3.58a.4.4,0,0,0-.4-.4Zm0,0" transform="translate(0 -37.45)" fill="#59b828" stroke="#59b828" stroke-width="0.1"/>
    <path id="Path_23100" data-name="Path 23100" d="M118.269.756a1.69,1.69,0,0,0-2.389,0l-6.7,6.7a.375.375,0,0,0-.1.165L108.2,10.8a.375.375,0,0,0,.462.462l3.18-.881a.375.375,0,0,0,.165-.1l6.7-6.7a1.691,1.691,0,0,0,0-2.389ZM110,7.7l5.482-5.482,1.768,1.768-5.482,5.482Zm-.353.709,1.413,1.413-1.954.541Zm8.533-5.352-.4.4-1.768-1.768.4-.4a.939.939,0,0,1,1.327,0l.441.441A.94.94,0,0,1,118.179,3.055Zm0,0" transform="translate(-103.123 0)" fill="#59b828" stroke="#59b828" stroke-width="0.1"/>
  </g>
</svg>
