<svg xmlns="http://www.w3.org/2000/svg" width="18.99" height="14.465" viewBox="0 0 18.99 14.465">
  <g id="email_1_" data-name="email" transform="translate(0 -61)">
    <g id="Group_17683" data-name="Group 17683" transform="translate(0 61)">
      <path id="Path_23102" data-name="Path 23102" d="M17.321,61H1.669A1.672,1.672,0,0,0,0,62.669V73.8a1.672,1.672,0,0,0,1.669,1.669H17.321A1.672,1.672,0,0,0,18.99,73.8V62.669A1.672,1.672,0,0,0,17.321,61Zm-.23,1.113-7.56,7.56L1.9,62.113ZM1.113,73.566V62.894l5.359,5.313Zm.787.787L7.262,68.99l1.879,1.863a.556.556,0,0,0,.785,0l1.832-1.832,5.333,5.333Zm15.978-.787-5.333-5.333L17.878,62.9Z" transform="translate(0 -61)" fill="#4b566b"/>
    </g>
  </g>
</svg>
