<svg xmlns="http://www.w3.org/2000/svg" width="16.63" height="16.565" viewBox="0 0 16.63 16.565">
  <g id="close" transform="translate(0.276 0.316)">
    <path id="Path_23025" data-name="Path 23025" d="M.862,16A.824.824,0,0,1,.28,14.594L14.634.24A.823.823,0,0,1,15.8,1.4L1.445,15.758A.825.825,0,0,1,.862,16Zm0,0" transform="translate(0 0)" fill="#59b828" stroke="#59b828" stroke-width="0.5"/>
    <path id="Path_23026" data-name="Path 23026" d="M15.216,16a.817.817,0,0,1-.582-.242L.28,1.4A.823.823,0,0,1,1.444.241L15.8,14.594A.824.824,0,0,1,15.216,16Zm0,0" transform="translate(0 0)" fill="#59b828" stroke="#59b828" stroke-width="0.5"/>
  </g>
</svg>
