<svg id="placeholder" xmlns="http://www.w3.org/2000/svg" width="18.207" height="25.894" viewBox="0 0 18.207 25.894">
  <g id="Group_17304" data-name="Group 17304">
    <g id="Group_17303" data-name="Group 17303">
      <path id="Path_22656" data-name="Path 22656" d="M85.1,0a9.105,9.105,0,0,0-7.745,13.89l7.226,11.645a.759.759,0,0,0,.645.359h.006a.758.758,0,0,0,.645-.369l7.042-11.758A9.105,9.105,0,0,0,85.1,0Zm6.517,12.989-6.4,10.69-6.57-10.587a7.591,7.591,0,1,1,12.972-.1Z" transform="translate(-76)" fill="#59b828"/>
    </g>
  </g>
  <g id="Group_17306" data-name="Group 17306" transform="translate(4.772 4.671)">
    <g id="Group_17305" data-name="Group 17305">
      <path id="Path_22657" data-name="Path 22657" d="M170.331,90a4.331,4.331,0,1,0,4.332,4.332A4.336,4.336,0,0,0,170.331,90Zm0,7.229a2.9,2.9,0,1,1,2.893-2.9A2.9,2.9,0,0,1,170.331,97.229Z" transform="translate(-166 -90)" fill="#59b828"/>
    </g>
  </g>
</svg>
