<svg id="HB_Logo1" data-name="HB Logo1" xmlns="http://www.w3.org/2000/svg" width="146.067" height="73.274" viewBox="0 0 146.067 73.274">
  <g id="_1117357728" transform="translate(0)">
    <path id="Path_1" data-name="Path 1" d="M453.66,86.08h6.215v4.569H453.66Z" transform="translate(-383.538 -72.775)"/>
    <path id="Path_2" data-name="Path 2" d="M460.839,60.47V58.38h-3.6v2.09c-1.068.326-.881,2.195-.881,2.195h5.362S461.907,60.8,460.839,60.47Z" transform="translate(-385.811 -49.356)" fill="#ffcc3e"/>
    <path id="Path_3" data-name="Path 3" d="M457.274,57.443l0-1.538h-2.493v1.538a.55.55,0,0,1-.419.535c-.355.136-.453.686-.473,1.108h4.279c-.022-.433-.122-1-.5-1.118a.551.551,0,0,1-.39-.526Zm1.1-2.091V57.1c1,.66.9,2.348.883,2.558a.554.554,0,0,1-.552.535h-5.362a.555.555,0,0,1-.55-.512c0-.006-.193-1.878.879-2.581V55.352a.552.552,0,0,1,.552-.552h3.6a.552.552,0,0,1,.553.552Z" transform="translate(-382.796 -46.33)"/>
    <path id="Path_4" data-name="Path 4" d="M459.9,30.4h-2.935c-1.515.425-1.881,3.9-.369,4.323h3.677C461.781,34.3,461.413,30.825,459.9,30.4Z" transform="translate(-385.199 -25.701)" fill="#ffcc3e"/>
    <path id="Path_5" data-name="Path 5" d="M456.809,27.925h-2.767a1.593,1.593,0,0,0-.75,1.088,3.275,3.275,0,0,0-.121.8,2.533,2.533,0,0,0,.084.733.884.884,0,0,0,.42.6h3.5a.875.875,0,0,0,.421-.6,2.529,2.529,0,0,0,.083-.731,3.275,3.275,0,0,0-.12-.8A1.594,1.594,0,0,0,456.809,27.925Zm-2.852-1.105h2.937a.628.628,0,0,1,.148.022,2.54,2.54,0,0,1,1.578,1.875,4.307,4.307,0,0,1,.159,1.074,3.642,3.642,0,0,1-.12,1.051,1.865,1.865,0,0,1-1.2,1.371.546.546,0,0,1-.2.036h-3.677a.614.614,0,0,1-.148-.022,1.851,1.851,0,0,1-1.244-1.386,3.586,3.586,0,0,1-.122-1.051,4.31,4.31,0,0,1,.159-1.074,2.563,2.563,0,0,1,1.53-1.859A.55.55,0,0,1,453.957,26.82Z" transform="translate(-382.195 -22.674)"/>
    <path id="Path_6" data-name="Path 6" d="M466.08,21.34h2.379v1.4H466.08Z" transform="translate(-394.038 -18.041)" fill="#ffcc3e"/>
    <path id="Path_7" data-name="Path 7" d="M463.062,17.77h2.379a.552.552,0,0,1,.552.552v1.4a.552.552,0,0,1-.552.552h-2.379a.552.552,0,0,1-.552-.552v-1.4A.552.552,0,0,1,463.062,17.77Zm1.826,1.1h-1.274v.3h1.274Z" transform="translate(-391.02 -15.023)"/>
    <path id="Path_8" data-name="Path 8" d="M459.481,129.32H455.77v1.9a.652.652,0,0,0,.643.665h.346a1.1,1.1,0,0,1,1.547-.193,1.044,1.044,0,0,1,.193.193h.116a1.1,1.1,0,0,1,1.547-.193,1.154,1.154,0,0,1,.195.193h.348a.652.652,0,0,0,.641-.665h0v-1.9Z" transform="translate(-385.321 -109.331)" fill="#ffcc3e"/>
    <path id="Path_9" data-name="Path 9" d="M459.875,129.842a.409.409,0,0,1-.393.427h-5.431a.41.41,0,0,1-.393-.427v-.1a.41.41,0,0,1,.393-.427h5.431a.409.409,0,0,1,.393.427Z" transform="translate(-383.536 -109.331)" fill="#ffcc3e"/>
    <path id="Path_10" data-name="Path 10" d="M459.875,123.677a.41.41,0,0,1-.393.427h-5.431a.411.411,0,0,1-.393-.427v-.1a.41.41,0,0,1,.393-.427h5.431a.409.409,0,0,1,.393.427Z" transform="translate(-383.536 -104.115)" fill="#ffcc3e"/>
    <path id="Path_11" data-name="Path 11" d="M457.417,120.635a.958.958,0,0,1-.252.623.97.97,0,0,1-.668.309l-5.455,0a.492.492,0,0,1-.1-.009.962.962,0,0,1-.847-.971v-.148a.949.949,0,0,1,.252-.62.963.963,0,0,1,.663-.309c1.808-.031,3.646,0,5.458,0a.651.651,0,0,1,.1.008.96.96,0,0,1,.592.3h0a.947.947,0,0,1,.252.666Z" transform="translate(-380.527 -101.028)"/>
    <path id="Path_12" data-name="Path 12" d="M459.875,117.542a.412.412,0,0,1-.393.43h-5.432a.412.412,0,0,1-.393-.43v-.1a.41.41,0,0,1,.393-.427h5.432a.409.409,0,0,1,.393.427Z" transform="translate(-383.536 -98.932)" fill="#ffcc3e"/>
    <path id="Path_13" data-name="Path 13" d="M457.416,114.536a.955.955,0,0,1-.252.621v0a.972.972,0,0,1-.668.311l-5.455,0a.629.629,0,0,1-.094-.008.962.962,0,0,1-.6-.308l-.039-.048a.959.959,0,0,1-.212-.618v-.139a.96.96,0,0,1,.9-.932c.039-.019,4.969,0,5.475,0a.482.482,0,0,1,.1.008.96.96,0,0,1,.6.3.947.947,0,0,1,.252.665A.87.87,0,0,1,457.416,114.536Z" transform="translate(-380.527 -95.881)"/>
    <path id="Path_14" data-name="Path 14" d="M456.23,86.11h5.362v4.778H456.23Z" transform="translate(-385.711 -72.8)" fill="#ea3f2b"/>
    <path id="Path_15" data-name="Path 15" d="M460.649,60.47V58.38h-3.6v2.09c-1.068.326-.881,2.195-.881,2.195h5.356S461.719,60.8,460.649,60.47Z" transform="translate(-385.65 -49.356)" fill="#fac41a"/>
    <path id="Path_16" data-name="Path 16" d="M459.713,30.4h-2.935c-1.513.425-1.88,3.9-.369,4.323h3.677C461.6,34.3,461.228,30.825,459.713,30.4Z" transform="translate(-385.045 -25.701)" fill="#ffcc3e"/>
    <path id="Path_17" data-name="Path 17" d="M461.95,58.37h3.6v.683h-3.6Z" transform="translate(-390.547 -49.348)" fill="#ff9210"/>
    <path id="Path_18" data-name="Path 18" d="M465.89,21.34h2.376v1.4H465.89Z" transform="translate(-393.878 -18.041)" fill="#e51f0a"/>
    <path id="Path_19" data-name="Path 19" d="M468.23,21.34h.8v1.4h-.8Z" transform="translate(-395.856 -18.041)" fill="#f7392b"/>
    <path id="Path_20" data-name="Path 20" d="M459.31,88.71h4.41v4.425h-4.41Z" transform="translate(-388.315 -74.998)" fill="#f28300"/>
    <path id="Path_21" data-name="Path 21" d="M471.656,91.076c0,.481-.192.867-.427.867s-.43-.386-.43-.867.192-.866.43-.866S471.656,90.59,471.656,91.076Z" transform="translate(-398.029 -76.266)" fill="#ffcc3e"/>
    <path id="Path_22" data-name="Path 22" d="M466.359,92.8c.283.388.354.808.164.954s-.578-.062-.858-.448-.356-.816-.162-.955S466.08,92.413,466.359,92.8Z" transform="translate(-393.46 -78.038)" fill="#ffcc3e"/>
    <path id="Path_23" data-name="Path 23" d="M462.372,97.62c.455.147.764.448.693.675s-.5.286-.958.139-.763-.451-.692-.679S461.913,97.47,462.372,97.62Z" transform="translate(-390.085 -82.461)" fill="#ffcc3e"/>
    <path id="Path_24" data-name="Path 24" d="M462.088,102.031c.454-.148.884-.085.957.141s-.232.53-.694.675-.886.085-.958-.139S461.63,102.179,462.088,102.031Z" transform="translate(-390.066 -86.192)" fill="#ffcc3e"/>
    <path id="Path_25" data-name="Path 25" d="M465.661,104.343c.281-.386.666-.587.858-.45s.116.566-.164.954-.665.59-.856.45S465.378,104.729,465.661,104.343Z" transform="translate(-393.455 -87.798)" fill="#ffcc3e"/>
    <path id="Path_26" data-name="Path 26" d="M470.8,105.3c0-.478.192-.867.43-.867s.43.39.43.867-.193.869-.43.869S470.8,105.775,470.8,105.3Z" transform="translate(-398.029 -88.288)" fill="#ffcc3e"/>
    <path id="Path_27" data-name="Path 27" d="M474.047,104.829c-.281-.39-.354-.81-.162-.954s.578.062.856.448.354.816.164.954S474.33,105.217,474.047,104.829Z" transform="translate(-400.546 -87.78)" fill="#ffcc3e"/>
    <path id="Path_28" data-name="Path 28" d="M475.649,102.847c-.454-.148-.765-.45-.694-.675s.5-.289.957-.141.767.451.694.677S476.1,102.994,475.649,102.847Z" transform="translate(-401.533 -86.192)" fill="#ffcc3e"/>
    <path id="Path_29" data-name="Path 29" d="M475.916,98.449c-.454.148-.883.087-.957-.138s.232-.53.694-.677.886-.085.958.139S476.372,98.3,475.916,98.449Z" transform="translate(-401.536 -82.476)" fill="#ffcc3e"/>
    <path id="Path_30" data-name="Path 30" d="M474.747,93.3c-.283.388-.666.589-.858.448s-.116-.567.162-.954.666-.589.858-.45S475.028,92.917,474.747,93.3Z" transform="translate(-400.55 -78.038)" fill="#ffcc3e"/>
    <path id="Path_31" data-name="Path 31" d="M469.43,97.844a.925.925,0,1,1-.926-.924A.925.925,0,0,1,469.43,97.844Z" transform="translate(-395.306 -81.939)"/>
    <path id="Path_32" data-name="Path 32" d="M459.245,129.32H455.53v1.9a.654.654,0,0,0,.641.665h.346a1.1,1.1,0,0,1,1.547-.193,1.151,1.151,0,0,1,.195.193h.116a1.134,1.134,0,0,0,.87-.425,1.153,1.153,0,0,0,.87.425h.346a.654.654,0,0,0,.641-.665v-1.9Z" transform="translate(-385.118 -109.331)" fill="#ff9210"/>
    <path id="Path_33" data-name="Path 33" d="M459.683,129.842a.41.41,0,0,1-.392.427h-5.432a.411.411,0,0,1-.391-.427v-.1a.41.41,0,0,1,.391-.427h5.432a.41.41,0,0,1,.392.427Z" transform="translate(-383.375 -109.331)" fill="#ffcc3e"/>
    <path id="Path_34" data-name="Path 34" d="M459.683,123.677a.411.411,0,0,1-.392.427h-5.432a.41.41,0,0,1-.391-.427v-.1a.409.409,0,0,1,.391-.427h5.432a.41.41,0,0,1,.392.427Z" transform="translate(-383.375 -104.115)" fill="#fac41a"/>
    <path id="Path_35" data-name="Path 35" d="M459.683,117.542a.413.413,0,0,1-.393.43h-5.432a.411.411,0,0,1-.391-.43v-.1a.41.41,0,0,1,.391-.427h5.432a.41.41,0,0,1,.393.427Z" transform="translate(-383.375 -98.932)" fill="#ffcc3e"/>
    <path id="Path_36" data-name="Path 36" d="M267.589,184.6a8.146,8.146,0,0,0,4.665-1.336,9.129,9.129,0,0,0,3.119-3.623,10.948,10.948,0,0,0,1.07-5.138,11.568,11.568,0,0,0-1.07-5.085,8.865,8.865,0,0,0-3.028-3.563,8.129,8.129,0,0,0-4.693-1.336,8.381,8.381,0,0,0-7.962,4.928,12.663,12.663,0,0,0,0,10.189,8.689,8.689,0,0,0,3.06,3.623A8.452,8.452,0,0,0,267.589,184.6Zm-1.839,5.823a13,13,0,0,1-7.486-2.138,13.975,13.975,0,0,1-4.841-5.731,18.363,18.363,0,0,1-1.694-7.932,16.87,16.87,0,0,1,1.929-8.106,14.429,14.429,0,0,1,5.526-5.7,16.661,16.661,0,0,1,8.583-2.11,15.918,15.918,0,0,1,8.406,2.11,14.25,14.25,0,0,1,5.347,5.7,17.035,17.035,0,0,1,1.87,7.99v15.207h-6.832v-5.643h-.116a13.671,13.671,0,0,1-2.319,3.121,10.8,10.8,0,0,1-3.5,2.348,12.3,12.3,0,0,1-4.87.889l0,0Z" transform="translate(-212.817 -134.165)" fill="#28af2d" fill-rule="evenodd"/>
    <path id="Path_37" data-name="Path 37" d="M470,189.714V172.249a13.615,13.615,0,0,1,1.782-6.98,12.6,12.6,0,0,1,5.05-4.812A15.981,15.981,0,0,1,484.5,158.7a15.8,15.8,0,0,1,7.627,1.753,12.626,12.626,0,0,1,5.017,4.812,13.6,13.6,0,0,1,1.785,6.98v17.463h-6.769v-17.4a7.725,7.725,0,0,0-11.494-6.8,7.382,7.382,0,0,0-2.793,2.731,7.841,7.841,0,0,0-1.039,4.068v17.4Z" transform="translate(-397.349 -134.169)" fill="#28af2d" fill-rule="evenodd"/>
    <path id="Path_38" data-name="Path 38" d="M686.4,117.046a8.467,8.467,0,0,1-4.634-1.271,8.667,8.667,0,0,1-3.147-3.533,11.556,11.556,0,0,1-1.13-5.228,11.391,11.391,0,0,1,1.13-5.169,8.973,8.973,0,0,1,3.119-3.566,8.218,8.218,0,0,1,4.6-1.3,8.487,8.487,0,0,1,4.632,1.271,8.677,8.677,0,0,1,3.149,3.537,12.673,12.673,0,0,1,0,10.454,8.672,8.672,0,0,1-3.149,3.535A8.379,8.379,0,0,1,686.4,117.046Zm0,5.823a16.716,16.716,0,0,0,8.2-1.965,13.773,13.773,0,0,0,5.555-5.614,17.829,17.829,0,0,0,1.991-8.644V78.79h-6.832V96.436h-.06a9.818,9.818,0,0,0-2.495-2.793,12,12,0,0,0-3.444-1.842,12.368,12.368,0,0,0-4.045-.654,14.845,14.845,0,0,0-7.628,1.931,13.645,13.645,0,0,0-5.166,5.379,16.66,16.66,0,0,0-1.872,8.078,19.189,19.189,0,0,0,1.1,6.625,15.2,15.2,0,0,0,3.148,5.2,13.513,13.513,0,0,0,4.96,3.35,17.692,17.692,0,0,0,6.594,1.156l0,0Z" transform="translate(-566.945 -66.611)" fill="#28af2d" fill-rule="evenodd"/>
    <path id="Path_39" data-name="Path 39" d="M892.557,88.033a4.4,4.4,0,1,1,3.121-1.308,4.2,4.2,0,0,1-3.121,1.306Zm-3.385,4.217H896v30.3h-6.832Zm0,30.3v0Z" transform="translate(-750.886 -67)" fill="#28af2d" fill-rule="evenodd"/>
    <path id="Path_40" data-name="Path 40" d="M628.644,133.43c-.02.059-.042.116-.063.176C628.6,133.546,628.623,133.49,628.644,133.43Z" transform="translate(-531.421 -112.806)" fill="#e78c47" fill-rule="evenodd"/>
    <path id="Path_41" data-name="Path 41" d="M616.076,19.866a.8.8,0,0,0-.621-.244.833.833,0,0,0-.622.335c-.1.13-.2.261-.286.4V18.98a.852.852,0,0,0-1.7,0v1.376c-.088-.138-.185-.269-.287-.4a.83.83,0,0,0-.62-.335.8.8,0,0,0-.624.247.922.922,0,0,0-.077,1.182,5.606,5.606,0,0,1,1,2.4,1.566,1.566,0,0,0-1,1.34V24.8c.012.382.354,9.392,2.139,12.533a.364.364,0,0,0,.635,0c1.785-3.141,2.125-12.151,2.139-12.533v-.014a1.562,1.562,0,0,0-1-1.34,5.624,5.624,0,0,1,1-2.4.914.914,0,0,0-.079-1.187l0,0Zm-.838,7.8h-1.229a.365.365,0,1,0-.042.73.189.189,0,0,0,.042,0h1.17c-.091,1-.213,2.113-.377,3.217h-.793a.366.366,0,0,0,0,.731h.677a19.412,19.412,0,0,1-.992,3.962,25.814,25.814,0,0,1-1.271-5.935h.958a.365.365,0,0,0,.042-.73.188.188,0,0,0-.042,0h-1.04c-.136-1.218-.224-2.351-.281-3.217h1.323a.366.366,0,0,0,0-.731h-1.366c-.029-.527-.042-.859-.045-.912,0-.283.3-.578.782-.757a2.515,2.515,0,0,1,.943-.159,3.227,3.227,0,0,1,.946.159c.481.178.778.478.781.757,0,.105-.05,1.28-.182,2.889Zm-3.4-7.294c.051-.057.116,0,.139.031a6.394,6.394,0,0,1,.89,1.584.369.369,0,0,0,.478.2.364.364,0,0,0,.229-.337V18.98a.12.12,0,0,1,.24,0v2.877a.36.36,0,0,0,.3.357.371.371,0,0,0,.408-.224,5.07,5.07,0,0,1,.889-1.584c.088-.088.124-.048.141-.032a.192.192,0,0,1,.017.243,6.335,6.335,0,0,0-1.121,2.6,3.84,3.84,0,0,0-1.5,0,6.327,6.327,0,0,0-1.116-2.6.19.19,0,0,1,.015-.243l0,0Z" transform="translate(-516.605 -15.328)" fill-rule="evenodd"/>
    <path id="Path_42" data-name="Path 42" d="M530.348,73.942c-.082-.026-.164-.054-.238-.082C530.184,73.888,530.263,73.916,530.348,73.942Z" transform="translate(-448.171 -62.444)" fill="#c46451" fill-rule="evenodd"/>
    <path id="Path_43" data-name="Path 43" d="M583.11,68.08c.085.037.169.074.255.114C583.279,68.154,583.2,68.117,583.11,68.08Z" transform="translate(-492.979 -57.557)" fill="#7db996" fill-rule="evenodd"/>
    <path id="Path_44" data-name="Path 44" d="M583.78,68.83c-.054.022-.116.043-.179.066C583.662,68.873,583.725,68.852,583.78,68.83Z" transform="translate(-493.393 -58.191)" fill="#7db996" fill-rule="evenodd"/>
    <path id="Path_45" data-name="Path 45" d="M581.26,67.29c.081.031.159.063.24.1C581.419,67.353,581.345,67.321,581.26,67.29Z" transform="translate(-491.415 -56.889)" fill="#7db996" fill-rule="evenodd"/>
    <line id="Line_1" data-name="Line 1" x2="0.238" y2="0.091" transform="translate(89.559 10.29)" fill="none"/>
    <line id="Line_2" data-name="Line 2" x1="0.063" y1="0.015" transform="translate(82.784 10.835)" fill="none"/>
    <line id="Line_3" data-name="Line 3" x1="0.032" y1="0.009" transform="translate(82.59 10.786)" fill="none"/>
    <line id="Line_4" data-name="Line 4" x1="0.053" y1="0.015" transform="translate(82.412 10.733)" fill="none"/>
    <line id="Line_5" data-name="Line 5" x1="0.043" y1="0.015" transform="translate(82.267 10.682)" fill="none"/>
    <line id="Line_6" data-name="Line 6" x1="0.06" y1="0.009" transform="translate(83.172 10.913)" fill="none"/>
    <path id="Path_46" data-name="Path 46" d="M577.85,66.04c.077.026.152.051.232.082C578,66.091,577.926,66.066,577.85,66.04Z" transform="translate(-488.532 -55.832)" fill="#7db996" fill-rule="evenodd"/>
    <line id="Line_7" data-name="Line 7" x1="0.071" y1="0.014" transform="translate(82.967 10.874)" fill="none"/>
    <path id="Path_47" data-name="Path 47" d="M573.1,64.69c.065.015.13.031.2.049A1.755,1.755,0,0,0,573.1,64.69Z" transform="translate(-484.516 -54.691)" fill="#7db996" fill-rule="evenodd"/>
    <line id="Line_8" data-name="Line 8" x2="0.116" y2="0.011" transform="translate(87.326 9.795)" fill="none"/>
    <line id="Line_9" data-name="Line 9" x2="0.122" y2="0.012" transform="translate(87.457 9.807)" fill="none"/>
    <line id="Line_10" data-name="Line 10" x1="0.097" y1="0.008" transform="translate(87.211 9.787)" fill="none"/>
    <line id="Line_11" data-name="Line 11" x2="0.083" transform="translate(87.125 9.784)" fill="none"/>
    <path id="Path_48" data-name="Path 48" d="M566.72,63.55a1.184,1.184,0,0,1,.142.017A1.158,1.158,0,0,0,566.72,63.55Z" transform="translate(-479.122 -53.727)" fill="#7db996" fill-rule="evenodd"/>
    <line id="Line_12" data-name="Line 12" y1="0.051" x2="0.165" transform="translate(89.997 10.719)" fill="none"/>
    <line id="Line_13" data-name="Line 13" x2="0.161" y2="0.028" transform="translate(87.953 9.872)" fill="none"/>
    <path id="Path_49" data-name="Path 49" d="M574.46,65.03c.073.019.142.039.215.06C574.6,65.069,574.533,65.049,574.46,65.03Z" transform="translate(-485.666 -54.978)" fill="#7db996" fill-rule="evenodd"/>
    <line id="Line_14" data-name="Line 14" x2="0.189" y2="0.04" transform="translate(88.355 9.947)" fill="none"/>
    <path id="Path_50" data-name="Path 50" d="M519.846,78.865a2.336,2.336,0,0,1,3.532,0c1.957,0,3.663-2.747,4.034-4.637.479-2.447.221-5.19-2.318-5.758a4.223,4.223,0,0,0-.926-.11,2.888,2.888,0,0,1-5.111,0,4.223,4.223,0,0,0-.926.11c-2.54.567-2.8,3.311-2.318,5.758C516.182,76.118,517.889,78.865,519.846,78.865Z" transform="translate(-435.916 -57.794)" fill="#ea3f2b" fill-rule="evenodd"/>
    <path id="Path_51" data-name="Path 51" d="M523.256,39.812a3.856,3.856,0,0,0-2.968-2.8c-.063-.015-.128-.028-.192-.04.039-.034.077-.07.114-.107a4.842,4.842,0,0,0,1.051-3.554l-.037-.369-.371-.039c-.017,0-.182-.019-.444-.019a4.481,4.481,0,0,0-3.11,1.07,3.279,3.279,0,0,0-.669,1,13.127,13.127,0,0,0-1.1-2.518.457.457,0,1,0-.8.45,9.692,9.692,0,0,1,1.42,4.6,3.783,3.783,0,0,0-2.1-.6h0a5.151,5.151,0,0,0-1.125.124,3.85,3.85,0,0,0-2.968,2.8,8.677,8.677,0,0,0-.049,4.023,8.543,8.543,0,0,0,1.6,3.413,5.977,5.977,0,0,0,1.431,1.354,3.459,3.459,0,0,0,1.9.607,3.109,3.109,0,0,1,3.532,0,3.459,3.459,0,0,0,1.9-.607,5.929,5.929,0,0,0,1.431-1.356,8.522,8.522,0,0,0,1.6-3.413A8.707,8.707,0,0,0,523.256,39.812ZM513.125,37.9a4.221,4.221,0,0,1,.926-.11,2.888,2.888,0,0,0,5.112,0,4.222,4.222,0,0,1,.926.11c2.54.567,2.8,3.311,2.319,5.758-.371,1.89-2.078,4.637-4.034,4.637a2.336,2.336,0,0,0-3.532,0c-1.957,0-3.663-2.747-4.034-4.637C510.327,41.214,510.585,38.47,513.125,37.9Zm7.238-4.105a3.577,3.577,0,0,1-.8,2.417,3.632,3.632,0,0,1-2.417.8,3.587,3.587,0,0,1,.8-2.417A3.63,3.63,0,0,1,520.364,33.8Z" transform="translate(-430.911 -27.227)" fill-rule="evenodd"/>
    <path id="Path_52" data-name="Path 52" d="M560.317,44.927a3.578,3.578,0,0,0,.8-2.417,3.631,3.631,0,0,0-2.416.8,3.588,3.588,0,0,0-.8,2.417A3.632,3.632,0,0,0,560.317,44.927Z" transform="translate(-471.666 -35.939)" fill="#28af2d" fill-rule="evenodd"/>
    <path id="Path_53" data-name="Path 53" d="M570.17,64.07c.06.011.117.022.181.037Q570.26,64.084,570.17,64.07Z" transform="translate(-482.039 -54.167)" fill="#7db996" fill-rule="evenodd"/>
    <line id="Line_15" data-name="Line 15" x2="0.153" y2="0.022" transform="translate(87.768 9.845)" fill="none"/>
    <line id="Line_16" data-name="Line 16" x2="0.218" y2="0.066" transform="translate(89.061 10.126)" fill="none"/>
    <path id="Path_54" data-name="Path 54" d="M456.409,30.518,445.593,19.7a2.307,2.307,0,0,0-1.649-.682h-7.851a2.34,2.34,0,0,0-2.336,2.332V34.392a1.51,1.51,0,0,1-1.509,1.509H394.124a2.337,2.337,0,0,0-2.334,2.336v.651a.411.411,0,0,0,.41.411h64.485a.41.41,0,0,0,.411-.411h0V32.168A2.342,2.342,0,0,0,456.409,30.518Zm-12.183-8.226a1.279,1.279,0,0,0-.915-.391h-5.059a1.273,1.273,0,0,0-1.274,1.271v5.076a1.274,1.274,0,0,0,1.274,1.272h9.916a1.272,1.272,0,0,0,.914-2.141l-4.855-5.087Z" transform="translate(-331.231 -16.08)" fill="#28af2d" fill-rule="evenodd"/>
    <path id="Path_55" data-name="Path 55" d="M7.494,97.222H21.977a6.245,6.245,0,0,0,3.179-.818,5.908,5.908,0,0,0,2.2-2.173,5.719,5.719,0,0,0,.787-2.929,5.855,5.855,0,0,0-5.787-5.92c-.065,0-.13,0-.193,0H7.489l0,11.838ZM0,122.848V78.769H24.3a11.59,11.59,0,0,1,5.826,1.45,10.752,10.752,0,0,1,4.03,3.966,11.349,11.349,0,0,1,1.481,5.858,10.105,10.105,0,0,1-.914,4.217,10.878,10.878,0,0,1-2.489,3.5,11.347,11.347,0,0,1-3.652,2.3,10.955,10.955,0,0,1,4.251,2.328,11.933,11.933,0,0,1,2.928,3.906,11.207,11.207,0,0,1,1.071,4.853,11.78,11.78,0,0,1-1.541,6.045,11.137,11.137,0,0,1-4.22,4.159,12.253,12.253,0,0,1-6.14,1.512L0,122.848Zm7.494-6.674H22.92a6.454,6.454,0,0,0,3.337-.85,5.817,5.817,0,0,0,2.237-2.331,6.551,6.551,0,0,0,.788-3.121,6.1,6.1,0,0,0-.821-3.119,6.33,6.33,0,0,0-5.662-3.179H7.5v12.6l0,0Z" transform="translate(0 -66.592)" fill="#28af2d" fill-rule="evenodd"/>
    <path id="Path_56" data-name="Path 56" d="M22.668,11.744V8.421a4.637,4.637,0,0,1-2-.828,4.085,4.085,0,0,1-1.3-1.618,5.316,5.316,0,0,1-.454-2.249V0h2V3.863a3.1,3.1,0,0,0,.335,1.444A2.675,2.675,0,0,0,22.2,6.348a3,3,0,0,0,2.975,0,2.582,2.582,0,0,0,.946-1.042,3.156,3.156,0,0,0,.328-1.444V0h2.014v3.72A5.29,5.29,0,0,1,28,5.974,4.231,4.231,0,0,1,26.69,7.6a4.392,4.392,0,0,1-2.02.822v3.323ZM0,11.744V0H2V4.883h5.67V0h2V11.744h-2V6.66H2v5.084H0Zm13.707,0a3.347,3.347,0,0,1-2.963-1.7A3.437,3.437,0,0,1,10.3,8.32a2.987,2.987,0,0,1,.343-1.4A3.2,3.2,0,0,1,11.607,5.8a3.158,3.158,0,0,1-.955-1.1,2.875,2.875,0,0,1-.335-1.349,3.323,3.323,0,0,1,.447-1.7,3.412,3.412,0,0,1,1.2-1.207A3.185,3.185,0,0,1,13.639,0h4.728V1.79h-4.51a1.473,1.473,0,0,0-.771.21,1.6,1.6,0,0,0-.563.563,1.535,1.535,0,0,0-.21.805,1.4,1.4,0,0,0,.219.754,1.66,1.66,0,0,0,.569.561,1.513,1.513,0,0,0,.79.21h3.891V6.673h-3.79a1.65,1.65,0,0,0-1.7,1.606V8.35a1.653,1.653,0,0,0,.209.811,1.618,1.618,0,0,0,1.451.832h4.411v1.762Z" transform="translate(0)" fill="#ea3f2b" fill-rule="evenodd"/>
    <path id="Path_57" data-name="Path 57" d="M221.75,417.285h4.891v.906h-3.816v2.873h3.234v.9h-3.234v3.8H221.75Zm7.466,4.025h1.424a2.46,2.46,0,0,0,1.526-.408,1.461,1.461,0,0,0,.532-1.237,1.283,1.283,0,0,0-.532-1.176,2.86,2.86,0,0,0-1.526-.337h-1.424Zm3.585,4.462-2.045-3.583h-1.54v3.583h-1.074v-8.487h2.652a5.472,5.472,0,0,1,1.2.124,2.548,2.548,0,0,1,.944.406,1.926,1.926,0,0,1,.615.739,2.524,2.524,0,0,1,.22,1.111,2.343,2.343,0,0,1-.516,1.592,2.63,2.63,0,0,1-1.385.815l2.148,3.7Zm2.859-8.487h4.891v.906h-3.818v2.666h3.223v.918h-3.223v3.079h3.948v.918h-5.02Zm6.844,6.637a3.532,3.532,0,0,0,1.067.771,2.962,2.962,0,0,0,1.275.291,2,2,0,0,0,1.306-.382,1.235,1.235,0,0,0,.467-1,1.266,1.266,0,0,0-.11-.55,1.223,1.223,0,0,0-.3-.388,2.2,2.2,0,0,0-.447-.291c-.172-.087-.357-.178-.556-.272l-1.215-.53a5.8,5.8,0,0,1-.609-.311,2.477,2.477,0,0,1-.556-.44,2.1,2.1,0,0,1-.4-.614,2.044,2.044,0,0,1-.156-.822,2.006,2.006,0,0,1,.2-.892,2.167,2.167,0,0,1,.556-.719,2.564,2.564,0,0,1,.841-.471,3.217,3.217,0,0,1,1.068-.169,3.385,3.385,0,0,1,1.41.291,3.568,3.568,0,0,1,1.1.757l-.583.7a3.026,3.026,0,0,0-.861-.589,2.561,2.561,0,0,0-1.066-.213,1.846,1.846,0,0,0-1.145.329,1.084,1.084,0,0,0-.434.912,1.035,1.035,0,0,0,.124.524,1.309,1.309,0,0,0,.329.376,2.7,2.7,0,0,0,.453.284q.246.123.505.227l1.2.518a5.035,5.035,0,0,1,.686.356,2.485,2.485,0,0,1,.556.465,2.044,2.044,0,0,1,.368.621,2.293,2.293,0,0,1-.64,2.536,2.746,2.746,0,0,1-.906.518,3.631,3.631,0,0,1-1.2.187,4.081,4.081,0,0,1-2.977-1.255Zm6.883-6.637h1.074v3.558h3.946v-3.558h1.087v8.487h-1.087v-4h-3.946v4h-1.074Zm11.335,6.224a1.558,1.558,0,0,0,.13.64,1.465,1.465,0,0,0,.356.5,1.543,1.543,0,0,0,.53.317,1.885,1.885,0,0,0,.654.111,2.024,2.024,0,0,0,.841-.182,3.213,3.213,0,0,0,.776-.5,13.574,13.574,0,0,1-1.2-1.19,11.687,11.687,0,0,1-1.028-1.334,4.494,4.494,0,0,0-.757.757A1.42,1.42,0,0,0,260.722,423.509Zm1-4.387a2.549,2.549,0,0,0,.11.725,5.345,5.345,0,0,0,.291.762c.19-.128.374-.26.55-.394a3.626,3.626,0,0,0,.465-.414,1.779,1.779,0,0,0,.317-.453,1.163,1.163,0,0,0,.117-.524,1.136,1.136,0,0,0-.189-.652.685.685,0,0,0-.614-.278.932.932,0,0,0-.764.349A1.341,1.341,0,0,0,261.719,419.122Zm4.956,6.806a5.707,5.707,0,0,1-.944-.37,7.452,7.452,0,0,1-1.009-.6,4.088,4.088,0,0,1-1.094.7,3.3,3.3,0,0,1-1.351.266,3.038,3.038,0,0,1-1.056-.175,2.482,2.482,0,0,1-.815-.485,2.131,2.131,0,0,1-.53-.743,2.368,2.368,0,0,1-.189-.952,2.145,2.145,0,0,1,.136-.776,2.533,2.533,0,0,1,.369-.646,3.528,3.528,0,0,1,.536-.55c.2-.168.413-.326.628-.473a6.775,6.775,0,0,1-.406-1.028,3.327,3.327,0,0,1-.15-.964,2.147,2.147,0,0,1,.142-.788,1.95,1.95,0,0,1,.4-.635,1.838,1.838,0,0,1,.621-.427,2.01,2.01,0,0,1,.8-.155A1.609,1.609,0,0,1,264,417.6a1.7,1.7,0,0,1,.44,1.216,1.749,1.749,0,0,1-.168.764,2.856,2.856,0,0,1-.441.654,4.7,4.7,0,0,1-.614.569c-.229.176-.461.351-.692.524a8.516,8.516,0,0,0,.977,1.267,11.936,11.936,0,0,0,1.17,1.113,7.529,7.529,0,0,0,.692-1.152,7.264,7.264,0,0,0,.5-1.359h1a11.981,11.981,0,0,1-.621,1.6,8.312,8.312,0,0,1-.867,1.436,8.145,8.145,0,0,0,.841.505,4.41,4.41,0,0,0,.751.311Zm4.257-8.644h2.6a5.887,5.887,0,0,1,1.281.13,2.668,2.668,0,0,1,.989.42,1.965,1.965,0,0,1,.635.77,3.15,3.15,0,0,1,0,2.342,2.164,2.164,0,0,1-.641.815,2.8,2.8,0,0,1-.989.485,4.7,4.7,0,0,1-1.275.162h-1.526v3.363h-1.074Zm2.472,4.244a2.664,2.664,0,0,0,1.649-.42,1.581,1.581,0,0,0,.536-1.326,1.412,1.412,0,0,0-.543-1.275,3.047,3.047,0,0,0-1.643-.356h-1.4v3.377Zm4.942-4.244h1.074v5.008a4.567,4.567,0,0,0,.155,1.28,2.241,2.241,0,0,0,.422.828,1.511,1.511,0,0,0,.628.447,2.173,2.173,0,0,0,.776.136,2.211,2.211,0,0,0,.788-.136,1.574,1.574,0,0,0,.635-.447,2.2,2.2,0,0,0,.427-.828,4.509,4.509,0,0,0,.155-1.28v-5.008h1.036v4.982a5.463,5.463,0,0,1-.233,1.72,3,3,0,0,1-.64,1.133,2.331,2.331,0,0,1-.965.621,3.778,3.778,0,0,1-1.2.187,3.848,3.848,0,0,1-1.21-.187,2.322,2.322,0,0,1-.971-.621,3,3,0,0,1-.64-1.133,5.467,5.467,0,0,1-.233-1.72Zm9.46,4.025h1.422a2.465,2.465,0,0,0,1.527-.408,1.46,1.46,0,0,0,.53-1.237,1.282,1.282,0,0,0-.53-1.176,2.866,2.866,0,0,0-1.527-.337H287.8Zm3.583,4.462-2.043-3.583H287.8v3.583h-1.074v-8.487h2.652a5.473,5.473,0,0,1,1.2.124,2.559,2.559,0,0,1,.944.406,1.94,1.94,0,0,1,.615.739,2.525,2.525,0,0,1,.219,1.111,2.344,2.344,0,0,1-.518,1.592,2.626,2.626,0,0,1-1.383.815l2.147,3.7h-1.217Zm2.86-8.487h4.891v.906H295.32v2.666h3.221v.918H295.32v3.079h3.946v.918h-5.02Z" transform="translate(-187.474 -352.654)" fill="#fff"/>
  </g>
  <path id="Path_58" data-name="Path 58" d="M616.965,27.21a3.841,3.841,0,0,1,1.5,0,6.336,6.336,0,0,1,1.12-2.6.192.192,0,0,0-.017-.243c-.017-.015-.052-.056-.141.032a5.071,5.071,0,0,0-.889,1.584.371.371,0,0,1-.408.224.361.361,0,0,1-.3-.357V22.979a.12.12,0,0,0-.24,0v2.877a.364.364,0,0,1-.229.337.369.369,0,0,1-.478-.2A6.4,6.4,0,0,0,616,24.4c-.023-.031-.086-.087-.135-.032a.19.19,0,0,0-.015.243A6.325,6.325,0,0,1,616.965,27.21Z" transform="translate(-520.627 -19.327)" fill="#28af2d" fill-rule="evenodd"/>
  <path id="Path_59" data-name="Path 59" d="M618.705,55.236a2.517,2.517,0,0,0-.943.159c-.482.179-.782.475-.782.757,0,.053.015.385.045.912h1.366a.366.366,0,0,1,0,.731h-1.323c.057.866.145,2,.281,3.217h1.04a.188.188,0,0,1,.042,0,.365.365,0,0,1-.042.73h-.958a25.834,25.834,0,0,0,.906,4.776h.748a19.415,19.415,0,0,0,.609-2.8h-.677a.366.366,0,0,1,0-.731h.793c.164-1.1.286-2.215.377-3.217h-1.17a.188.188,0,0,1-.042,0,.365.365,0,1,1,.042-.73h1.229l0,0c.133-1.609.183-2.784.183-2.889,0-.28-.3-.58-.781-.757A3.228,3.228,0,0,0,618.705,55.236Z" transform="translate(-521.614 -46.698)" fill="#f28300" fill-rule="evenodd"/>
</svg>
