<svg id="home_" data-name="home " xmlns="http://www.w3.org/2000/svg" width="22.543" height="20.095" viewBox="0 0 22.543 20.095">
  <g id="Group_17309" data-name="Group 17309" transform="translate(0 0)">
    <g id="Group_17308" data-name="Group 17308">
      <path id="Path_82" data-name="Path 82" d="M22.3,35.594,11.617,27.909a.594.594,0,0,0-.692,0L.239,35.594a.569.569,0,0,0-.127.8.593.593,0,0,0,.819.124l10.34-7.436,10.34,7.436a.593.593,0,0,0,.819-.124A.569.569,0,0,0,22.3,35.594Z" transform="translate(0.001 -27.798)" fill="#4b566b"/>
    </g>
  </g>
  <g id="Group_17311" data-name="Group 17311" transform="translate(2.441 9.211)">
    <g id="Group_17310" data-name="Group 17310" transform="translate(0 0)">
      <path id="Path_83" data-name="Path 83" d="M73.524,232.543a.582.582,0,0,0-.589.575v9.158H68.226v-5a2.944,2.944,0,0,0-5.887,0v5H57.629v-9.158a.589.589,0,0,0-1.177,0v9.733a.582.582,0,0,0,.589.575h5.887a.583.583,0,0,0,.586-.531.421.421,0,0,0,0-.045v-5.574a1.767,1.767,0,0,1,3.532,0v5.574a.415.415,0,0,0,0,.044.583.583,0,0,0,.586.531h5.887a.582.582,0,0,0,.589-.575v-9.733A.582.582,0,0,0,73.524,232.543Z" transform="translate(-56.452 -232.543)" fill="#4b566b"/>
    </g>
  </g>
</svg>
