<svg xmlns="http://www.w3.org/2000/svg" width="17.949" height="16" viewBox="0 0 17.949 16">
  <g id="home_1_" data-name="home" transform="translate(0.001 -27.797)">
    <g id="Group_17309" data-name="Group 17309" transform="translate(-0.001 27.798)">
      <g id="Group_17308" data-name="Group 17308" transform="translate(0 0)">
        <path id="Path_82" data-name="Path 82" d="M17.757,34,9.249,27.886a.473.473,0,0,0-.551,0L.19,34a.453.453,0,0,0-.1.64.472.472,0,0,0,.652.1l8.233-5.921,8.233,5.921a.472.472,0,0,0,.652-.1A.453.453,0,0,0,17.757,34Z" transform="translate(0.001 -27.797)" fill="#59b828"/>
      </g>
    </g>
    <g id="Group_17311" data-name="Group 17311" transform="translate(1.943 35.132)">
      <g id="Group_17310" data-name="Group 17310" transform="translate(0 0)">
        <path id="Path_83" data-name="Path 83" d="M70.044,232.543a.464.464,0,0,0-.469.458v7.291h-3.75v-3.98a2.344,2.344,0,0,0-4.687,0v3.98h-3.75V233a.469.469,0,0,0-.937,0v7.75a.464.464,0,0,0,.469.458h4.687a.464.464,0,0,0,.467-.422.336.336,0,0,0,0-.036v-4.438a1.407,1.407,0,0,1,2.813,0v4.438a.33.33,0,0,0,0,.035.464.464,0,0,0,.467.423h4.687a.464.464,0,0,0,.469-.458V233A.464.464,0,0,0,70.044,232.543Z" transform="translate(-56.452 -232.543)" fill="#59b828"/>
      </g>
    </g>
  </g>
</svg>
