<svg xmlns="http://www.w3.org/2000/svg" width="11.98" height="20" viewBox="0 0 11.98 20">
  <g id="iphone" transform="translate(-45.111)">
    <circle id="Ellipse_28" data-name="Ellipse 28" cx="0.706" cy="0.706" r="0.706" transform="translate(50.395 16.676)" fill="#4b566b"/>
    <path id="Path_23098" data-name="Path 23098" d="M55.024,0H47.178a2.069,2.069,0,0,0-2.067,2.067V17.933A2.069,2.069,0,0,0,47.178,20h7.846a2.069,2.069,0,0,0,2.067-2.067V2.067A2.069,2.069,0,0,0,55.024,0Zm-8.58,4.045h9.314v11.1H46.444Zm.734-2.711h7.846a.735.735,0,0,1,.734.734v.644H46.444V2.067A.734.734,0,0,1,47.178,1.333Zm7.846,17.333H47.178a.735.735,0,0,1-.734-.734V16.48h9.314v1.453A.734.734,0,0,1,55.024,18.667Z" transform="translate(0)" fill="#4b566b"/>
  </g>
</svg>
