<?xml version="1.0" encoding="UTF-8"?>
<!DOCTYPE svg PUBLIC "-//W3C//DTD SVG 1.1//EN" "http://www.w3.org/Graphics/SVG/1.1/DTD/svg11.dtd">
<!-- Creator: CorelDRAW 2018 (64-Bit Evaluation Version) -->
<svg xmlns="http://www.w3.org/2000/svg" xml:space="preserve" width="7.3624mm" height="7.3378mm" version="1.1" style="shape-rendering:geometricPrecision; text-rendering:geometricPrecision; image-rendering:optimizeQuality; fill-rule:evenodd; clip-rule:evenodd"
viewBox="0 0 117.06 116.67"
 xmlns:xlink="http://www.w3.org/1999/xlink">
 <defs>
  <style type="text/css">
   <![CDATA[
    .fil0 {fill:#4B566B;fill-rule:nonzero}
   ]]>
  </style>
 </defs>
 <g id="Layer_x0020_1">
  <metadata id="CorelCorpID_0Corel-Layer"/>
  <path class="fil0" d="M59.06 106.95l-44.29 0c-2.72,0 -4.92,-2.18 -4.92,-4.86l0 -87.5c0,-2.68 2.21,-4.86 4.92,-4.86l44.29 0c2.72,0 4.92,-2.17 4.92,-4.86 0,-2.69 -2.2,-4.86 -4.92,-4.86l-44.29 0c-8.14,0 -14.76,6.54 -14.76,14.58l0 87.5c0,8.04 6.63,14.58 14.76,14.58l44.29 0c2.72,0 4.92,-2.17 4.92,-4.86 0,-2.69 -2.2,-4.86 -4.92,-4.86zm56.54 -52.12l-29.92 -29.53c-1.93,-1.91 -5.05,-1.89 -6.96,0.05 -1.91,1.93 -1.89,5.05 0.05,6.96l21.38 21.1 -57.3 0c-2.72,0 -4.92,2.2 -4.92,4.92 0,2.72 2.2,4.92 4.92,4.92l57.3 0 -21.38 21.1c-1.94,1.91 -1.95,5.02 -0.05,6.96 0.96,0.97 2.23,1.47 3.5,1.47 1.25,0 2.5,-0.47 3.45,-1.42l29.92 -29.53c0.93,-0.93 1.47,-2.19 1.47,-3.5 0,-1.32 -0.53,-2.57 -1.47,-3.5z"/>
 </g>
</svg>
