<?xml version="1.0" encoding="UTF-8"?>
<!DOCTYPE svg PUBLIC "-//W3C//DTD SVG 1.1//EN" "http://www.w3.org/Graphics/SVG/1.1/DTD/svg11.dtd">
<!-- Creator: CorelDRAW 2018 (64-Bit Evaluation Version) -->
<svg xmlns="http://www.w3.org/2000/svg" xml:space="preserve" width="945px" height="474px" version="1.1" style="shape-rendering:geometricPrecision; text-rendering:geometricPrecision; image-rendering:optimizeQuality; fill-rule:evenodd; clip-rule:evenodd"
viewBox="0 0 945 474.05"
 xmlns:xlink="http://www.w3.org/1999/xlink">
 <defs>
  <style type="text/css">
   <![CDATA[
    .fil14 {fill:none}
    .fil11 {fill:black}
    .fil9 {fill:#28AF2D}
    .fil16 {fill:#28AF2D}
    .fil13 {fill:#7DB996}
    .fil12 {fill:#C46451}
    .fil10 {fill:#E78C47}
    .fil17 {fill:#EA3F2B}
    .fil15 {fill:#EA3F2B}
    .fil18 {fill:#F28300}
    .fil0 {fill:black;fill-rule:nonzero}
    .fil8 {fill:black;fill-rule:nonzero}
    .fil5 {fill:#E51F0A;fill-rule:nonzero}
    .fil2 {fill:#EA3F2B;fill-rule:nonzero}
    .fil7 {fill:#F28300;fill-rule:nonzero}
    .fil6 {fill:#F7392B;fill-rule:nonzero}
    .fil3 {fill:#FAC41A;fill-rule:nonzero}
    .fil4 {fill:#FF9210;fill-rule:nonzero}
    .fil1 {fill:#FFCC3E;fill-rule:nonzero}
   ]]>
  </style>
 </defs>
 <g id="Layer_x0020_1">
  <metadata id="CorelCorpID_0Corel-Layer"/>
  <g id="_1117357728">
   <polygon class="fil0" points="453.66,86.08 493.87,86.08 493.87,115.64 453.66,115.64 "/>
   <path class="fil1" d="M485.4 71.9l0 -13.52 -23.27 0 0 13.52c-6.91,2.11 -5.7,14.2 -5.7,14.2l34.69 0c0,0 1.19,-12.08 -5.72,-14.2z"/>
   <path class="fil0" d="M481.84 71.9l-0.01 -9.95 -16.13 0 0 9.95c0,1.67 -1.15,3.08 -2.71,3.46 -2.3,0.88 -2.93,4.44 -3.06,7.17l27.68 0c-0.14,-2.8 -0.79,-6.47 -3.25,-7.23 -1.53,-0.47 -2.52,-1.88 -2.52,-3.4zm7.14 -13.53l0 11.3c6.5,4.27 5.82,15.19 5.71,16.55 -0.07,1.92 -1.64,3.46 -3.57,3.46l-34.69 0c-1.85,-0.01 -3.42,-1.44 -3.56,-3.31 0,-0.04 -1.25,-12.15 5.69,-16.7l0 -11.3c0,-1.97 1.6,-3.57 3.57,-3.57l23.27 0c1.98,0 3.58,1.6 3.58,3.57z"/>
   <path class="fil1" d="M483.26 30.4l-18.99 0c-9.8,2.75 -12.17,25.21 -2.39,27.97l23.79 0c9.78,-2.76 7.4,-25.22 -2.41,-27.97z"/>
   <path class="fil0" d="M482.72 33.97l-17.9 0c-2.22,0.88 -3.91,3.71 -4.85,7.04 -0.47,1.68 -0.74,3.45 -0.78,5.16 -0.04,1.68 0.14,3.31 0.54,4.74 0.53,1.86 1.43,3.32 2.72,3.89l22.65 0c1.3,-0.57 2.2,-2.03 2.72,-3.89 0.4,-1.43 0.58,-3.06 0.54,-4.73 -0.04,-1.71 -0.31,-3.48 -0.78,-5.16 -0.94,-3.33 -2.63,-6.17 -4.86,-7.05zm-18.45 -7.15l19 0c0.31,0.01 0.64,0.05 0.96,0.14 5.09,1.43 8.59,6.4 10.21,12.13 0.63,2.22 0.98,4.6 1.03,6.95 0.06,2.37 -0.2,4.7 -0.78,6.8 -1.2,4.24 -3.72,7.61 -7.75,8.87 -0.39,0.15 -0.82,0.23 -1.27,0.23l-23.79 0c-0.32,-0.01 -0.64,-0.05 -0.96,-0.14 -4.21,-1.19 -6.83,-4.62 -8.05,-8.97 -0.59,-2.09 -0.85,-4.43 -0.79,-6.8 0.05,-2.35 0.4,-4.73 1.03,-6.95 1.58,-5.62 4.98,-10.49 9.9,-12.03 0.4,-0.15 0.82,-0.23 1.26,-0.23z"/>
   <polygon class="fil1" points="466.08,21.34 481.47,21.34 481.47,30.4 466.08,30.4 "/>
   <path class="fil0" d="M466.08 17.77l15.39 0c1.97,0 3.57,1.6 3.57,3.57l0 9.06c0,1.97 -1.6,3.57 -3.57,3.57l-15.39 0c-1.97,0 -3.57,-1.6 -3.57,-3.57l0 -9.06c0,-1.97 1.6,-3.57 3.57,-3.57zm11.81 7.14l-8.24 0 0 1.92 8.24 0 0 -1.92z"/>
   <path class="fil1" d="M479.78 129.32l-24.01 0 0 12.31c-0.04,2.33 1.81,4.27 4.16,4.3l2.24 0c2.41,-3.11 6.9,-3.67 10.01,-1.25 0.47,0.37 0.9,0.78 1.25,1.25l0.75 0c2.42,-3.11 6.9,-3.67 10.01,-1.25 0.47,0.37 0.89,0.78 1.26,1.25l2.25 0c2.33,-0.03 4.19,-1.96 4.15,-4.3l0 0 0 -12.29 -12.07 -0.02z"/>
   <path class="fil1" d="M493.88 132.7c0.07,1.47 -1.08,2.7 -2.54,2.76l-35.14 0c-1.46,-0.06 -2.6,-1.29 -2.54,-2.76l0 -0.62c-0.06,-1.47 1.08,-2.7 2.54,-2.76l35.14 0c1.46,0.06 2.61,1.29 2.54,2.76l0 0.62z"/>
   <path class="fil1" d="M493.88 126.56c0.07,1.46 -1.08,2.7 -2.54,2.76l-35.14 0c-1.46,-0.06 -2.6,-1.3 -2.54,-2.76l0 -0.65c-0.06,-1.47 1.08,-2.7 2.54,-2.76l35.14 0c1.46,0.06 2.61,1.29 2.54,2.76l0 0.65z"/>
   <path class="fil0" d="M497.44 126.85c-0.04,1.54 -0.65,2.96 -1.63,4.03 -1.08,1.16 -2.6,1.92 -4.32,2l-35.29 0.02c-0.21,0 -0.42,-0.02 -0.62,-0.06 -1.52,-0.18 -2.87,-0.91 -3.85,-1.98 -1.04,-1.14 -1.66,-2.66 -1.63,-4.3l0.01 -0.96c0.04,-1.54 0.65,-2.95 1.63,-4.01 1.07,-1.16 2.59,-1.92 4.29,-2 11.7,-0.2 23.59,-0.01 35.31,-0.01 0.21,0 0.42,0.02 0.62,0.05 1.51,0.18 2.85,0.9 3.83,1.96l0.02 0c1.04,1.13 1.67,2.65 1.63,4.31l0 0.95z"/>
   <path class="fil1" d="M493.88 120.4c0.07,1.47 -1.08,2.71 -2.54,2.78l-35.14 0c-1.47,-0.07 -2.6,-1.31 -2.54,-2.78l0 -0.62c-0.06,-1.47 1.08,-2.7 2.54,-2.76l35.14 0c1.46,0.06 2.61,1.29 2.54,2.76l0 0.62z"/>
   <path class="fil0" d="M497.44 120.69c-0.04,1.54 -0.65,2.95 -1.63,4.02l0 0.02c-1.08,1.16 -2.6,1.93 -4.32,2.01l-35.29 0.01c-0.21,0 -0.41,-0.02 -0.61,-0.05 -1.54,-0.18 -2.89,-0.92 -3.87,-1.99l-0.25 -0.31c-0.88,-1.1 -1.4,-2.5 -1.37,-4l0 -0.9c0.04,-1.56 0.65,-2.98 1.64,-4.04 1.04,-1.14 2.52,-1.89 4.18,-1.99 0.25,-0.12 32.15,-0.02 35.42,-0.02 0.22,0 0.42,0.01 0.62,0.05 1.53,0.18 2.87,0.9 3.85,1.96 1.04,1.12 1.66,2.64 1.63,4.3 0.04,0.03 0.01,0.79 0,0.93z"/>
   <polygon class="fil2" points="456.23,86.11 490.92,86.11 490.92,117.02 456.23,117.02 "/>
   <path class="fil3" d="M485.21 71.9l0 -13.52 -23.27 0 0 13.52c-6.91,2.11 -5.7,14.2 -5.7,14.2l34.65 0c0,0 1.24,-12.08 -5.68,-14.2z"/>
   <path class="fil1" d="M483.07 30.4l-18.99 0c-9.79,2.75 -12.16,25.21 -2.39,27.97l23.79 0c9.77,-2.76 7.39,-25.22 -2.41,-27.97z"/>
   <polygon class="fil4" points="461.95,58.37 485.22,58.37 485.22,62.79 461.95,62.79 "/>
   <polygon class="fil5" points="465.89,21.34 481.26,21.34 481.26,30.4 465.89,30.4 "/>
   <polygon class="fil6" points="468.23,21.34 473.41,21.34 473.41,30.4 468.23,30.4 "/>
   <polygon class="fil7" points="459.31,88.71 487.84,88.71 487.84,117.34 459.31,117.34 "/>
   <path class="fil1" d="M476.34 95.81c0,3.11 -1.24,5.61 -2.76,5.61 -1.53,0 -2.78,-2.5 -2.78,-5.61 0,-3.1 1.24,-5.6 2.78,-5.6 1.54,0 2.76,2.46 2.76,5.6z"/>
   <path class="fil1" d="M471.63 95.5c1.83,2.51 2.29,5.23 1.06,6.17 -1.24,0.95 -3.74,-0.4 -5.55,-2.9 -1.81,-2.51 -2.3,-5.28 -1.05,-6.18 1.24,-0.9 3.73,0.41 5.54,2.91z"/>
   <path class="fil1" d="M467.67 98.07c2.94,0.95 4.94,2.9 4.48,4.37 -0.45,1.47 -3.24,1.85 -6.2,0.9 -2.96,-0.96 -4.94,-2.92 -4.48,-4.39 0.45,-1.46 3.23,-1.85 6.2,-0.88z"/>
   <path class="fil1" d="M465.95 102.47c2.94,-0.96 5.72,-0.55 6.19,0.91 0.47,1.47 -1.5,3.43 -4.49,4.37 -2.99,0.94 -5.73,0.55 -6.2,-0.9 -0.47,-1.45 1.54,-3.42 4.5,-4.38z"/>
   <path class="fil1" d="M467.14 107.04c1.82,-2.5 4.31,-3.8 5.55,-2.91 1.24,0.9 0.75,3.66 -1.06,6.17 -1.8,2.52 -4.3,3.82 -5.54,2.91 -1.25,-0.9 -0.78,-3.67 1.05,-6.17z"/>
   <path class="fil1" d="M470.8 110.04c0,-3.09 1.24,-5.61 2.78,-5.61 1.54,0 2.78,2.52 2.78,5.61 0,3.08 -1.25,5.62 -2.78,5.62 -1.53,0 -2.78,-2.53 -2.78,-5.62z"/>
   <path class="fil1" d="M475.52 110.3c-1.82,-2.52 -2.29,-5.24 -1.05,-6.17 1.24,-0.94 3.74,0.4 5.54,2.9 1.81,2.5 2.29,5.28 1.06,6.17 -1.23,0.9 -3.72,-0.39 -5.55,-2.9z"/>
   <path class="fil1" d="M479.5 107.75c-2.94,-0.96 -4.95,-2.91 -4.49,-4.37 0.47,-1.46 3.25,-1.87 6.19,-0.91 2.95,0.96 4.96,2.92 4.49,4.38 -0.47,1.46 -3.24,1.85 -6.19,0.9z"/>
   <path class="fil1" d="M481.21 103.34c-2.94,0.96 -5.71,0.56 -6.19,-0.89 -0.48,-1.45 1.5,-3.43 4.49,-4.38 2.99,-0.95 5.73,-0.55 6.2,0.9 0.47,1.45 -1.55,3.41 -4.5,4.37z"/>
   <path class="fil1" d="M480.02 98.77c-1.83,2.51 -4.31,3.81 -5.55,2.9 -1.24,-0.9 -0.75,-3.67 1.05,-6.17 1.8,-2.5 4.31,-3.81 5.55,-2.91 1.24,0.91 0.77,3.67 -1.05,6.18z"/>
   <path class="fil8" d="M479.55 102.9c0,3.3 -2.68,5.98 -5.99,5.98 -3.3,0 -5.98,-2.68 -5.98,-5.98 0,-3.3 2.68,-5.98 5.98,-5.98 3.31,0 5.99,2.68 5.99,5.98z"/>
   <path class="fil4" d="M479.57 129.32l-24.04 0 0 12.31c-0.04,2.33 1.82,4.26 4.15,4.3l2.24 0c2.42,-3.11 6.9,-3.67 10.01,-1.25 0.47,0.37 0.89,0.78 1.26,1.25l0.75 0c2.2,-0.03 4.26,-1.04 5.63,-2.75 1.38,1.7 3.44,2.7 5.63,2.75l2.24 0c2.33,-0.04 4.19,-1.97 4.15,-4.3l0 -12.29 -12.02 -0.02z"/>
   <path class="fil1" d="M493.68 132.7c0.06,1.47 -1.08,2.7 -2.54,2.76l-35.14 0c-1.45,-0.07 -2.59,-1.3 -2.53,-2.76l0 -0.62c-0.06,-1.46 1.08,-2.7 2.53,-2.76l35.14 0c1.46,0.06 2.6,1.29 2.54,2.76l0 0.62z"/>
   <path class="fil3" d="M493.68 126.56c0.06,1.46 -1.08,2.7 -2.54,2.76l-35.14 0c-1.46,-0.07 -2.59,-1.3 -2.53,-2.76l0 -0.65c-0.06,-1.47 1.08,-2.7 2.53,-2.76l35.14 0c1.46,0.06 2.6,1.29 2.54,2.76l0 0.65z"/>
   <path class="fil1" d="M493.68 120.4c0.06,1.47 -1.07,2.71 -2.54,2.78l-35.14 0c-1.46,-0.07 -2.6,-1.31 -2.53,-2.78l0 -0.62c-0.06,-1.46 1.08,-2.7 2.53,-2.76l35.14 0c1.46,0.06 2.6,1.29 2.54,2.76l0 0.62z"/>
   <path class="fil9" d="M354.35 326.29c10.71,0.25 21.23,-2.76 30.18,-8.64 8.69,-5.88 15.65,-13.97 20.18,-23.44 4.97,-10.36 7.34,-21.76 6.92,-33.24 0.22,-11.35 -2.15,-22.6 -6.92,-32.9 -4.35,-9.29 -11.11,-17.26 -19.59,-23.05 -9,-5.92 -19.6,-8.94 -30.36,-8.64 -22.06,-0.85 -42.43,11.76 -51.51,31.88 -9.23,21 -9.23,44.92 0,65.92 4.3,9.5 11.15,17.61 19.8,23.44 9.31,5.99 20.23,9.02 31.3,8.67zm-11.9 37.67c-17.17,0.45 -34.07,-4.38 -48.43,-13.83 -13.63,-9.27 -24.45,-22.1 -31.32,-37.08 -7.43,-16.07 -11.18,-33.61 -10.96,-51.32 -0.29,-18.24 4,-36.28 12.48,-52.44 8.23,-15.4 20.62,-28.19 35.75,-36.9 16.95,-9.47 36.13,-14.18 55.53,-13.65 19.04,-0.57 37.86,4.16 54.38,13.65 14.74,8.83 26.72,21.61 34.59,36.9 8.18,15.98 12.34,33.72 12.1,51.69l0 98.38 -44.2 0 0 -36.51 -0.75 0c-4.01,7.41 -9.06,14.2 -15,20.19 -6.48,6.5 -14.18,11.66 -22.67,15.19 -10,4.03 -20.72,5.99 -31.51,5.75l0.01 -0.02z"/>
   <path class="fil9" d="M470.01 359.35l0 -112.99c-0.28,-15.82 3.7,-31.41 11.53,-45.16 7.74,-13.24 19.07,-24.04 32.67,-31.13 15.33,-7.85 32.37,-11.75 49.59,-11.34 17.13,-0.42 34.1,3.48 49.34,11.34 13.52,7.14 24.77,17.92 32.46,31.13 7.85,13.75 11.82,29.34 11.55,45.16l0 112.98 -43.79 0 0 -112.6c0.2,-27.6 -22.03,-50.15 -49.64,-50.34 -8.65,-0.05 -17.16,2.13 -24.72,6.35 -7.49,4.15 -13.74,10.26 -18.07,17.67 -4.59,8 -6.92,17.11 -6.72,26.32l0 112.6 -44.2 0.01z"/>
   <path class="fil9" d="M772.84 326.29c-10.58,0.21 -20.99,-2.64 -29.98,-8.22 -8.77,-5.58 -15.82,-13.49 -20.36,-22.86 -5.05,-10.55 -7.55,-22.13 -7.31,-33.82 -0.22,-11.56 2.28,-23.02 7.31,-33.44 4.54,-9.36 11.51,-17.33 20.18,-23.07 8.87,-5.71 19.24,-8.64 29.79,-8.44 10.57,-0.2 20.99,2.65 29.97,8.22 8.78,5.59 15.83,13.51 20.37,22.88 9.73,21.49 9.73,46.13 0,67.63 -4.54,9.37 -11.59,17.28 -20.37,22.87 -8.86,5.55 -19.15,8.41 -29.6,8.25zm0 37.67c18.47,0.37 36.73,-4.02 53.03,-12.71 15.27,-8.34 27.76,-20.96 35.94,-36.32 8.94,-17.25 13.36,-36.49 12.88,-55.92l0 -180.22 -44.2 0 0 114.16 -0.39 0c-4.17,-7 -9.65,-13.14 -16.14,-18.07 -6.72,-5.16 -14.25,-9.19 -22.28,-11.92 -8.43,-2.86 -17.27,-4.28 -26.17,-4.23 -17.27,-0.35 -34.32,3.96 -49.35,12.49 -14.15,8.27 -25.73,20.32 -33.42,34.8 -8.38,16.12 -12.54,34.1 -12.11,52.26 -0.17,14.59 2.24,29.1 7.11,42.86 4.46,12.47 11.38,23.91 20.37,33.64 8.94,9.53 19.9,16.93 32.09,21.67 13.61,5.19 28.1,7.72 42.66,7.48l-0.02 0.03z"/>
   <path class="fil9" d="M916.55 136.07c-15.69,-0.02 -28.4,-12.75 -28.38,-28.43 0.01,-15.7 12.73,-28.41 28.43,-28.39 7.56,0 14.81,3.03 20.14,8.39 11.01,11.05 11.01,28.92 0,39.97 -5.24,5.52 -12.56,8.59 -20.19,8.45l0 0.01zm-21.9 27.28l44.2 0 0 196 -44.2 0 0 -196zm0 196l0 -196 0 196z"/>
   <path class="fil10" d="M628.99 133.43c-0.13,0.38 -0.27,0.75 -0.41,1.14 0.14,-0.39 0.28,-0.75 0.41,-1.14z"/>
   <path class="fil11" d="M643.53 29.36c-1.04,-1.09 -2.52,-1.67 -4.02,-1.58 -1.6,0.09 -3.07,0.89 -4.02,2.17 -0.65,0.84 -1.27,1.69 -1.85,2.58l0 -8.9c0,-3.04 -2.47,-5.5 -5.52,-5.5 -3.04,0.01 -5.5,2.47 -5.5,5.5l0 8.9c-0.57,-0.89 -1.2,-1.74 -1.86,-2.58 -0.95,-1.28 -2.41,-2.08 -4.01,-2.17 -1.52,-0.09 -2.99,0.5 -4.04,1.6 -2,2.09 -2.21,5.32 -0.5,7.65 3.35,4.59 5.58,9.9 6.5,15.5 -3.66,1.4 -6.17,4.77 -6.48,8.67l0 0.09c0.08,2.47 2.29,60.76 13.84,81.08 0.63,1.13 2.06,1.54 3.2,0.91 0.38,-0.22 0.7,-0.52 0.91,-0.91 11.55,-20.32 13.75,-78.61 13.84,-81.08l0 -0.09c-0.3,-3.9 -2.82,-7.27 -6.48,-8.67 0.92,-5.6 3.15,-10.91 6.49,-15.5 1.75,-2.34 1.53,-5.59 -0.51,-7.68l0.01 0.01zm-5.42 50.48l-7.95 0c-1.31,-0.07 -2.42,0.92 -2.5,2.23 -0.07,1.3 0.93,2.42 2.23,2.49 0.09,0.01 0.18,0.01 0.27,0l7.57 0c-0.59,6.48 -1.38,13.67 -2.44,20.81l-5.13 0c-1.31,0 -2.36,1.07 -2.36,2.37 0,1.3 1.05,2.36 2.36,2.36l4.38 0c-1.24,8.75 -3.38,17.34 -6.42,25.63 -4.24,-12.43 -7,-25.32 -8.22,-38.4l6.2 0c1.3,0.07 2.41,-0.92 2.49,-2.23 0.07,-1.29 -0.92,-2.41 -2.22,-2.49 -0.1,-0.01 -0.18,-0.01 -0.27,0l-6.73 0c-0.88,-7.88 -1.45,-15.21 -1.82,-20.81l8.56 0c1.3,0 2.36,-1.06 2.36,-2.36 0,-1.31 -1.06,-2.37 -2.36,-2.37l-8.84 0c-0.19,-3.41 -0.27,-5.56 -0.29,-5.9 0,-1.83 1.94,-3.74 5.06,-4.9 1.95,-0.73 4.02,-1.08 6.1,-1.03 2.08,0.03 4.14,0.39 6.12,1.03 3.11,1.15 5.03,3.09 5.05,4.9 0,0.68 -0.32,8.28 -1.18,18.69l-0.02 -0.02zm-21.99 -47.19c0.33,-0.37 0.75,0 0.9,0.2 2.4,3.13 4.34,6.58 5.76,10.25 0.49,1.21 1.87,1.8 3.09,1.32 0.89,-0.36 1.48,-1.22 1.48,-2.18l0 -18.61c0,-0.42 0.35,-0.77 0.77,-0.77 0.43,0 0.78,0.35 0.78,0.77l0 18.61c-0.01,1.14 0.81,2.11 1.93,2.31 1.11,0.2 2.21,-0.41 2.64,-1.45 1.28,-3.74 3.24,-7.21 5.75,-10.25 0.57,-0.57 0.8,-0.31 0.91,-0.21 0.41,0.43 0.45,1.09 0.11,1.57 -3.65,4.98 -6.13,10.72 -7.25,16.79 -3.21,-0.64 -6.51,-0.64 -9.72,0 -1.11,-6.07 -3.58,-11.81 -7.22,-16.79 -0.35,-0.47 -0.31,-1.13 0.1,-1.57l-0.03 0.01z"/>
   <path class="fil12" d="M531.65 74.39c-0.53,-0.17 -1.06,-0.35 -1.54,-0.53 0.48,0.18 0.99,0.36 1.54,0.53z"/>
   <path class="fil13" d="M583.11 68.08c0.55,0.24 1.09,0.48 1.65,0.74 -0.56,-0.26 -1.1,-0.5 -1.65,-0.74z"/>
   <path class="fil13" d="M584.76 68.83c-0.35,0.14 -0.75,0.28 -1.16,0.43 0.4,-0.15 0.81,-0.29 1.16,-0.43z"/>
   <path class="fil13" d="M581.26 67.29c0.52,0.2 1.03,0.41 1.55,0.64 -0.52,-0.23 -1,-0.44 -1.55,-0.64z"/>
   <line class="fil14" x1="579.41" y1="66.57" x2="580.95" y2= "67.16" />
   <line class="fil14" x1="535.99" y1="70.2" x2="535.58" y2= "70.1" />
   <line class="fil14" x1="534.53" y1="69.84" x2="534.32" y2= "69.78" />
   <line class="fil14" x1="533.51" y1="69.54" x2="533.17" y2= "69.44" />
   <line class="fil14" x1="532.51" y1="69.21" x2="532.23" y2= "69.11" />
   <line class="fil14" x1="538.48" y1="70.66" x2="538.09" y2= "70.6" />
   <path class="fil13" d="M577.85 66.04c0.5,0.17 0.98,0.33 1.5,0.53 -0.52,-0.2 -1.01,-0.36 -1.5,-0.53z"/>
   <line class="fil14" x1="537.22" y1="70.44" x2="536.76" y2= "70.35" />
   <path class="fil13" d="M573.1 64.69c0.42,0.1 0.84,0.2 1.28,0.32 -0.45,-0.12 -0.86,-0.26 -1.28,-0.32z"/>
   <line class="fil14" x1="564.96" y1="63.37" x2="565.71" y2= "63.44" />
   <line class="fil14" x1="565.81" y1="63.45" x2="566.6" y2= "63.53" />
   <line class="fil14" x1="564.85" y1="63.37" x2="564.22" y2= "63.32" />
   <line class="fil14" x1="563.66" y1="63.3" x2="564.2" y2= "63.3" />
   <path class="fil13" d="M566.72 63.55c0.29,0 0.61,0.07 0.92,0.11 -0.36,-0.08 -0.66,-0.08 -0.92,-0.11z"/>
   <line class="fil14" x1="582.24" y1="69.68" x2="583.31" y2= "69.35" />
   <line class="fil14" x1="569.02" y1="63.87" x2="570.06" y2= "64.05" />
   <path class="fil13" d="M574.46 65.03c0.47,0.12 0.92,0.25 1.39,0.39 -0.47,-0.14 -0.92,-0.27 -1.39,-0.39z"/>
   <line class="fil14" x1="571.62" y1="64.35" x2="572.84" y2= "64.61" />
   <path class="fil15" d="M542.99 136.32c3.73,0 7.6,-1.54 11.42,-5.22 3.83,3.67 7.7,5.22 11.43,5.22 12.66,0 23.7,-17.77 26.1,-30 3.1,-15.83 1.43,-33.58 -15,-37.25 -2.18,-0.49 -4.17,-0.71 -5.99,-0.71 -12.41,0 -16.54,9.98 -16.54,9.98 0,0 -4.12,-9.98 -16.53,-9.98 -1.82,0 -3.81,0.22 -5.99,0.71 -16.43,3.67 -18.1,21.42 -15,37.25 2.4,12.23 13.44,30 26.1,30z"/>
   <path class="fil11" d="M597.43 81.42c-2.94,-9.71 -9.58,-15.98 -19.2,-18.13 -0.41,-0.1 -0.83,-0.18 -1.24,-0.26 0.25,-0.22 0.5,-0.45 0.74,-0.69 8.23,-8.23 6.87,-22.39 6.8,-22.99l-0.24 -2.39 -2.4 -0.25c-0.11,-0.01 -1.18,-0.12 -2.87,-0.12 -4.93,0 -14.09,0.9 -20.12,6.92 -1.92,1.93 -3.31,4.17 -4.33,6.49 -1.48,-4.73 -3.73,-10.24 -7.14,-16.29 -0.8,-1.42 -2.61,-1.93 -4.03,-1.12 -1.42,0.8 -1.93,2.61 -1.12,4.03 8.99,15.95 9.21,27.86 9.19,29.78 -3.23,-2.1 -7.7,-3.86 -13.59,-3.86 0,0 0,0 0,0 -2.33,0 -4.78,0.24 -7.28,0.8 -9.62,2.15 -16.26,8.39 -19.2,18.1 -2.73,8.98 -1.68,19.11 -0.32,26.03 1.44,7.36 5.31,15.61 10.34,22.08 2.87,3.68 5.98,6.63 9.26,8.76 4,2.61 8.14,3.93 12.31,3.93 4,0 7.83,-1.2 11.42,-3.56 3.61,2.36 7.43,3.56 11.43,3.56 4.17,0 8.31,-1.32 12.31,-3.93 3.28,-2.13 6.4,-5.08 9.26,-8.77 5.04,-6.47 8.9,-14.72 10.34,-22.08 1.36,-6.92 2.4,-17.06 -0.32,-26.04zm-65.54 -12.35c2.18,-0.49 4.17,-0.71 5.99,-0.71 12.41,0 16.53,9.98 16.53,9.98 0,0 4.13,-9.98 16.54,-9.98 1.82,0 3.81,0.22 5.99,0.71 16.43,3.67 18.1,21.42 15,37.25 -2.4,12.23 -13.44,30 -26.1,30 -3.73,0 -7.6,-1.55 -11.43,-5.22 -3.82,3.68 -7.69,5.22 -11.42,5.22 -12.66,0 -23.7,-17.77 -26.1,-30 -3.1,-15.83 -1.43,-33.58 15,-37.25zm46.83 -26.56c-0.03,3.86 -0.73,11.19 -5.18,15.64 -4.55,4.55 -12.24,5.16 -15.64,5.19 0.04,-3.86 0.74,-11.19 5.19,-15.64 4.55,-4.55 12.24,-5.16 15.63,-5.19z"/>
   <path class="fil16" d="M573.54 58.15c4.45,-4.45 5.15,-11.78 5.18,-15.64 -3.39,0.03 -11.08,0.64 -15.63,5.19 -4.45,4.45 -5.15,11.78 -5.19,15.64 3.4,-0.03 11.09,-0.64 15.64,-5.19z"/>
   <path class="fil13" d="M570.17 64.07c0.39,0.07 0.76,0.14 1.17,0.24 -0.39,-0.1 -0.78,-0.18 -1.17,-0.24z"/>
   <line class="fil14" x1="567.82" y1="63.69" x2="568.81" y2= "63.83" />
   <line class="fil14" x1="576.19" y1="65.51" x2="577.6" y2= "65.94" />
   <path class="fil9" d="M809.85 93.41l-69.98 -69.98c-2.82,-2.84 -6.66,-4.43 -10.67,-4.41l-50.79 0c-8.33,0.01 -15.08,6.76 -15.11,15.09l0 84.36c0,5.39 -4.37,9.75 -9.76,9.76l-246.65 0c-8.33,0.01 -15.09,6.76 -15.1,15.11l0 4.21c0,1.47 1.19,2.66 2.65,2.66l0.01 0 417.18 0c1.48,0 2.66,-1.19 2.66,-2.66l0 0 0 -43.47c-0.01,-4 -1.61,-7.84 -4.44,-10.67zm-78.82 -53.22c-1.55,-1.61 -3.69,-2.52 -5.92,-2.53l-32.73 0c-4.54,0 -8.24,3.68 -8.24,8.22l0 32.84c0,4.54 3.7,8.23 8.24,8.23l64.15 0c4.54,-0.05 8.18,-3.77 8.13,-8.32 -0.03,-2.05 -0.82,-4.03 -2.22,-5.53l-31.41 -32.91z"/>
   <path class="fil9" d="M48.48 198.16l93.7 0c7.2,0.1 14.31,-1.72 20.57,-5.29 5.92,-3.34 10.83,-8.19 14.25,-14.06 3.37,-5.74 5.13,-12.29 5.09,-18.95 0.24,-20.91 -16.53,-38.06 -37.44,-38.3 -0.42,0 -0.84,0 -1.25,0.01l-94.95 0 0.03 76.59zm-48.48 165.79l0 -285.17 157.24 0c13.17,-0.24 26.17,3 37.69,9.38 10.83,6.08 19.83,14.94 26.07,25.66 6.56,11.54 9.87,24.63 9.58,37.9 0.02,9.41 -2,18.71 -5.91,27.28 -3.81,8.53 -9.28,16.22 -16.1,22.62 -6.85,6.42 -14.87,11.48 -23.63,14.88 10.18,2.91 19.58,8.05 27.5,15.06 7.99,7.03 14.44,15.64 18.94,25.27 4.63,9.81 7,20.55 6.93,31.4 0.25,13.69 -3.19,27.21 -9.97,39.11 -6.5,11.27 -15.94,20.57 -27.3,26.91 -12.16,6.68 -25.85,10.05 -39.72,9.78l-161.32 -0.08zm48.48 -43.18l99.8 0c7.56,0.16 15.03,-1.75 21.59,-5.5 6.15,-3.56 11.17,-8.79 14.47,-15.08 3.36,-6.21 5.1,-13.14 5.1,-20.19 0.07,-7.08 -1.76,-14.05 -5.31,-20.18 -7.49,-13.07 -21.57,-20.98 -36.63,-20.57l-98.99 0 0 81.49 -0.03 0.03z"/>
   <path class="fil17" d="M146.65 75.98l0 -21.5c-4.69,-0.74 -9.13,-2.57 -12.97,-5.36 -3.66,-2.71 -6.56,-6.32 -8.41,-10.47 -2.03,-4.58 -3.03,-9.55 -2.94,-14.55l0 -24.07 12.92 0 0 24.96c-0.04,3.25 0.7,6.45 2.17,9.34 1.42,2.76 3.56,5.09 6.19,6.74 5.96,3.41 13.28,3.41 19.25,0 2.63,-1.64 4.75,-3.98 6.12,-6.74 1.44,-2.9 2.16,-6.1 2.12,-9.34l0 -24.96 13.03 0 0 24.07c0.08,5.01 -0.94,9.98 -2.99,14.55 -1.91,4.16 -4.81,7.77 -8.47,10.51 -3.84,2.85 -8.34,4.67 -13.07,5.32l0 21.5 -12.95 0zm-146.65 0l0 -75.98 12.91 0 0 31.59 36.68 0 0 -31.59 12.92 0 0 75.98 -12.92 0 0 -32.89 -36.68 0 0 32.89 -12.91 0zm88.68 0c-3.96,0.05 -7.87,-0.98 -11.29,-2.99 -3.28,-1.94 -5.99,-4.71 -7.88,-8.03 -1.92,-3.39 -2.91,-7.23 -2.88,-11.13 -0.01,-3.15 0.75,-6.27 2.22,-9.06 1.49,-2.86 3.63,-5.34 6.24,-7.22 -2.59,-1.86 -4.7,-4.29 -6.18,-7.11 -1.43,-2.69 -2.17,-5.69 -2.17,-8.73 -0.04,-3.85 0.96,-7.64 2.89,-10.98 1.89,-3.21 4.55,-5.91 7.76,-7.81 3.28,-1.95 7.04,-2.95 10.85,-2.89l30.59 0 0 11.55 -29.18 0c-1.76,-0.01 -3.48,0.45 -4.99,1.36 -1.5,0.88 -2.75,2.14 -3.64,3.64 -0.93,1.58 -1.39,3.38 -1.36,5.21 0,1.73 0.49,3.42 1.42,4.88 0.91,1.49 2.18,2.74 3.68,3.63 1.55,0.92 3.32,1.38 5.11,1.36l25.17 0 0 11.51 -24.52 0c-5.9,-0.17 -10.81,4.49 -10.97,10.39 0,0.15 0,0.3 0,0.46 -0.01,1.84 0.46,3.65 1.35,5.25 1.89,3.4 5.51,5.47 9.39,5.38l28.54 0 0 11.4 -30.15 -0.07z"/>
   <path class="fil0" d="M221.75 418.13l31.64 0 0 5.86 -24.69 0 0 18.59 20.92 0 0 5.85 -20.92 0 0 24.61 -6.95 0 0 -54.91zm48.3 26.04l9.21 0c4.29,0 7.59,-0.88 9.87,-2.64 2.29,-1.76 3.44,-4.42 3.44,-8 0,-3.62 -1.15,-6.16 -3.44,-7.61 -2.28,-1.45 -5.58,-2.18 -9.87,-2.18l-9.21 0 0 20.43zm23.19 28.87l-13.23 -23.18 -9.96 0 0 23.18 -6.95 0 0 -54.91 17.16 0c2.79,0 5.37,0.27 7.74,0.8 2.38,0.53 4.41,1.41 6.11,2.63 1.71,1.23 3.03,2.82 3.98,4.78 0.95,1.95 1.42,4.35 1.42,7.19 0,4.3 -1.11,7.73 -3.34,10.3 -2.24,2.57 -5.22,4.33 -8.96,5.27l13.9 23.94 -7.87 0zm18.5 -54.91l31.64 0 0 5.86 -24.7 0 0 17.25 20.85 0 0 5.94 -20.85 0 0 19.92 25.54 0 0 5.94 -32.48 0 0 -54.91zm44.28 42.94c1.95,2.07 4.25,3.73 6.9,4.99 2.66,1.25 5.4,1.88 8.25,1.88 3.63,0 6.44,-0.82 8.45,-2.47 2.01,-1.65 3.02,-3.81 3.02,-6.49 0,-1.39 -0.24,-2.58 -0.71,-3.56 -0.48,-0.97 -1.12,-1.81 -1.93,-2.51 -0.81,-0.69 -1.77,-1.32 -2.89,-1.88 -1.11,-0.56 -2.31,-1.15 -3.6,-1.76l-7.86 -3.43c-1.29,-0.56 -2.6,-1.23 -3.94,-2.01 -1.34,-0.78 -2.54,-1.73 -3.6,-2.85 -1.06,-1.11 -1.92,-2.44 -2.59,-3.97 -0.67,-1.54 -1.01,-3.31 -1.01,-5.32 0,-2.06 0.43,-3.99 1.3,-5.77 0.86,-1.79 2.06,-3.34 3.6,-4.65 1.53,-1.31 3.35,-2.33 5.44,-3.05 2.09,-0.73 4.39,-1.09 6.91,-1.09 3.29,0 6.33,0.62 9.12,1.88 2.79,1.26 5.16,2.89 7.12,4.9l-3.77 4.52c-1.68,-1.62 -3.53,-2.89 -5.57,-3.81 -2.03,-0.92 -4.34,-1.38 -6.9,-1.38 -3.07,0 -5.54,0.71 -7.41,2.13 -1.87,1.43 -2.81,3.39 -2.81,5.9 0,1.34 0.27,2.47 0.8,3.39 0.53,0.92 1.24,1.73 2.13,2.43 0.9,0.7 1.87,1.31 2.93,1.84 1.06,0.53 2.15,1.02 3.27,1.47l7.78 3.35c1.57,0.67 3.04,1.43 4.44,2.3 1.39,0.86 2.59,1.87 3.6,3.01 1,1.15 1.8,2.49 2.38,4.02 0.59,1.53 0.88,3.31 0.88,5.32 0,2.17 -0.43,4.21 -1.29,6.11 -0.87,1.89 -2.11,3.55 -3.73,4.98 -1.62,1.42 -3.57,2.54 -5.86,3.35 -2.29,0.8 -4.88,1.21 -7.78,1.21 -3.85,0 -7.43,-0.73 -10.72,-2.18 -3.29,-1.45 -6.14,-3.43 -8.54,-5.94l4.19 -4.86zm44.53 -42.94l6.95 0 0 23.02 25.53 0 0 -23.02 7.03 0 0 54.91 -7.03 0 0 -25.86 -25.53 0 0 25.86 -6.95 0 0 -54.91zm73.33 40.27c0,1.5 0.28,2.88 0.84,4.14 0.56,1.26 1.32,2.33 2.3,3.22 0.98,0.9 2.12,1.58 3.43,2.05 1.31,0.48 2.72,0.72 4.23,0.72 1.9,0 3.71,-0.4 5.44,-1.18 1.73,-0.78 3.41,-1.87 5.02,-3.26 -2.68,-2.35 -5.26,-4.91 -7.74,-7.7 -2.48,-2.79 -4.7,-5.67 -6.65,-8.63 -1.96,1.57 -3.59,3.2 -4.9,4.9 -1.31,1.7 -1.97,3.62 -1.97,5.74zm6.45 -28.38c0,1.5 0.23,3.07 0.71,4.69 0.47,1.61 1.1,3.26 1.88,4.93 1.23,-0.83 2.42,-1.68 3.56,-2.55 1.14,-0.86 2.15,-1.76 3.01,-2.68 0.87,-0.92 1.55,-1.89 2.05,-2.93 0.51,-1.03 0.76,-2.16 0.76,-3.39 0,-1.62 -0.41,-3.02 -1.22,-4.22 -0.81,-1.2 -2.13,-1.8 -3.97,-1.8 -2.07,0 -3.71,0.75 -4.94,2.26 -1.23,1.5 -1.84,3.4 -1.84,5.69zm32.06 44.03c-1.96,-0.56 -3.99,-1.35 -6.11,-2.39 -2.12,-1.03 -4.3,-2.33 -6.53,-3.89 -2.12,1.9 -4.48,3.42 -7.08,4.56 -2.59,1.15 -5.51,1.72 -8.74,1.72 -2.52,0 -4.79,-0.38 -6.83,-1.13 -2.03,-0.75 -3.79,-1.8 -5.27,-3.14 -1.48,-1.34 -2.62,-2.94 -3.43,-4.81 -0.81,-1.87 -1.22,-3.92 -1.22,-6.16 0,-1.84 0.3,-3.51 0.88,-5.02 0.59,-1.5 1.38,-2.9 2.39,-4.18 1,-1.29 2.16,-2.47 3.47,-3.56 1.31,-1.09 2.67,-2.11 4.06,-3.06 -1.11,-2.28 -1.99,-4.5 -2.63,-6.65 -0.65,-2.15 -0.97,-4.23 -0.97,-6.24 0,-1.84 0.31,-3.54 0.92,-5.1 0.62,-1.57 1.48,-2.93 2.6,-4.11 1.11,-1.17 2.45,-2.09 4.02,-2.76 1.56,-0.67 3.29,-1 5.19,-1 3.4,0 6.05,1 7.95,3.01 1.9,2.01 2.85,4.63 2.85,7.87 0,1.79 -0.37,3.43 -1.09,4.94 -0.73,1.51 -1.68,2.91 -2.85,4.23 -1.17,1.31 -2.5,2.53 -3.97,3.68 -1.48,1.14 -2.98,2.27 -4.48,3.39 1.78,2.84 3.89,5.58 6.32,8.2 2.42,2.63 4.95,5.03 7.57,7.2 1.68,-2.29 3.17,-4.77 4.48,-7.45 1.31,-2.68 2.39,-5.61 3.22,-8.79l6.45 0c-1.12,3.63 -2.46,7.09 -4.02,10.38 -1.56,3.29 -3.43,6.39 -5.61,9.29 1.9,1.29 3.71,2.38 5.44,3.27 1.73,0.89 3.35,1.56 4.86,2.01l-1.84 5.69zm27.54 -55.92l16.82 0c3.02,0 5.78,0.28 8.29,0.84 2.51,0.56 4.65,1.46 6.4,2.72 1.76,1.26 3.13,2.92 4.11,4.98 0.97,2.06 1.46,4.6 1.46,7.62 0,2.9 -0.49,5.41 -1.46,7.53 -0.98,2.12 -2.36,3.88 -4.15,5.27 -1.78,1.4 -3.92,2.45 -6.4,3.14 -2.49,0.7 -5.23,1.05 -8.25,1.05l-9.87 0 0 21.76 -6.95 0 0 -54.91zm15.99 27.46c4.8,0 8.35,-0.91 10.67,-2.72 2.32,-1.82 3.47,-4.68 3.47,-8.58 0,-3.96 -1.17,-6.71 -3.51,-8.25 -2.35,-1.53 -5.89,-2.3 -10.63,-2.3l-9.04 0 0 21.85 9.04 0zm31.97 -27.46l6.95 0 0 32.4c0,3.29 0.34,6.05 1,8.28 0.67,2.24 1.58,4.02 2.73,5.36 1.14,1.34 2.49,2.3 4.06,2.89 1.56,0.59 3.23,0.88 5.02,0.88 1.84,0 3.54,-0.29 5.1,-0.88 1.57,-0.59 2.93,-1.55 4.11,-2.89 1.17,-1.34 2.09,-3.12 2.76,-5.36 0.67,-2.23 1,-4.99 1,-8.28l0 -32.4 6.7 0 0 32.23c0,4.41 -0.5,8.12 -1.51,11.13 -1,3.02 -2.38,5.46 -4.14,7.33 -1.76,1.87 -3.84,3.21 -6.24,4.02 -2.4,0.8 -4.99,1.21 -7.78,1.21 -2.79,0 -5.4,-0.41 -7.83,-1.21 -2.43,-0.81 -4.52,-2.15 -6.28,-4.02 -1.76,-1.87 -3.14,-4.31 -4.14,-7.33 -1.01,-3.01 -1.51,-6.72 -1.51,-11.13l0 -32.23zm61.2 26.04l9.2 0c4.3,0 7.59,-0.88 9.88,-2.64 2.29,-1.76 3.43,-4.42 3.43,-8 0,-3.62 -1.14,-6.16 -3.43,-7.61 -2.29,-1.45 -5.58,-2.18 -9.88,-2.18l-9.2 0 0 20.43zm23.18 28.87l-13.22 -23.18 -9.96 0 0 23.18 -6.95 0 0 -54.91 17.16 0c2.79,0 5.37,0.27 7.74,0.8 2.37,0.53 4.41,1.41 6.11,2.63 1.7,1.23 3.03,2.82 3.98,4.78 0.95,1.95 1.42,4.35 1.42,7.19 0,4.3 -1.12,7.73 -3.35,10.3 -2.23,2.57 -5.22,4.33 -8.95,5.27l13.89 23.94 -7.87 0zm18.5 -54.91l31.64 0 0 5.86 -24.69 0 0 17.25 20.84 0 0 5.94 -20.84 0 0 19.92 25.53 0 0 5.94 -32.48 0 0 -54.91z"/>
  </g>
  <path class="fil16" d="M623.27 51c3.21,-0.64 6.51,-0.64 9.72,0 1.12,-6.07 3.6,-11.81 7.25,-16.79 0.34,-0.48 0.3,-1.14 -0.11,-1.57 -0.11,-0.1 -0.34,-0.36 -0.91,0.21 -2.51,3.04 -4.47,6.51 -5.75,10.25 -0.43,1.04 -1.53,1.65 -2.64,1.45 -1.12,-0.2 -1.94,-1.17 -1.93,-2.31l0 -18.61c0,-0.42 -0.35,-0.77 -0.78,-0.77 -0.42,0 -0.77,0.35 -0.77,0.77l0 18.61c0,0.96 -0.59,1.82 -1.48,2.18 -1.22,0.48 -2.6,-0.11 -3.09,-1.32 -1.42,-3.67 -3.36,-7.12 -5.76,-10.25 -0.15,-0.2 -0.56,-0.56 -0.87,-0.21 -0.41,0.44 -0.45,1.1 -0.1,1.57 3.64,4.98 6.11,10.72 7.22,16.79z"/>
  <path class="fil18" d="M628.14 55.24c-2.08,-0.05 -4.15,0.3 -6.1,1.03 -3.12,1.16 -5.06,3.07 -5.06,4.9 0.02,0.34 0.1,2.49 0.29,5.9l8.84 0c1.3,0 2.36,1.06 2.36,2.37 0,1.3 -1.06,2.36 -2.36,2.36l-8.56 0c0.37,5.6 0.94,12.93 1.82,20.81l6.73 0c0.09,-0.01 0.17,-0.01 0.27,0 1.3,0.08 2.29,1.2 2.22,2.49 -0.08,1.31 -1.19,2.3 -2.49,2.23l-6.2 0c0.98,10.47 2.94,20.82 5.86,30.9l4.84 0c1.76,-5.93 3.07,-11.99 3.94,-18.13l-4.38 0c-1.31,0 -2.36,-1.06 -2.36,-2.36 0,-1.3 1.05,-2.37 2.36,-2.37l5.13 0c1.06,-7.14 1.85,-14.33 2.44,-20.81l-7.57 0c-0.09,0.01 -0.18,0.01 -0.27,0 -1.3,-0.07 -2.3,-1.19 -2.23,-2.49 0.08,-1.31 1.19,-2.3 2.5,-2.23l7.95 0 0.02 0.02c0.86,-10.41 1.18,-18.01 1.18,-18.69 -0.02,-1.81 -1.94,-3.75 -5.05,-4.9 -1.98,-0.64 -4.04,-1 -6.12,-1.03z"/>
 </g>
</svg>
