<svg xmlns="http://www.w3.org/2000/svg" width="25.029" height="25.03" viewBox="0 0 25.029 25.03">
  <g id="money_1_" data-name="money" transform="translate(-0.007)">
    <g id="Group_26593" data-name="Group 26593" transform="translate(3.331 22.096)">
      <g id="Group_26592" data-name="Group 26592">
        <path id="Path_28006" data-name="Path 28006" d="M68.837,452.144a.488.488,0,1,0,.143.346A.492.492,0,0,0,68.837,452.144Z" transform="translate(-68.003 -452.001)" fill="#59b828"/>
      </g>
    </g>
    <g id="Group_26595" data-name="Group 26595" transform="translate(22.125 8.8)">
      <g id="Group_26594" data-name="Group 26594">
        <path id="Path_28007" data-name="Path 28007" d="M453.288,180.151a.487.487,0,1,0,.144.346A.491.491,0,0,0,453.288,180.151Z" transform="translate(-452.454 -180.008)" fill="#59b828"/>
      </g>
    </g>
    <g id="Group_26597" data-name="Group 26597" transform="translate(0.007)">
      <g id="Group_26596" data-name="Group 26596">
        <path id="Path_28008" data-name="Path 28008" d="M24.893.143A.489.489,0,0,0,24.547,0H12.521a.489.489,0,0,0-.489.489v1.4L7.4,3.129a.489.489,0,0,0-.346.6l2.4,8.963L7.377,14.768a1.466,1.466,0,0,0-1.211-.64H1.474A1.468,1.468,0,0,0,.007,15.595v7.968a1.468,1.468,0,0,0,1.467,1.467H6.166A1.469,1.469,0,0,0,7.59,23.916l.581.507a2.463,2.463,0,0,0,1.619.607H24.547a.489.489,0,0,0,.489-.489V.489A.489.489,0,0,0,24.893.143ZM6.655,23.563a.489.489,0,0,1-.489.489H1.473a.489.489,0,0,1-.489-.489V15.595a.489.489,0,0,1,.489-.489H3.331v5.631a.489.489,0,1,0,.978,0V15.106H6.166a.489.489,0,0,1,.489.489v7.968ZM8.124,3.947,12.032,2.9V4.711L11.7,4.8a.489.489,0,0,0-.346.6,1.318,1.318,0,0,1-.931,1.612.489.489,0,0,0-.345.6l1.906,7.056h-.981L10.5,12.687a.488.488,0,0,0-.082-.171Zm3.909,3.006v4.125l-.892-3.3A2.29,2.29,0,0,0,12.032,6.953Zm7.023,17.1H9.79a1.486,1.486,0,0,1-.976-.366l-1.181-1.03V15.9l2.134-2.134.387,1.514a.489.489,0,0,0,.474.368h9.611a.684.684,0,0,1,0,1.369H15.314a.489.489,0,0,0,0,.978h6.455a.684.684,0,1,1,0,1.369H15.314a.489.489,0,1,0,0,.978h5.409a.684.684,0,1,1,0,1.369H15.314a.489.489,0,0,0,0,.978h3.741a.684.684,0,1,1,0,1.369Zm5,0H20.57a1.656,1.656,0,0,0,0-1.369h.153a1.661,1.661,0,0,0,1.486-2.406,1.661,1.661,0,0,0,.894-2.593v-6.2a.489.489,0,1,0-.978,0v5.563a1.662,1.662,0,0,0-.356-.039h-.016a1.661,1.661,0,0,0-1.514-2.346h-.786a2.34,2.34,0,1,0-1.838,0H14.943v-9.3A2.3,2.3,0,0,0,16.7,3.618h3.677a2.3,2.3,0,0,0,1.753,1.753v1.52a.489.489,0,0,0,.978,0V4.934a.489.489,0,0,0-.489-.489A1.318,1.318,0,0,1,21.3,3.129a.489.489,0,0,0-.489-.489h-4.55a.489.489,0,0,0-.489.489,1.318,1.318,0,0,1-1.316,1.316.489.489,0,0,0-.489.489v9.732H13.01V.978H24.058ZM18.534,13.877A1.362,1.362,0,1,1,19.9,12.515,1.363,1.363,0,0,1,18.534,13.877Z" transform="translate(-0.007)" fill="#59b828"/>
      </g>
    </g>
  </g>
</svg>
