<svg xmlns="http://www.w3.org/2000/svg" width="19.959" height="19.959" viewBox="0 0 19.959 19.959">
  <g id="cancel" transform="translate(0 -0.001)">
    <path id="Path_27987" data-name="Path 27987" d="M19.955,4.923a.624.624,0,0,0-.356-.5L10.243.059a.624.624,0,0,0-.528,0L.36,4.425a.624.624,0,0,0-.356.5s0,.064,0,.067v10.6a.624.624,0,0,0,.392.579l9.356,3.742a.624.624,0,0,0,.463,0L12.746,18.9a4.364,4.364,0,0,0,7.213-3.308V4.99S19.955,4.927,19.955,4.923ZM9.979,1.313l7.786,3.634-3,1.2L6.835,2.78Zm-.624,17.1L1.247,15.171V5.912L9.356,9.155ZM9.979,8.061,2.193,4.946,5.314,3.49,13.124,6.8Zm5.613,10.651a3.119,3.119,0,1,1,3.119-3.119A3.122,3.122,0,0,1,15.593,18.712Zm0-7.485a4.364,4.364,0,0,0-3.7,6.673l-1.285.514V9.155l8.108-3.243v6.63A4.353,4.353,0,0,0,15.593,11.227Z" transform="translate(0 0)" fill="#ef3636"/>
    <path id="Path_27988" data-name="Path 27988" d="M362.441,361.558l.495-.495a.624.624,0,0,0-.882-.882l-.495.495-.495-.495a.624.624,0,1,0-.882.882l.495.495-.495.495a.624.624,0,0,0,.882.882l.495-.495.495.495a.624.624,0,0,0,.882-.882Z" transform="translate(-345.966 -345.965)" fill="#ef3636"/>
  </g>
</svg>
