<?xml version="1.0" encoding="UTF-8"?>
<!DOCTYPE svg PUBLIC "-//W3C//DTD SVG 1.1//EN" "http://www.w3.org/Graphics/SVG/1.1/DTD/svg11.dtd">
<!-- Creator: CorelDRAW 2018 (64-Bit Evaluation Version) -->
<svg xmlns="http://www.w3.org/2000/svg" xml:space="preserve" width="7.4928mm" height="7.3596mm" version="1.1" style="shape-rendering:geometricPrecision; text-rendering:geometricPrecision; image-rendering:optimizeQuality; fill-rule:evenodd; clip-rule:evenodd"
viewBox="0 0 4690.23 4606.85"
 xmlns:xlink="http://www.w3.org/1999/xlink">
 <defs>
  <style type="text/css">
   <![CDATA[
    .fil0 {fill:#4B566B;fill-rule:nonzero}
   ]]>
  </style>
 </defs>
 <g id="Layer_x0020_1">
  <metadata id="CorelCorpID_0Corel-Layer"/>
  <path class="fil0" d="M2620.73 1411.43c-20.78,0 -39.62,8.45 -53.21,21.91 -13.46,13.58 -21.91,32.42 -21.91,53.21l0 929.81c0,20.66 8.45,39.5 22.03,53.08 13.46,13.58 32.3,22.03 53.08,22.03l964.3 0c20.66,0 39.5,-8.45 53.08,-22.03 13.58,-13.58 22.03,-32.42 22.03,-53.08l0 -929.81c0,-20.78 -8.45,-39.62 -21.91,-53.21 -13.71,-13.46 -32.55,-21.91 -53.21,-21.91l-964.3 0zm170.33 466.28l154.68 154.68 457.83 -457.83c24.66,-24.29 64.22,-24.16 88.51,0.25l66.29 66.1c24.41,24.41 24.41,64.1 0,88.51l-568.38 568.38c-24.66,24.29 -64.22,24.16 -88.51,-0.25l-265.22 -265.03c-24.41,-24.41 -24.41,-64.1 0,-88.51l66.29 -66.29c24.41,-24.41 64.1,-24.41 88.51,0zm1262.95 -1591.77l-703.27 0 0.19 547.03c0,22.79 -6.32,45.26 -17.71,64.85 -11.08,19.34 -27.48,35.87 -47.7,47.39 -19.78,11.46 -42.5,17.15 -65.1,16.96 -22.53,-0.13 -45.07,-6.26 -64.72,-17.84l-221.78 -131.64 -313.98 176.65 0 -39.69c-13.71,-3.26 -27.04,-8.83 -39.37,-16.71l-180.22 -114.74 -232.42 131.33c-19.22,12.83 -41.06,20.22 -63.16,21.66 -23.35,1.56 -47.07,-3.13 -68.36,-14.21 -21.16,-10.95 -38.75,-27.73 -50.89,-47.64 -12.14,-20.28 -19.03,-43.44 -19.03,-67.35l0 -556.04 -703.33 0 0 2010.16 -285.88 -52.89 0 -2100.24c0,-39.5 16.09,-75.3 41.88,-101.09 25.79,-25.79 61.59,-41.88 101.03,-41.88l3076.81 0c39.44,0 75.24,16.09 101.03,41.88 25.79,25.79 41.88,61.59 41.88,101.09l0 2722.2 -285.88 -52.89 0 -2526.33zm-962.11 0l-866.65 0 0.19 334.64 115.24 -65.16c20.84,-11.77 44.01,-17.21 66.6,-16.65 22.91,0.56 46.13,7.51 66.04,20.16l180.09 114.61 218.84 -123c20.72,-11.58 44.01,-17.03 67.23,-16.34 22.35,0.63 44.51,7.26 63.85,19.22l88.57 52.39 0 -319.87zm295.39 2984.29l752.79 -258.77c95.4,-33.99 196.11,-32.36 284.31,-1.38 89.83,31.49 167.13,93.52 213.45,179.28 28.36,50.64 45.57,106.35 50.7,163.13 5.2,56.96 -1.63,115.18 -20.78,170.58 -19.28,55.77 -50.01,105.91 -89.33,147.41 -39.5,41.63 -87.89,75.12 -142.16,97.27l-1662.31 732c-179.09,81.25 -372.7,115.99 -563.56,105.1 -191.11,-10.89 -379.77,-67.6 -548.72,-169.01l-466.41 -279.68c-29.61,-17.78 -68.79,-33.3 -111.55,-45.95 -35.68,-10.58 -73.8,-19.15 -111.23,-25.48 -24.91,43.32 -59.09,79.94 -99.22,107.48 -53.9,36.68 -118.68,57.84 -186.6,57.9l-534.95 0.13c-41.81,-0.06 -79.87,-17.03 -107.17,-44.38 -27.61,-27.35 -44.57,-65.35 -44.57,-107.1l0 -1604.91c0,-41.81 16.96,-79.81 44.44,-107.29 27.48,-27.48 65.48,-44.44 107.29,-44.44l534.95 0c69.73,0 135.83,22.16 190.23,60.59 42.5,30.3 77.93,70.42 102.53,117.68l591.35 0c58.59,0 117.18,7.76 174.08,22.66 56.71,14.9 111.48,37.06 162.5,65.73l471.04 264.97 6.01 2.38 7.26 1 577.33 0c62.35,0.13 123,13.77 177.59,39.19 55.15,25.98 104.72,63.66 144.22,110.98 39.81,47.57 68.1,103.1 83.5,161.75 6.95,26.48 11.33,53.71 12.96,81.19zm-2681.88 668.97c5.01,-4.82 8.14,-11.58 8.14,-18.72l-0.06 -1248.3c-0.25,-7.2 -3.26,-13.96 -8.07,-18.78 -4.57,-4.82 -11.27,-7.76 -18.72,-7.76l-383.15 0 0 1301.19 383.22 0c7.2,0 13.9,-3 18.65,-7.64zm3613.45 -450.95l2.69 -1.06c14.33,-5.88 27.04,-14.65 36.93,-25.23 10.27,-11.2 18.34,-24.35 23.1,-38.62 4.82,-14.4 6.38,-29.8 4.82,-44.82 -1.56,-14.84 -6.38,-29.55 -14.08,-42.44l-1.5 -2.44c-9.7,-18.03 -28.11,-31.36 -49.95,-38.31 -24.29,-7.7 -52.71,-7.64 -79.37,2l-1081.54 371.82c-28.86,14.84 -59.03,26.29 -89.51,33.86 -32.8,8.07 -66.92,12.27 -101.41,12.33l-906.33 0.25c-41.81,0 -79.81,-16.96 -107.29,-44.44 -27.29,-27.67 -44.44,-65.6 -44.44,-107.29 0,-41.63 17.09,-79.56 44.44,-107.04 27.73,-27.61 65.66,-44.69 107.29,-44.69l906.21 0c32.05,0 61.09,-12.89 82,-33.74 20.84,-20.91 33.74,-49.95 33.74,-82 0.25,-31.74 -12.83,-60.78 -33.86,-81.81 -20.84,-20.84 -49.83,-33.86 -81.75,-33.86l-577.45 0c-28.36,-0.31 -56.52,-3.94 -83.44,-10.95 -27.17,-7.07 -53.39,-17.71 -78.06,-31.49l-471.35 -265.03c-28.79,-16.15 -59.47,-28.54 -90.89,-36.81 -31.05,-8.07 -63.72,-12.33 -97.09,-12.33l-554.1 0 0 960.54c52.02,8.64 106.35,20.84 159,36.87 63.54,19.28 124.38,44.26 175.4,74.87l466.28 279.68c126.26,75.8 267.41,118.24 410.26,126.26 142.97,8.14 287.94,-17.97 421.78,-78.87 198.49,-132.33 1385.57,-625.28 1669.51,-735.2zm-3917.66 -744.96c27.54,-27.48 65.54,-44.51 107.23,-44.51 41.81,0 79.81,16.96 107.29,44.44 27.48,27.48 44.44,65.41 44.44,107.35 0,41.69 -17.15,79.62 -44.44,107.04 -27.67,27.54 -65.6,44.69 -107.29,44.69 -41.63,0 -79.56,-17.09 -107.04,-44.44 -27.73,-27.48 -44.69,-65.48 -44.69,-107.29 0,-41.94 16.96,-79.87 44.51,-107.29zm2219.55 -1594.83l964.3 0c93.14,0 177.65,37.93 238.81,99.03 61.34,61.41 99.28,145.91 99.28,239.06l0 929.81c0,93.14 -37.93,177.65 -99.03,238.81 -61.41,61.34 -145.91,99.28 -239.06,99.28l-964.3 0c-93.14,0 -177.65,-37.93 -238.81,-99.03 -61.34,-61.41 -99.28,-145.91 -99.28,-239.06l0 -929.81c0,-93.14 37.93,-177.65 99.03,-238.81 61.41,-61.34 145.91,-99.28 239.06,-99.28z"/>
 </g>
</svg>
