<svg id="address" xmlns="http://www.w3.org/2000/svg" width="14.642" height="14.642" viewBox="0 0 14.642 14.642">
  <path id="Path_84" data-name="Path 84" d="M306.3,260a.3.3,0,1,0,.3.3A.3.3,0,0,0,306.3,260Zm0,0" transform="translate(-297.264 -252.577)" fill="#59b828"/>
  <path id="Path_85" data-name="Path 85" d="M2.922,10.575l-2.86,3.6a.286.286,0,0,0,.224.464h14.07a.286.286,0,0,0,.224-.464l-2.86-3.6a.286.286,0,0,0-.224-.108H8.992l2.139-3.354a4.576,4.576,0,1,0-7.618,0l2.139,3.354H3.146a.286.286,0,0,0-.224.108ZM1.855,12.84H3.584l-.976,1.23H.879Zm4.162-1.8.784,1.23H4.768l.976-1.23Zm2.611,0H8.9l.976,1.23H7.843Zm1.7,1.8.976,1.23H3.338l.976-1.23Zm1.706,1.23-.976-1.23h1.729l.976,1.23Zm.3-1.8H10.606l-.976-1.23h1.729ZM3.99,6.8a4,4,0,1,1,6.663,0l0,.005-3.328,5.22L3.994,6.8l0-.005Zm1.024,4.241-.976,1.23H2.309l.976-1.23Zm0,0" transform="translate(-0.001 0)" fill="#59b828"/>
  <path id="Path_86" data-name="Path 86" d="M158.981,65.963A2.981,2.981,0,1,0,156,62.981,2.982,2.982,0,0,0,158.981,65.963Zm0-5.366a2.385,2.385,0,1,1-2.385,2.385A2.388,2.388,0,0,1,158.981,60.6Zm0,0" transform="translate(-151.66 -58.211)" fill="#59b828"/>
  <path id="Path_87" data-name="Path 87" d="M247.55,292.731a.3.3,0,0,0-.409.1l-1.1,1.828a.3.3,0,0,0,.511.308l1.1-1.828A.3.3,0,0,0,247.55,292.731Zm0,0" transform="translate(-238.999 -284.384)" fill="#59b828"/>
</svg>
