<?xml version="1.0" encoding="UTF-8"?>
<!DOCTYPE svg PUBLIC "-//W3C//DTD SVG 1.1//EN" "http://www.w3.org/Graphics/SVG/1.1/DTD/svg11.dtd">
<!-- Creator: CorelDRAW 2018 (64-Bit Evaluation Version) -->
<svg xmlns="http://www.w3.org/2000/svg" xml:space="preserve" width="7.0556mm" height="7.0555mm" version="1.1" style="shape-rendering:geometricPrecision; text-rendering:geometricPrecision; image-rendering:optimizeQuality; fill-rule:evenodd; clip-rule:evenodd"
viewBox="0 0 88.77 88.77"
 xmlns:xlink="http://www.w3.org/1999/xlink">
 <defs>
  <style type="text/css">
   <![CDATA[
    .fil0 {fill:#4B566B;fill-rule:nonzero}
   ]]>
  </style>
 </defs>
 <g id="Layer_x0020_1">
  <metadata id="CorelCorpID_0Corel-Layer"/>
  <path class="fil0" d="M17.76 53.26l0 -22.19c0,-1.22 0.43,-2.27 1.3,-3.14 0.42,-0.42 0.9,-0.74 1.45,-0.97 0.54,-0.22 1.1,-0.34 1.69,-0.34l25.06 0 0 -8.68 -41.34 0 0 49.28 41.34 0 0 -9.53 -25.06 0c-0.59,0 -1.15,-0.11 -1.69,-0.34 -0.55,-0.22 -1.03,-0.55 -1.45,-0.97 -0.42,-0.42 -0.74,-0.9 -0.96,-1.45 -0.22,-0.54 -0.34,-1.1 -0.34,-1.69zm-11.76 -41.23l41.34 0 0 -2.86c0,-1.8 -1.46,-3.26 -3.26,-3.26l-34.83 0c-1.8,0 -3.26,1.46 -3.26,3.26l0 2.86zm41.34 61.11l-41.34 0 0 6.45c0,1.8 1.46,3.26 3.26,3.26l34.82 0c1.8,0 3.26,-1.46 3.26,-3.26l0 -6.45zm-18.45 1.79c0.61,0.61 0.92,1.35 0.92,2.22 0,0.87 -0.31,1.6 -0.92,2.22 -0.61,0.61 -1.35,0.92 -2.22,0.92 -0.87,0 -1.6,-0.31 -2.22,-0.92 -0.61,-0.61 -0.92,-1.35 -0.92,-2.22 0,-0.87 0.31,-1.6 0.92,-2.22 0.61,-0.61 1.35,-0.92 2.22,-0.92 0.87,0 1.61,0.31 2.22,0.92zm24.3 -48.31l31.16 0c0.59,0 1.15,0.11 1.69,0.34 0.53,0.22 1.01,0.54 1.44,0.97 0.43,0.42 0.75,0.9 0.97,1.44 0.22,0.55 0.34,1.11 0.34,1.7l0 22.19c0,0.59 -0.11,1.15 -0.34,1.69 -0.23,0.55 -0.55,1.03 -0.97,1.45 -0.44,0.43 -0.91,0.75 -1.43,0.97l-0.02 0c-0.54,0.22 -1.11,0.34 -1.69,0.34l-31.16 0 0 21.89c0,5.06 -4.12,9.17 -9.17,9.17l-34.83 0c-5.06,0 -9.17,-4.12 -9.17,-9.17l0 -70.42c0,-5.06 4.12,-9.17 9.17,-9.17l34.82 0c5.06,0 9.17,4.12 9.18,9.17l0 17.46zm-15.69 22.03l-1.95 0 0.04 -4.81 -4.18 2.45 -0.98 -1.86 4.18 -2.4 -4.18 -2.3 0.98 -1.91 4.18 2.45 -0.04 -4.77 1.95 0 0 4.77 4.12 -2.41 0.98 1.86 -4.2 2.3 4.2 2.4 -0.98 1.86 -4.16 -2.45 0.04 4.81zm16.76 0l-1.95 0 0.04 -4.81 -4.18 2.45 -0.98 -1.86 4.18 -2.4 -4.18 -2.3 0.98 -1.91 4.18 2.45 -0.04 -4.77 1.95 0 0 4.77 4.12 -2.41 0.98 1.86 -4.2 2.3 4.2 2.4 -0.98 1.86 -4.16 -2.45 0.04 4.81zm16.76 0l-1.95 0 0.04 -4.81 -4.18 2.45 -0.98 -1.86 4.18 -2.4 -4.18 -2.3 0.98 -1.91 4.18 2.45 -0.04 -4.77 1.95 0 0 4.77 4.12 -2.41 0.98 1.86 -4.2 2.3 4.2 2.4 -0.98 1.86 -4.16 -2.45 0.04 4.81zm-48.82 -17.59l0 22.19 62.14 0 0 -22.19 -62.14 0z"/>
 </g>
</svg>
