<svg xmlns="http://www.w3.org/2000/svg" width="19.934" height="20.199" viewBox="0 0 19.934 20.199">
  <g id="Packing_inprogress" data-name="Packing inprogress" transform="translate(0.105 0.1)">
    <path id="Path_22429" data-name="Path 22429" d="M265.64,683.264a.276.276,0,0,1,.279-.476l6.2,3.633,6.2-3.633a.276.276,0,0,1,.279.476l-6.337,3.712a.276.276,0,0,1-.283,0l-6.341-3.714Z" transform="translate(-262.29 -674.472)" fill="#f68501" stroke="#f68501" stroke-width="0.2"/>
    <path id="Path_22430" data-name="Path 22430" d="M788.994,996.746a.277.277,0,0,1-.554,0v-7.429a.277.277,0,0,1,.554,0Z" transform="translate(-778.885 -977.049)" fill="#f68501" stroke="#f68501" stroke-width="0.2"/>
    <path id="Path_22431" data-name="Path 22431" d="M8.985,682.795a.276.276,0,0,1,.29.47l-2.763,1.7,5.7,3.393,3.121-1.854a.276.276,0,0,1,.281.476l-3.26,1.937h0a.275.275,0,0,1-.281,0l-6.218-3.7a.276.276,0,0,1-.017-.479l3.15-1.941Z" transform="translate(-5.639 -674.476)" fill="#f68501" stroke="#f68501" stroke-width="0.2"/>
    <path id="Path_22432" data-name="Path 22432" d="M797.421,684.817a.276.276,0,1,1,.29-.469l3.15,1.941a.276.276,0,0,1-.017.479l-6.218,3.7a.276.276,0,0,1-.281,0h0l-3.261-1.937a.276.276,0,1,1,.281-.476l3.121,1.854,5.7-3.393-2.763-1.7Z" transform="translate(-781.363 -676.01)" fill="#f68501" stroke="#f68501" stroke-width="0.2"/>
    <path id="Path_22433" data-name="Path 22433" d="M3.632,296.033a.276.276,0,1,1-.283.474L.13,294.585a.276.276,0,0,1,0-.476h0l4.846-2.824a.276.276,0,1,1,.277.478L.815,294.351Z" transform="translate(0 -287.716)" fill="#f68501" stroke="#f68501" stroke-width="0.2"/>
    <path id="Path_22434" data-name="Path 22434" d="M996.234,219.3a.276.276,0,0,1-.29-.469l.941-.581a.276.276,0,0,1,.287,0h0l6.147,3.711a.277.277,0,0,1-.02.485l-3.244,1.912a.276.276,0,0,1-.279-.476l2.861-1.686-5.607-3.384Z" transform="translate(-983.745 -215.559)" fill="#f68501" stroke="#f68501" stroke-width="0.2"/>
    <path id="Path_22439" data-name="Path 22439" d="M1088.79,1221.037a.277.277,0,1,1,.554,0v1.025a.277.277,0,0,1-.554,0Z" transform="translate(-1075.594 -1205.96)" fill="#f68501" stroke="#f68501" stroke-width="0.2"/>
    <path id="Path_22440" data-name="Path 22440" d="M1198.42,1166.217a.277.277,0,1,1,.554,0v1.052a.277.277,0,1,1-.554,0Z" transform="translate(-1183.895 -1151.804)" fill="#f68501" stroke="#f68501" stroke-width="0.2"/>
    <path id="Path_22441" data-name="Path 22441" d="M274.305,471.6l4.214,2.468a.276.276,0,0,1,.136.235h-.828l-3.906-2.275.112-.474.134,0a.274.274,0,0,1,.138.041Zm4.351,6.506v3.629a.277.277,0,0,1-.159.25l-6.32,3.7a.276.276,0,0,1-.283,0l-6.337-3.712a.276.276,0,0,1-.136-.238h0V478.11h.554v3.471l6.064,3.552,6.064-3.552V478.11h.554Zm-13.236-3.8a.277.277,0,0,1,.159-.248l4.389-2.571a.274.274,0,0,1,.147-.038l.135.006.08.552-.151,0-3.932,2.3h-.827Z" transform="translate(-262.207 -465.734)" fill="#f68501" stroke="#f68501" stroke-width="0.2"/>
    <path id="Path_22435" data-name="Path 22435" d="M151.517,109.044a.277.277,0,1,1,0-.554h2.894a.277.277,0,1,1,0,.554Z" transform="translate(-149.411 -107.175)" fill="#f68501" stroke="#f68501" stroke-width="0.2"/>
    <path id="Path_22436" data-name="Path 22436" d="M37.327.554a.277.277,0,1,1,0-.554h1.025a.277.277,0,0,1,0,.554Z" transform="translate(-36.605 0)" fill="#f68501" stroke="#f68501" stroke-width="0.2"/>
    <path id="Path_22437" data-name="Path 22437" d="M259.227,219.244a.277.277,0,1,1,0-.554h1.025a.277.277,0,0,1,0,.554Z" transform="translate(-255.815 -216.039)" fill="#f68501" stroke="#f68501" stroke-width="0.2"/>
    <path id="Path_22438" data-name="Path 22438" d="M196.057.554a.277.277,0,1,1,0-.554h4.486q.122,0,.246.01a3.822,3.822,0,0,1,2.736,1.742,5.727,5.727,0,0,1,1.046,3.184c0,.018,0,.036,0,.054l.972.009a.276.276,0,0,1,.227.429h0L203.444,8.9a.276.276,0,0,1-.457,0h0l-2.312-3.378a.276.276,0,0,1,.242-.432l1.067-.01-.013-.762a1.09,1.09,0,0,0-.3-.758,1.369,1.369,0,0,0-.818-.385,8.125,8.125,0,0,0-1.377-.018c-.249.011-.5.021-.721.021a.277.277,0,0,1,0-.554c.251,0,.475-.01.7-.019a8.507,8.507,0,0,1,1.468.023,1.921,1.921,0,0,1,1.147.55,1.632,1.632,0,0,1,.451,1.132l.018,1.042a.276.276,0,0,1-.274.278l-.843.008,1.79,2.615,1.815-2.711-.727-.007a.271.271,0,0,1-.041,0,.277.277,0,0,1-.254-.3q.012-.148.012-.305a5.157,5.157,0,0,0-.944-2.866A3.281,3.281,0,0,0,200.746.562q-.1-.008-.2-.008h-4.486Z" transform="translate(-193.411 0)" fill="#f68501" stroke="#f68501" stroke-width="0.2"/>
  </g>
</svg>
