<svg xmlns="http://www.w3.org/2000/svg" width="35.75" height="20.259" viewBox="0 0 35.75 20.259">
  <g id="pay" transform="translate(0 0)">
    <path id="Path_28005" data-name="Path 28005" d="M24.575,4.766l-3.2-3.2A5.325,5.325,0,0,0,17.587,0H10.1A3,3,0,0,0,8.763.314L7.428.982a1.766,1.766,0,0,1-.864.187l-.605-.021V0H0V13.108H5.958V11.321H6.971l.36.238a6.569,6.569,0,0,0,3.393,1.092v7.607H35.75V4.766ZM4.767,11.916H1.192V1.191H4.767Zm3.225-1.349-.663-.438H5.958V2.34l.562.02a2.991,2.991,0,0,0,1.441-.312L9.3,1.38a1.791,1.791,0,0,1,.8-.189h7.491a4.143,4.143,0,0,1,2.949,1.221L22.89,4.766H17.973L16.527,3.32l-.842.842,4.209,4.209a1.195,1.195,0,1,1-1.686,1.693L14.692,6.55l-.417.358a3.158,3.158,0,0,1-4.016.059l-.345-.28-.751.926.349.283a4.343,4.343,0,0,0,1.214.684v2.879a5.373,5.373,0,0,1-2.734-.891Zm8.476-.558.9.9a2.4,2.4,0,0,0,3.366,0,3.016,3.016,0,1,0,.339-.432,2.343,2.343,0,0,0,.2-2.138h7.979a3.585,3.585,0,0,0,2.93,2.93v2.482a3.585,3.585,0,0,0-2.93,2.93H17.23a3.585,3.585,0,0,0-2.93-2.93V11.271a3.557,3.557,0,0,0,2.167-1.262Zm4.983,2.5A1.788,1.788,0,1,1,23.238,14.3,1.788,1.788,0,0,1,21.45,12.512Zm13.108,6.554H11.917V8.829A4.333,4.333,0,0,0,14.6,8.144l1.017,1.017a2.378,2.378,0,0,1-1.91.968h-.6V14.9h.6a2.383,2.383,0,0,1,2.383,2.383v.6h14.3v-.6A2.383,2.383,0,0,1,32.771,14.9h.6V10.129h-.6a2.383,2.383,0,0,1-2.383-2.383v-.6H20.356L19.164,5.958H34.559Zm0,0" transform="translate(0 0)" fill="#59b828"/>
  </g>
</svg>
