<?xml version="1.0" encoding="UTF-8"?>
<!DOCTYPE svg PUBLIC "-//W3C//DTD SVG 1.1//EN" "http://www.w3.org/Graphics/SVG/1.1/DTD/svg11.dtd">
<!-- Creator: CorelDRAW 2018 (64-Bit Evaluation Version) -->
<svg xmlns="http://www.w3.org/2000/svg" xml:space="preserve" width="4.2263mm" height="7.0555mm" version="1.1" style="shape-rendering:geometricPrecision; text-rendering:geometricPrecision; image-rendering:optimizeQuality; fill-rule:evenodd; clip-rule:evenodd"
viewBox="0 0 15.47 25.83"
 xmlns:xlink="http://www.w3.org/1999/xlink">
 <defs>
  <style type="text/css">
   <![CDATA[
    .fil0 {fill:#4B566B;fill-rule:nonzero}
   ]]>
  </style>
 </defs>
 <g id="Layer_x0020_1">
  <metadata id="CorelCorpID_0Corel-Layer"/>
  <path class="fil0" d="M7.73 21.53c0.25,0 0.47,0.09 0.64,0.27 0.18,0.18 0.27,0.39 0.27,0.64 0,0.25 -0.09,0.47 -0.27,0.64 -0.18,0.18 -0.39,0.27 -0.64,0.27 -0.25,0 -0.47,-0.09 -0.64,-0.27 -0.18,-0.18 -0.27,-0.39 -0.27,-0.64 0,-0.25 0.09,-0.47 0.27,-0.64 0.18,-0.18 0.39,-0.27 0.64,-0.27zm5.07 -21.53l-10.13 0c-1.47,0 -2.67,1.2 -2.67,2.67l0 20.49c0,1.47 1.2,2.67 2.67,2.67l10.13 0c1.47,0 2.67,-1.2 2.67,-2.67l0 -20.49c-0,-1.47 -1.2,-2.67 -2.67,-2.67zm-11.08 5.22l12.03 0 0 14.34 -12.03 0 0 -14.34zm0.95 -3.5l10.13 0c0.52,0 0.95,0.42 0.95,0.95l0 0.83 -12.03 0 0 -0.83c0,-0.52 0.42,-0.95 0.95,-0.95zm10.13 22.38l-10.13 0c-0.52,0 -0.95,-0.42 -0.95,-0.95l0 -1.88 12.03 0 0 1.88c0,0.52 -0.42,0.95 -0.95,0.95z"/>
 </g>
</svg>
