<svg id="Group_26459" data-name="Group 26459" xmlns="http://www.w3.org/2000/svg" width="14.5" height="14.5" viewBox="0 0 14.5 14.5">
  <g id="Group_26458" data-name="Group 26458">
    <path id="Path_27939" data-name="Path 27939" d="M11.23,95.036l-3.2-1.982a.566.566,0,0,0-.6.963l1.51.934H2.266a1.134,1.134,0,0,1-1.133-1.133v-7.25a.566.566,0,0,0-1.133,0v7.25a2.268,2.268,0,0,0,2.266,2.266H8.94l-1.51.934a.566.566,0,0,0,.6.963L11.23,96A.567.567,0,0,0,11.23,95.036Z" transform="translate(0 -83.566)" fill="#59b828"/>
    <path id="Path_27940" data-name="Path 27940" d="M115.249,1.982h-6.674l1.51-.934a.566.566,0,0,0-.6-.963l-3.2,1.982a.567.567,0,0,0,0,.963l3.2,1.982a.566.566,0,0,0,.6-.963l-1.51-.934h6.674a1.134,1.134,0,0,1,1.133,1.133V11.5a.566.566,0,1,0,1.133,0V4.248A2.268,2.268,0,0,0,115.249,1.982Z" transform="translate(-103.015 0)" fill="#59b828"/>
  </g>
</svg>
