<svg id="Group_26459" data-name="Group 26459" xmlns="http://www.w3.org/2000/svg" width="16.148" height="16.148" viewBox="0 0 16.148 16.148">
  <g id="Group_26458" data-name="Group 26458">
    <path id="Path_27939" data-name="Path 27939" d="M12.506,96.062,8.938,93.855a.631.631,0,0,0-.664,1.073l1.682,1.041H2.523a1.263,1.263,0,0,1-1.262-1.262V86.633a.631.631,0,0,0-1.262,0v8.074A2.526,2.526,0,0,0,2.523,97.23H9.956L8.274,98.27a.631.631,0,0,0,.664,1.073l3.568-2.208A.631.631,0,0,0,12.506,96.062Z" transform="translate(0 -83.29)" fill="#f68501"/>
    <path id="Path_27940" data-name="Path 27940" d="M116.3,2.208h-7.432l1.682-1.041a.631.631,0,0,0-.664-1.073L106.316,2.3a.631.631,0,0,0,0,1.073l3.568,2.208a.631.631,0,0,0,.664-1.073l-1.682-1.041H116.3a1.263,1.263,0,0,1,1.262,1.262V12.8a.631.631,0,1,0,1.262,0V4.731A2.526,2.526,0,0,0,116.3,2.208Z" transform="translate(-102.674 0)" fill="#f68501"/>
  </g>
</svg>
