<svg xmlns="http://www.w3.org/2000/svg" width="15.541" height="15.541" viewBox="0 0 15.541 15.541">
  <g id="search-interface-symbol" transform="translate(-0.006)">
    <g id="_x34__4_" transform="translate(0.006)">
      <g id="Group_17297" data-name="Group 17297" transform="translate(0)">
        <path id="Path_22642" data-name="Path 22642" d="M15.4,14.7l-4.012-3.948a6.346,6.346,0,0,0,1.7-4.313A6.488,6.488,0,0,0,6.544,0,6.487,6.487,0,0,0,.006,6.435a6.487,6.487,0,0,0,6.538,6.435,6.576,6.576,0,0,0,4.115-1.437L14.688,15.4a.508.508,0,0,0,.711,0A.49.49,0,0,0,15.4,14.7ZM6.544,11.879A5.489,5.489,0,0,1,1.012,6.435,5.489,5.489,0,0,1,6.544.99a5.489,5.489,0,0,1,5.532,5.445A5.489,5.489,0,0,1,6.544,11.879Z" transform="translate(-0.006)" fill="#4b566b"/>
      </g>
    </g>
  </g>
</svg>
