<?xml version="1.0" encoding="UTF-8"?>
<!DOCTYPE svg PUBLIC "-//W3C//DTD SVG 1.1//EN" "http://www.w3.org/Graphics/SVG/1.1/DTD/svg11.dtd">
<!-- Creator: CorelDRAW 2018 (64-Bit Evaluation Version) -->
<svg xmlns="http://www.w3.org/2000/svg" xml:space="preserve" width="7.2554mm" height="7.2556mm" version="1.1" style="shape-rendering:geometricPrecision; text-rendering:geometricPrecision; image-rendering:optimizeQuality; fill-rule:evenodd; clip-rule:evenodd"
viewBox="0 0 574.1 574.12"
 xmlns:xlink="http://www.w3.org/1999/xlink">
 <defs>
  <style type="text/css">
   <![CDATA[
    .fil0 {fill:#4B566B;fill-rule:nonzero}
   ]]>
  </style>
 </defs>
 <g id="Layer_x0020_1">
  <metadata id="CorelCorpID_0Corel-Layer"/>
  <path class="fil0" d="M427.65 393.65l139.06 136.8c4.93,5.05 7.39,11.53 7.39,17.96 0,6.44 -2.45,12.91 -7.37,17.9l-0.25 0.28c-5.12,5.02 -11.76,7.53 -18.37,7.53 -6.6,0 -13.23,-2.51 -18.3,-7.5l-139.79 -137.56c-19.88,14.96 -42.2,26.98 -66.26,35.38 -25.36,8.86 -52.63,13.69 -80.96,13.69 -67.01,0 -127.7,-26.76 -171.63,-69.99 -43.97,-43.27 -71.18,-103.06 -71.18,-169.07 0,-66.02 27.2,-125.81 71.18,-169.08 43.93,-43.23 104.62,-69.99 171.63,-69.99 67,0 127.69,26.76 171.62,69.99 43.95,43.24 71.15,103.05 71.16,169.08 0.03,30.21 -5.74,59.12 -16.19,85.71 -9.95,25.31 -24.17,48.54 -41.74,68.87zm-319.85 -21.9c34.52,33.98 82.26,55 135,55 52.75,0 100.48,-21.02 135,-55 34.49,-33.94 55.83,-80.85 55.83,-132.67 0,-51.82 -21.33,-98.73 -55.82,-132.67 -34.52,-33.97 -82.27,-55 -135.01,-55 -52.74,0 -100.48,21.03 -135.01,55 -34.49,33.95 -55.82,80.85 -55.82,132.67 0,51.82 21.34,98.74 55.83,132.67z"/>
 </g>
</svg>
