<svg xmlns="http://www.w3.org/2000/svg" width="14.673" height="15.96" viewBox="0 0 14.673 15.96">
  <path id="share" d="M20.139,9.937a2.978,2.978,0,0,0-2.3,1.09L14.266,8.986a3.023,3.023,0,0,0,0-2.011l3.572-2.042a2.985,2.985,0,0,0,5.292-1.921A2.991,2.991,0,1,0,17.32,4.017L13.748,6.059a3.011,3.011,0,1,0,0,3.842l3.572,2.042a2.988,2.988,0,1,0,2.819-2.006Zm0-8.884a1.958,1.958,0,1,1-1.944,1.957A1.953,1.953,0,0,1,20.139,1.054ZM11.447,9.937A1.957,1.957,0,1,1,13.391,7.98,1.953,1.953,0,0,1,11.447,9.937Zm8.691,4.969a1.958,1.958,0,1,1,1.944-1.957A1.953,1.953,0,0,1,20.139,14.906Z" transform="translate(-8.456)" fill="#4b566b"/>
</svg>
