<svg xmlns="http://www.w3.org/2000/svg" width="22.103" height="20.616" viewBox="0 0 22.103 20.616">
  <g id="shipping-and-delivery" transform="translate(0.1 0.104)">
    <path id="Path_22770" data-name="Path 22770" d="M29.569,34.429h-1.1a1.088,1.088,0,0,0-1.038-.8H26.247V30.748a.3.3,0,0,0-.148-.269l-8.317-4.8a.307.307,0,0,0-.309,0l-8.319,4.8A.31.31,0,0,0,9,30.748v9.607a.31.31,0,0,0,.155.269l8.32,4.8a.31.31,0,0,0,.155.042.326.326,0,0,0,.16-.042L22.168,42.9v1.826a1.314,1.314,0,0,0,1.325,1.318h6.075A1.322,1.322,0,0,0,30.9,44.728V35.767A1.339,1.339,0,0,0,29.569,34.429Zm-2.132-.177a.451.451,0,0,1,.451.451v.03a.451.451,0,0,1-.451.451h-1.8a.451.451,0,0,1-.451-.451V34.7a.451.451,0,0,1,.451-.451ZM17.631,26.3l3.457,2-7.7,4.445-3.457-2Zm-.3,18.319L9.621,40.176V31.285l7.715,4.445Zm.3-9.429L14.01,33.1l7.7-4.445,3.621,2.091Zm4.538.575v6.418l-4.212,2.436V35.73l7.67-4.445v2.346h.01a1.088,1.088,0,0,0-1.038.8h-1.1A1.332,1.332,0,0,0,22.168,35.767Zm8.114,8.961a.7.7,0,0,1-.713.7H23.494a.693.693,0,0,1-.7-.7V35.767a.71.71,0,0,1,.7-.717H24.61a1.062,1.062,0,0,0,1.026.754h1.79a1.062,1.062,0,0,0,1.026-.754h1.117a.718.718,0,0,1,.713.717Z" transform="translate(-9 -25.634)" fill="#59b828" stroke="#59b828" stroke-width="0.2"/>
    <path id="Path_22771" data-name="Path 22771" d="M337.308,280.084h.325a.31.31,0,1,0,0-.621h-.012v-.842h.856a.3.3,0,0,0,.3.21.311.311,0,0,0,.312-.31v-.209a.315.315,0,0,0-.314-.312h-1.462a.31.31,0,0,0-.308.312v1.462a.308.308,0,0,0,.308.31Z" transform="translate(-322.457 -266.811)" fill="#59b828"/>
    <path id="Path_22772" data-name="Path 22772" d="M337.31,344.084h1.463a.31.31,0,0,0,.31-.31V342.31a.31.31,0,0,0-.31-.31H337.31a.31.31,0,0,0-.31.31v1.463A.31.31,0,0,0,337.31,344.084Zm.31-1.463h.842v.842h-.842Z" transform="translate(-322.457 -327.973)" fill="#59b828"/>
    <path id="Path_22773" data-name="Path 22773" d="M337.633,407.463h-.012v-.842h.839a.312.312,0,1,0,.624,0v-.3a.324.324,0,0,0-.314-.322h-1.462a.319.319,0,0,0-.308.322v1.462a.3.3,0,0,0,.308.3h.325a.31.31,0,1,0,0-.621Z" transform="translate(-322.457 -389.135)" fill="#59b828"/>
    <path id="Path_22774" data-name="Path 22774" d="M356.07,284.63l-.909.909-.276-.277a.31.31,0,0,0-.439.439l.5.5a.31.31,0,0,0,.439,0l1.128-1.128a.31.31,0,0,0-.439-.439Z" transform="translate(-339.042 -273.059)" fill="#59b828"/>
    <path id="Path_22775" data-name="Path 22775" d="M356.07,413.879l-.909.909-.276-.277a.31.31,0,1,0-.439.439l.5.5a.31.31,0,0,0,.439,0l1.128-1.129a.31.31,0,0,0-.439-.439Z" transform="translate(-339.042 -396.578)" fill="#59b828"/>
    <path id="Path_22776" data-name="Path 22776" d="M416.151,295H414.2a.31.31,0,0,0,0,.621h1.949a.31.31,0,0,0,0-.621Z" transform="translate(-395.939 -283.057)" fill="#59b828"/>
    <path id="Path_22777" data-name="Path 22777" d="M416.151,359H414.2a.31.31,0,0,0,0,.621h1.949a.31.31,0,0,0,0-.621Z" transform="translate(-395.939 -344.219)" fill="#59b828"/>
    <path id="Path_22778" data-name="Path 22778" d="M416.151,423H414.2a.31.31,0,0,0,0,.621h1.949a.31.31,0,0,0,0-.621Z" transform="translate(-395.939 -405.382)" fill="#59b828"/>
  </g>
</svg>
