<svg xmlns="http://www.w3.org/2000/svg" width="26.91" height="25.103" viewBox="0 0 26.91 25.103">
  <path id="shipping" d="M24.823,30.168V17.914a.792.792,0,0,0-.792-.792H2.823a.792.792,0,0,0-.792.792V31.145A2.376,2.376,0,0,0,.53,35L4.1,39.325c2.207,2.583,4.552,2.9,8.037,2.9a25.957,25.957,0,0,0,6.935-.581l2.538-.607a2.215,2.215,0,0,0,1.8.947h1.25a2.318,2.318,0,0,0,2.253-2.374V32.534A2.329,2.329,0,0,0,24.823,30.168ZM21.265,31.8,20.21,31.26a6.271,6.271,0,0,0-5.5-.089,7.563,7.563,0,0,1-2.073.8H8.977a2.2,2.2,0,0,0-2.2,2.2v.577l-.021-.021L4.141,31.894a2.411,2.411,0,0,0-.527-.431V23.61h6.478v2.9a.792.792,0,0,0,.792.792h5a.792.792,0,0,0,.792-.792v-2.9H23.24v6.557A2.283,2.283,0,0,0,21.265,31.8ZM11.675,23.61h3.412v2.11H11.675ZM23.24,22.027H16.671V18.705H23.24v3.322Zm-8.152-3.322v3.322H11.676V18.705Zm-5,0v3.322H3.614V18.705ZM18.7,40.1a25.184,25.184,0,0,1-6.539.529c-3.272,0-4.853-.053-6.844-2.315L1.752,34a.8.8,0,0,1,1.225-1.028L5.59,35.8a3.594,3.594,0,0,0,2.631,1.154h7.246a.792.792,0,1,0,0-1.583H8.358v-1.2a.619.619,0,0,1,.619-.619h3.66a7.246,7.246,0,0,0,2.74-.95,4.7,4.7,0,0,1,4.118.066l1.658.842v6Zm6.626-.494a.739.739,0,0,1-.67.79h-1.25a.739.739,0,0,1-.67-.79V32.534a.739.739,0,0,1,.67-.79h1.25a.739.739,0,0,1,.67.79Z" transform="translate(0.001 -17.122)" fill="#59b828"/>
</svg>
