<?xml version="1.0" encoding="UTF-8"?>
<!DOCTYPE svg PUBLIC "-//W3C//DTD SVG 1.1//EN" "http://www.w3.org/Graphics/SVG/1.1/DTD/svg11.dtd">
<!-- Creator: CorelDRAW 2018 (64-Bit Evaluation Version) -->
<svg xmlns="http://www.w3.org/2000/svg" xml:space="preserve" width="8.081mm" height="7.0556mm" version="1.1" style="shape-rendering:geometricPrecision; text-rendering:geometricPrecision; image-rendering:optimizeQuality; fill-rule:evenodd; clip-rule:evenodd"
viewBox="0 0 120.83 105.5"
 xmlns:xlink="http://www.w3.org/1999/xlink">
 <defs>
  <style type="text/css">
   <![CDATA[
    .fil0 {fill:#4B566B;fill-rule:nonzero}
   ]]>
  </style>
 </defs>
 <g id="Layer_x0020_1">
  <metadata id="CorelCorpID_0Corel-Layer"/>
  <path class="fil0" d="M85.77 58.37l-15.73 0c-4.3,0 -7.8,3.5 -7.8,7.8l0 12.06c0,4.3 3.5,7.8 7.8,7.8l15.73 0c4.3,0 7.8,-3.5 7.8,-7.8l0 -12.06c0,-4.3 -3.5,-7.8 -7.8,-7.8zm2.13 19.86c0,1.18 -0.97,2.13 -2.13,2.13l-15.73 0c-1.18,0 -2.13,-0.97 -2.13,-2.13l0 -12.06c0,-1.18 0.97,-2.13 2.13,-2.13l15.73 0c1.18,0 2.13,0.97 2.13,2.13l0 12.06zm32.93 -43.66c0,-0.52 -0.12,-1.01 -0.4,-1.46l-17.97 -31.6c-0.52,-0.91 -1.51,-1.51 -2.57,-1.51l-78.98 0c-1.06,0 -2.05,0.57 -2.57,1.51l-17.95 31.6c-0.25,0.44 -0.39,0.94 -0.39,1.46 0,7.09 4.27,13.16 10.37,15.85l0 52.12c0,1.63 1.33,2.96 2.96,2.96l16.37 0c0.03,0 0.05,0 0.07,0l22.96 0c0.02,0 0.05,0 0.07,0l54.66 0c1.63,0 2.96,-1.33 2.96,-2.96l0 -51.75c0,-0.12 0,-0.22 -0.02,-0.32 6.12,-2.69 10.42,-8.79 10.42,-15.9zm-98.19 -28.61l75.53 0 14.05 24.71 -103.6 0 14.02 -24.71zm63.35 30.62c-0.94,5.33 -5.6,9.38 -11.21,9.38 -5.6,0 -10.27,-4.05 -11.21,-9.38l22.42 0zm-28.71 0c-0.94,5.33 -5.6,9.38 -11.21,9.38 -5.61,0 -10.27,-4.05 -11.23,-9.38l22.44 0zm-51.16 0l22.44 0c-0.94,5.33 -5.63,9.38 -11.23,9.38 -5.61,0.03 -10.27,-4.05 -11.21,-9.38zm43.65 63.01l-17.04 0 0 -31.97c0,-2.32 1.88,-4.22 4.22,-4.22l8.62 0c2.32,0 4.22,1.88 4.22,4.22l0 31.97 -0.03 0zm54.74 0l-48.81 0 0 -31.97c0,-5.58 -4.54,-10.15 -10.15,-10.15l-8.62 0c-5.58,0 -10.15,4.54 -10.15,10.15l0 32 -10.49 0 0 -47.73c0.35,0.02 0.69,0.02 1.04,0.02 5.97,0 11.26,-3.04 14.37,-7.65 3.11,4.62 8.39,7.65 14.37,7.65 5.97,0 11.23,-3.04 14.37,-7.65 3.11,4.62 8.4,7.65 14.35,7.65 5.98,0 11.23,-3.04 14.34,-7.65 3.11,4.62 8.39,7.65 14.37,7.65 0.35,0 0.67,-0.02 1.01,-0.02l0 47.7zm-1.01 -53.6c-5.6,0 -10.27,-4.05 -11.21,-9.38l22.44 0c-0.96,5.31 -5.63,9.38 -11.23,9.38z"/>
 </g>
</svg>
