<svg xmlns="http://www.w3.org/2000/svg" width="28.647" height="25.178" viewBox="0 0 28.647 25.178">
  <g id="shopping-cart" transform="translate(0 0)">
    <path id="Path_22653" data-name="Path 22653" d="M9.23,16.786H24.451a.839.839,0,0,0,.807-.609l3.357-11.75a.839.839,0,0,0-.807-1.07H7.294l-.6-2.7A.839.839,0,0,0,5.875,0H.839a.839.839,0,1,0,0,1.679H5.2l3.03,13.636a2.518,2.518,0,0,0,1,4.828H24.451a.839.839,0,1,0,0-1.679H9.232a.839.839,0,0,1,0-1.678ZM26.7,5.036,23.817,15.107H9.905L7.667,5.036Zm0,0" transform="translate(0 0)" fill="#59b828"/>
    <path id="Path_22654" data-name="Path 22654" d="M150,362.518A2.518,2.518,0,1,0,152.518,360,2.521,2.521,0,0,0,150,362.518Zm2.518-.839a.839.839,0,1,1-.839.839A.84.84,0,0,1,152.518,361.679Zm0,0" transform="translate(-141.607 -339.857)" fill="#59b828"/>
    <path id="Path_22655" data-name="Path 22655" d="M362,362.518A2.518,2.518,0,1,0,364.518,360,2.521,2.521,0,0,0,362,362.518Zm2.518-.839a.839.839,0,1,1-.839.839A.84.84,0,0,1,364.518,361.679Zm0,0" transform="translate(-341.746 -339.857)" fill="#59b828"/>
  </g>
</svg>
