<svg xmlns="http://www.w3.org/2000/svg" width="28.771" height="25.287" viewBox="0 0 28.771 25.287">
  <g id="shopping-basket" transform="translate(0 -31)">
    <path id="Path_27965" data-name="Path 27965" d="M325.2,307.728a.842.842,0,0,0,.97-.693l.843-5.057a.843.843,0,1,0-1.663-.277l-.843,5.057A.843.843,0,0,0,325.2,307.728Z" transform="translate(-306.263 -254.824)" fill="#59b828"/>
    <path id="Path_27966" data-name="Path 27966" d="M144.352,307.037a.843.843,0,0,0,1.663-.277l-.843-5.057a.843.843,0,0,0-1.663.277Z" transform="translate(-135.434 -254.826)" fill="#59b828"/>
    <path id="Path_27967" data-name="Path 27967" d="M27.928,39.429H24.962l-6.49-8.113a.843.843,0,1,0-1.316,1.053l5.648,7.06H5.968l5.648-7.06A.843.843,0,1,0,10.3,31.317l-6.49,8.113H.843A.843.843,0,0,0,0,40.272v3.372a.843.843,0,0,0,.843.843h1.05l3.2,11.189a.843.843,0,0,0,.81.611h16.97a.843.843,0,0,0,.81-.611l3.2-11.189h1.05a.843.843,0,0,0,.843-.843V40.272a.843.843,0,0,0-.843-.843ZM22.235,54.6H6.536L3.646,44.487H25.125Zm4.85-11.8H1.686V41.115h25.4Z" fill="#59b828"/>
    <path id="Path_27968" data-name="Path 27968" d="M241.843,307.743a.843.843,0,0,0,.843-.843v-5.057a.843.843,0,1,0-1.686,0V306.9A.843.843,0,0,0,241.843,307.743Z" transform="translate(-227.457 -254.828)" fill="#59b828"/>
  </g>
</svg>
