<svg xmlns="http://www.w3.org/2000/svg" width="22.907" height="20" viewBox="0 0 22.907 20">
  <g id="shop" transform="translate(0 -31.05)">
    <g id="Group_17529" data-name="Group 17529" transform="translate(0 31.05)">
      <path id="Path_23020" data-name="Path 23020" d="M252.66,263.75h-2.981a1.481,1.481,0,0,0-1.479,1.479v2.286a1.481,1.481,0,0,0,1.479,1.479h2.981a1.481,1.481,0,0,0,1.479-1.479v-2.286A1.481,1.481,0,0,0,252.66,263.75Zm.4,3.766a.4.4,0,0,1-.4.4h-2.981a.4.4,0,0,1-.4-.4v-2.286a.4.4,0,0,1,.4-.4h2.981a.4.4,0,0,1,.4.4Z" transform="translate(-236.401 -252.685)" fill="#4b566b"/>
      <path id="Path_23021" data-name="Path 23021" d="M22.907,37.6a.521.521,0,0,0-.075-.276l-3.407-5.991a.565.565,0,0,0-.487-.286H3.964a.555.555,0,0,0-.487.286l-3.4,5.991A.568.568,0,0,0,0,37.6a3.286,3.286,0,0,0,1.966,3v9.881a.563.563,0,0,0,.562.562H20.374a.563.563,0,0,0,.562-.562v-9.81a.247.247,0,0,0,0-.061A3.3,3.3,0,0,0,22.907,37.6ZM4.292,32.178H18.61l2.663,4.685H1.634Zm12.01,5.8a2.159,2.159,0,0,1-4.25,0Zm-5.443,0a2.161,2.161,0,0,1-4.255,0Zm-9.7,0H5.415a2.161,2.161,0,0,1-4.255,0ZM9.436,49.927H6.206V43.865a.8.8,0,0,1,.8-.8H8.64a.8.8,0,0,1,.8.8v6.061Zm10.377,0H10.559V43.865a1.927,1.927,0,0,0-1.924-1.924H7a1.927,1.927,0,0,0-1.924,1.924v6.066H3.089V40.884c.066,0,.131,0,.2,0A3.282,3.282,0,0,0,6.01,39.438a3.283,3.283,0,0,0,5.448,0,3.274,3.274,0,0,0,5.439,0,3.282,3.282,0,0,0,2.724,1.451c.066,0,.126,0,.192,0v9.043Zm-.192-10.161A2.158,2.158,0,0,1,17.5,37.987h4.255A2.171,2.171,0,0,1,19.621,39.765Z" transform="translate(0 -31.05)" fill="#4b566b"/>
    </g>
  </g>
</svg>
