<?xml version="1.0" encoding="UTF-8"?>
<!DOCTYPE svg PUBLIC "-//W3C//DTD SVG 1.1//EN" "http://www.w3.org/Graphics/SVG/1.1/DTD/svg11.dtd">
<!-- Creator: CorelDRAW 2018 (64-Bit Evaluation Version) -->
<svg xmlns="http://www.w3.org/2000/svg" xml:space="preserve" width="7.3568mm" height="6.466mm" version="1.1" style="shape-rendering:geometricPrecision; text-rendering:geometricPrecision; image-rendering:optimizeQuality; fill-rule:evenodd; clip-rule:evenodd"
viewBox="0 0 95.72 84.13"
 xmlns:xlink="http://www.w3.org/1999/xlink">
 <defs>
  <style type="text/css">
   <![CDATA[
    .fil0 {fill:#59B828;fill-rule:nonzero}
   ]]>
  </style>
 </defs>
 <g id="Layer_x0020_1">
  <metadata id="CorelCorpID_0Corel-Layer"/>
  <path class="fil0" d="M25.62 16.83l63.58 0 -9.61 33.66 -46.49 0 -7.48 -33.66zm50.47 50.48c-4.65,0 -8.41,3.77 -8.41,8.41 0,4.61 3.71,8.35 8.31,8.41l0.22 0c4.6,-0.06 8.31,-3.8 8.31,-8.41 0,-4.65 -3.76,-8.41 -8.41,-8.41zm-31.22 8.41c0,-4.65 -3.77,-8.41 -8.41,-8.41 -4.65,0 -8.41,3.77 -8.41,8.41 0,4.61 3.71,8.35 8.3,8.41l0.22 0c4.59,-0.06 8.31,-3.8 8.31,-8.41zm31.22 -3.43c1.9,0 3.43,1.54 3.43,3.43 0,1.9 -1.54,3.43 -3.43,3.43 -1.9,0 -3.43,-1.54 -3.43,-3.43 0,-1.9 1.54,-3.43 3.43,-3.43zm-39.64 0c1.9,0 3.43,1.54 3.43,3.43 0,1.9 -1.54,3.43 -3.43,3.43 -1.9,0 -3.43,-1.54 -3.43,-3.43 0,-1.9 1.54,-3.43 3.43,-3.43zm45.25 -16.2c1.25,0 2.35,-0.83 2.69,-2.03l11.21 -39.26c0.07,-0.26 0.11,-0.51 0.11,-0.77 0,-1.22 -0.8,-2.34 -2.04,-2.7 -0.25,-0.07 -0.5,-0.11 -0.77,-0.11l-68.54 0 -2.01 -9.02c-0.28,-1.29 -1.43,-2.2 -2.74,-2.2l-16.82 0c-1.55,0 -2.81,1.25 -2.81,2.81 0,1.55 1.25,2.8 2.81,2.8l14.57 0 10.13 45.56c-4.27,1.85 -6.22,6.81 -4.36,11.07 1.33,3.07 4.36,5.05 7.7,5.06l50.86 0c1.55,0 2.8,-1.25 2.8,-2.81 0,-1.55 -1.25,-2.8 -2.8,-2.8l-50.86 0c-1.55,0 -2.8,-1.26 -2.8,-2.81 0,-1.55 1.26,-2.8 2.8,-2.8l-0.01 0 50.86 0z"/>
 </g>
</svg>
