<svg xmlns="http://www.w3.org/2000/svg" width="18.311" height="16.094" viewBox="0 0 18.311 16.094">
  <g id="shopping-basket" transform="translate(0 -31)">
    <path id="Path_27961" data-name="Path 27961" d="M324.946,305.279a.535.535,0,0,0,.617-.441l.536-3.217a.536.536,0,1,0-1.058-.176l-.536,3.217A.536.536,0,0,0,324.946,305.279Z" transform="translate(-312.892 -260.338)" fill="#fff"/>
    <path id="Path_27962" data-name="Path 27962" d="M144.041,304.84a.536.536,0,1,0,1.058-.176l-.536-3.217a.536.536,0,0,0-1.058.176Z" transform="translate(-138.365 -260.339)" fill="#fff"/>
    <path id="Path_27963" data-name="Path 27963" d="M17.775,36.365H15.887L11.756,31.2a.536.536,0,1,0-.838.67l3.594,4.493H3.8l3.594-4.493a.536.536,0,1,0-.838-.67L2.424,36.365H.536A.536.536,0,0,0,0,36.9v2.146a.536.536,0,0,0,.536.536H1.2L3.239,46.7a.536.536,0,0,0,.516.389h10.8a.536.536,0,0,0,.516-.389l2.035-7.121h.668a.536.536,0,0,0,.536-.536V36.9a.536.536,0,0,0-.536-.536Zm-3.623,9.656H4.16L2.321,39.583H15.99Zm3.087-7.51H1.073V37.438H17.238Z" transform="translate(0 0)" fill="#fff"/>
    <path id="Path_27964" data-name="Path 27964" d="M241.536,305.29a.536.536,0,0,0,.536-.536v-3.217a.536.536,0,1,0-1.072,0v3.217A.536.536,0,0,0,241.536,305.29Z" transform="translate(-232.381 -260.341)" fill="#fff"/>
  </g>
</svg>
