<svg xmlns="http://www.w3.org/2000/svg" width="20.149" height="22" viewBox="0 0 20.149 22">
  <g id="support" transform="translate(-17.756)">
    <g id="Group_17298" data-name="Group 17298" transform="translate(17.756)">
      <path id="Path_22643" data-name="Path 22643" d="M35.782,9.094h-.054V7.76a7.76,7.76,0,0,0-15.52,0V9.094h-.327a2.217,2.217,0,0,0-2.124,2.287v3.4a2.151,2.151,0,0,0,2.1,2.2H21.9a.517.517,0,0,0,.492-.541q0-.015,0-.031V9.748c0-.327-.191-.653-.49-.653h-.6V7.76a6.671,6.671,0,1,1,13.342,0V9.094h-.6c-.3,0-.49.327-.49.653v6.671a.517.517,0,0,0,.459.569l.031,0h.626l-.054.082a4.3,4.3,0,0,1-3.458,1.715,2.7,2.7,0,0,0-5.337.517A2.723,2.723,0,0,0,28.539,22a2.8,2.8,0,0,0,1.96-.844,2.4,2.4,0,0,0,.653-1.307A5.391,5.391,0,0,0,35.482,17.7L36,16.936a1.854,1.854,0,0,0,1.906-1.879v-3.4C37.906,10.483,37.034,9.094,35.782,9.094ZM21.3,15.9H19.881a1.062,1.062,0,0,1-1.036-1.087q0-.014,0-.029v-3.4a1.129,1.129,0,0,1,1.035-1.2H21.3Zm8.413,4.493a1.607,1.607,0,0,1-1.171.517A1.661,1.661,0,0,1,26.906,19.3a1.606,1.606,0,1,1,3.213,0h0A1.443,1.443,0,0,1,29.71,20.394Zm7.106-5.337c0,.735-.708.844-1.035.844H34.638V10.183h1.144c.6,0,1.035.844,1.035,1.47Z" transform="translate(-17.756)" fill="#4b566b"/>
    </g>
  </g>
</svg>
