<svg xmlns="http://www.w3.org/2000/svg" width="10.911" height="13.72" viewBox="0 0 10.911 13.72">
  <g id="surface1" transform="translate(-0.4 0.1)">
    <path id="Path_27979" data-name="Path 27979" d="M7.786.1A.327.327,0,0,0,7.551,0H2.277A1.784,1.784,0,0,0,.5,1.773v9.973A1.784,1.784,0,0,0,2.277,13.52H9.435a1.784,1.784,0,0,0,1.777-1.773V3.827a.351.351,0,0,0-.095-.229ZM7.88,1.153l2.23,2.341H8.661a.778.778,0,0,1-.781-.777ZM9.435,12.867H2.277a1.131,1.131,0,0,1-1.123-1.12V1.773A1.131,1.131,0,0,1,2.277.653H7.227V2.717a1.429,1.429,0,0,0,1.434,1.43h1.9v7.6A1.129,1.129,0,0,1,9.435,12.867Zm0,0" fill="#f68501" stroke="#f68501" stroke-width="0.2"/>
    <path id="Path_27980" data-name="Path 27980" d="M94.874,401.934H89.5a.327.327,0,0,0,0,.653h5.379a.327.327,0,1,0,0-.653Zm0,0" transform="translate(-86.33 -391.321)" fill="#f68501" stroke="#f68501" stroke-width="0.2"/>
    <path id="Path_27981" data-name="Path 27981" d="M120.626,175.241a.324.324,0,0,0,.477,0l1.914-2.054a.326.326,0,1,0-.477-.444l-1.349,1.447v-3.566a.327.327,0,1,0-.653,0v3.566l-1.345-1.447a.326.326,0,1,0-.477.444Zm0,0" transform="translate(-115.008 -165.8)" fill="#f68501" stroke="#f68501" stroke-width="0.2"/>
  </g>
</svg>
