<svg id="Group_26457" data-name="Group 26457" xmlns="http://www.w3.org/2000/svg" width="11.908" height="11.908" viewBox="0 0 11.908 11.908">
  <g id="Path_22400" data-name="Path 22400" fill="#fff">
    <path d="M 5.953954696655273 11.40791511535645 C 2.946634769439697 11.40791511535645 0.5000047087669373 8.961275100708008 0.5000047087669373 5.953954696655273 C 0.5000047087669373 2.946634769439697 2.946634769439697 0.5000047087669373 5.953954696655273 0.5000047087669373 C 8.961275100708008 0.5000047087669373 11.40791511535645 2.946634769439697 11.40791511535645 5.953954696655273 C 11.40791511535645 8.961275100708008 8.961275100708008 11.40791511535645 5.953954696655273 11.40791511535645 Z" stroke="none"/>
    <path d="M 5.953954696655273 0.9999942779541016 C 3.222334861755371 0.9999942779541016 0.9999942779541016 3.222334861755371 0.9999942779541016 5.953954696655273 C 0.9999942779541016 8.685574531555176 3.222334861755371 10.90790462493896 5.953954696655273 10.90790462493896 C 8.685574531555176 10.90790462493896 10.90790462493896 8.685574531555176 10.90790462493896 5.953954696655273 C 10.90790462493896 3.222334861755371 8.685574531555176 0.9999942779541016 5.953954696655273 0.9999942779541016 M 5.953954696655273 -5.7220458984375e-06 C 9.24223518371582 -5.7220458984375e-06 11.90790462493896 2.665675163269043 11.90790462493896 5.953954696655273 C 11.90790462493896 9.24223518371582 9.24223518371582 11.90790462493896 5.953954696655273 11.90790462493896 C 2.665675163269043 11.90790462493896 -5.7220458984375e-06 9.24223518371582 -5.7220458984375e-06 5.953954696655273 C -5.7220458984375e-06 2.665675163269043 2.665675163269043 -5.7220458984375e-06 5.953954696655273 -5.7220458984375e-06 Z" stroke="none" fill="#59b828"/>
  </g>
  <path id="path" d="M5.294,9.186,3.874,7.765,3.4,8.239l1.894,1.894,4.06-4.06L8.88,5.6Z" transform="translate(-0.423 -1.773)" fill="#59b828" stroke="#59b828" stroke-linecap="round" stroke-linejoin="round" stroke-width="0.5" fill-rule="evenodd"/>
</svg>
