<svg xmlns="http://www.w3.org/2000/svg" width="19.188" height="20.591" viewBox="0 0 19.188 20.591">
  <g id="user_1_" data-name="user" transform="translate(-17.44)">
    <g id="Group_17300" data-name="Group 17300" transform="translate(17.44 11.598)">
      <g id="Group_17299" data-name="Group 17299">
        <path id="Path_22644" data-name="Path 22644" d="M27.034,288.389c-6.187,0-9.594,2.927-9.594,8.241a.751.751,0,0,0,.751.751H35.876a.751.751,0,0,0,.751-.751C36.628,291.316,33.221,288.389,27.034,288.389Zm-8.064,7.49c.3-3.974,3-5.987,8.064-5.987s7.768,2.013,8.064,5.987Z" transform="translate(-17.44 -288.389)" fill="#4b566b"/>
      </g>
    </g>
    <g id="Group_17302" data-name="Group 17302" transform="translate(22.049)">
      <g id="Group_17301" data-name="Group 17301">
        <path id="Path_22645" data-name="Path 22645" d="M137.034,0a4.925,4.925,0,0,0-4.985,5.085,5,5,0,1,0,9.97,0A4.925,4.925,0,0,0,137.034,0Zm0,8.993a3.717,3.717,0,0,1-3.482-3.908A3.417,3.417,0,0,1,137.034,1.5a3.455,3.455,0,0,1,3.482,3.582A3.717,3.717,0,0,1,137.034,8.993Z" transform="translate(-132.049)" fill="#4b566b"/>
      </g>
    </g>
  </g>
</svg>
