<svg xmlns="http://www.w3.org/2000/svg" width="34.401" height="22.435" viewBox="0 0 34.401 22.435">
  <g id="user_2_" data-name="user2" transform="translate(0 -85.333)">
    <g id="Group_26581" data-name="Group 26581" transform="translate(11.965 85.333)">
      <g id="Group_26580" data-name="Group 26580" transform="translate(0 0)">
        <path id="Path_27995" data-name="Path 27995" d="M175.9,85.333a5.235,5.235,0,1,0,5.235,5.235A5.241,5.241,0,0,0,175.9,85.333Zm0,8.974a3.739,3.739,0,1,1,3.739-3.739A3.744,3.744,0,0,1,175.9,94.307Z" transform="translate(-170.666 -85.333)" fill="#59b828"/>
      </g>
    </g>
    <g id="Group_26583" data-name="Group 26583" transform="translate(23.931 91.316)">
      <g id="Group_26582" data-name="Group 26582" transform="translate(0 0)">
        <path id="Path_27996" data-name="Path 27996" d="M345.073,170.667a3.739,3.739,0,1,0,3.739,3.739A3.744,3.744,0,0,0,345.073,170.667Zm0,5.983a2.243,2.243,0,1,1,2.243-2.243A2.246,2.246,0,0,1,345.073,176.65Z" transform="translate(-341.334 -170.667)" fill="#59b828"/>
      </g>
    </g>
    <g id="Group_26585" data-name="Group 26585" transform="translate(3.098 91.316)">
      <g id="Group_26584" data-name="Group 26584" transform="translate(0 0)">
        <path id="Path_27997" data-name="Path 27997" d="M47.921,170.667a3.739,3.739,0,1,0,3.739,3.739A3.743,3.743,0,0,0,47.921,170.667Zm0,5.983a2.243,2.243,0,1,1,2.244-2.243A2.246,2.246,0,0,1,47.921,176.65Z" transform="translate(-44.182 -170.667)" fill="#59b828"/>
      </g>
    </g>
    <g id="Group_26587" data-name="Group 26587" transform="translate(7.478 97.298)">
      <g id="Group_26586" data-name="Group 26586" transform="translate(0 0)">
        <path id="Path_27998" data-name="Path 27998" d="M116.388,256a9.733,9.733,0,0,0-9.722,9.722.748.748,0,0,0,1.5,0,8.226,8.226,0,1,1,16.452,0,.748.748,0,0,0,1.5,0A9.733,9.733,0,0,0,116.388,256Z" transform="translate(-106.666 -256)" fill="#59b828"/>
      </g>
    </g>
    <g id="Group_26589" data-name="Group 26589" transform="translate(23.824 100.29)">
      <g id="Group_26588" data-name="Group 26588">
        <path id="Path_27999" data-name="Path 27999" d="M343.659,298.667a6.731,6.731,0,0,0-3.486.972.748.748,0,1,0,.776,1.279,5.236,5.236,0,0,1,7.945,4.48.748.748,0,0,0,1.5,0A6.739,6.739,0,0,0,343.659,298.667Z" transform="translate(-339.813 -298.667)" fill="#59b828"/>
      </g>
    </g>
    <g id="Group_26591" data-name="Group 26591" transform="translate(0 100.29)">
      <g id="Group_26590" data-name="Group 26590">
        <path id="Path_28000" data-name="Path 28000" d="M10.215,299.638A6.733,6.733,0,0,0,0,305.4a.748.748,0,1,0,1.5,0,5.237,5.237,0,0,1,7.943-4.481.748.748,0,0,0,.776-1.279Z" transform="translate(0 -298.667)" fill="#59b828"/>
      </g>
    </g>
  </g>
</svg>
