<svg xmlns="http://www.w3.org/2000/svg" width="60" height="60" viewBox="0 0 60 60">
  <g id="Group_17572" data-name="Group 17572" transform="translate(-1106 -537)">
    <g id="Group_17491" data-name="Group 17491" transform="translate(1105.966 537.12)">
      <circle id="Ellipse_25" data-name="Ellipse 25" cx="30" cy="30" r="30" transform="translate(0.034 -0.12)" fill="#e1e9fc"/>
      <g id="Ellipse_26" data-name="Ellipse 26" transform="translate(2.034 1.88)" fill="none" stroke="#fff" stroke-width="1">
        <circle cx="28" cy="28" r="28" stroke="none"/>
        <circle cx="28" cy="28" r="27.5" fill="none"/>
      </g>
    </g>
    <g id="Group_17428" data-name="Group 17428" transform="translate(1117 551)">
      <g id="save-money" transform="translate(0)">
        <path id="Path_22922" data-name="Path 22922" d="M30.588,49.244H21.537a.536.536,0,1,1,0-1.071h9.051a1.4,1.4,0,0,0,1-.408c.024-.024.044-.047.064-.069a.511.511,0,0,1,.035-.047A1.393,1.393,0,0,0,32,46.755a1.419,1.419,0,0,0-1.417-1.417H25.529a.536.536,0,0,1-.4-.176,7.205,7.205,0,0,0-5.323-2.353h-6.5a.536.536,0,0,1,0-1.071h6.5a8.28,8.28,0,0,1,5.952,2.529h4.825a2.492,2.492,0,0,1,2.489,2.487,2.464,2.464,0,0,1-.532,1.531.494.494,0,0,1-.046.063c-.054.06-.1.115-.155.17a2.473,2.473,0,0,1-1.757.728Z" transform="translate(-7.002 -22.814)" fill="#4b566b" stroke="#4b566b" stroke-width="0.5"/>
        <path id="Path_22923" data-name="Path 22923" d="M26.042,58.378a11.357,11.357,0,0,1-3.872-.678l-9.044-3.284a.536.536,0,1,1,.366-1.007l9.045,3.284a10.367,10.367,0,0,0,8.2-.509l12.272-6.268a4.969,4.969,0,0,0-4.784-.793l-5.885,2.143a.523.523,0,0,1-.25.063.536.536,0,0,1-.368-.93.524.524,0,0,1,.184-.115l5.953-2.167a6.043,6.043,0,0,1,5.946,1.071l.506.438a.536.536,0,0,1-.107.882l-12.983,6.63A11.442,11.442,0,0,1,26.042,58.378Z" transform="translate(-7.002 -25.611)" fill="#4b566b" stroke="#4b566b" stroke-width="0.5"/>
        <path id="Path_22924" data-name="Path 22924" d="M8.305,51.976H2.536A.536.536,0,0,1,2,51.44V39.776a.536.536,0,0,1,.536-.536h5.77a.536.536,0,0,1,.536.536V51.44A.536.536,0,0,1,8.305,51.976ZM3.071,50.9h4.7V40.311h-4.7Z" transform="translate(-2 -21.655)" fill="#4b566b" stroke="#4b566b" stroke-width="0.5"/>
        <path id="Path_22925" data-name="Path 22925" d="M38.22,25.52a9.553,9.553,0,1,1,9.553-9.553A9.553,9.553,0,0,1,38.22,25.52Zm0-18.036A8.482,8.482,0,1,0,46.7,15.967,8.482,8.482,0,0,0,38.22,7.485Z" transform="translate(-14.381 -6.414)" fill="#4b566b" stroke="#4b566b" stroke-width="0.5"/>
      </g>
      <path id="rupee_2_" data-name="rupee (2)" d="M63.446.313A.314.314,0,0,0,63.133,0H56.507a.313.313,0,0,0,0,.626h1.9a2.535,2.535,0,0,1,2.51,2.191h-4.4a.313.313,0,1,0,0,.626h4.4A2.533,2.533,0,0,1,58.4,5.665h-1.9a.316.316,0,0,0-.216.545l4.735,4.476a.318.318,0,0,0,.444-.013.319.319,0,0,0-.013-.448L57.3,6.291H58.4a3.161,3.161,0,0,0,3.139-2.848h1.59a.313.313,0,1,0,0-.626h-1.59A3.134,3.134,0,0,0,60.288.626h2.845A.314.314,0,0,0,63.446.313Z" transform="translate(-36.098 4.915)" fill="#4b566b" stroke="#4b566b" stroke-width="0.5"/>
    </g>
  </g>
</svg>
