<svg id="HB_Logo" data-name="HB Logo" xmlns="http://www.w3.org/2000/svg" width="59.804" height="30" viewBox="0 0 59.804 30">
  <g id="_1117357728" transform="translate(0)">
    <path id="Path_1" data-name="Path 1" d="M453.66,86.08H456.2v1.871H453.66Z" transform="translate(-424.951 -80.632)"/>
    <path id="Path_2" data-name="Path 2" d="M458.187,59.236V58.38h-1.473v.856c-.437.134-.361.9-.361.9h2.2S458.624,59.37,458.187,59.236Z" transform="translate(-427.469 -54.685)" fill="#ffcc3e"/>
    <path id="Path_3" data-name="Path 3" d="M454.621,55.882v-.63H453.6v.63a.225.225,0,0,1-.171.219c-.146.056-.185.281-.194.454h1.752c-.009-.177-.05-.409-.206-.458A.226.226,0,0,1,454.621,55.882Zm.452-.856v.715c.411.27.368.961.361,1.047a.227.227,0,0,1-.226.219h-2.2a.227.227,0,0,1-.225-.209s-.079-.769.36-1.057v-.715a.226.226,0,0,1,.226-.226h1.473a.226.226,0,0,1,.226.226Z" transform="translate(-424.129 -51.332)"/>
    <path id="Path_4" data-name="Path 4" d="M457.374,30.4h-1.2c-.62.174-.77,1.6-.151,1.77h1.505C458.145,32,457.995,30.574,457.374,30.4Z" transform="translate(-426.791 -28.476)" fill="#ffcc3e"/>
    <path id="Path_5" data-name="Path 5" d="M454.011,27.272h-1.133a.652.652,0,0,0-.307.446,1.345,1.345,0,0,0-.049.327,1.044,1.044,0,0,0,.034.3.363.363,0,0,0,.172.246h1.433a.358.358,0,0,0,.172-.246,1.034,1.034,0,0,0,.034-.3,1.345,1.345,0,0,0-.049-.327A.653.653,0,0,0,454.011,27.272Zm-1.168-.452h1.2a.257.257,0,0,1,.061.009,1.04,1.04,0,0,1,.646.768,1.759,1.759,0,0,1,.065.44,1.488,1.488,0,0,1-.049.43.764.764,0,0,1-.491.561.224.224,0,0,1-.08.015h-1.505a.253.253,0,0,1-.061-.009.758.758,0,0,1-.509-.568,1.468,1.468,0,0,1-.05-.43,1.765,1.765,0,0,1,.065-.44,1.049,1.049,0,0,1,.627-.761A.226.226,0,0,1,452.844,26.82Z" transform="translate(-423.463 -25.123)"/>
    <path id="Path_6" data-name="Path 6" d="M466.08,21.34h.974v.573h-.974Z" transform="translate(-436.585 -19.99)" fill="#ffcc3e"/>
    <path id="Path_7" data-name="Path 7" d="M462.736,17.77h.974a.226.226,0,0,1,.226.226v.573a.226.226,0,0,1-.226.226h-.974a.226.226,0,0,1-.226-.226V18A.226.226,0,0,1,462.736,17.77Zm.747.452h-.521v.122h.521Z" transform="translate(-433.24 -16.645)"/>
    <path id="Path_8" data-name="Path 8" d="M457.289,129.32H455.77v.779a.267.267,0,0,0,.263.272h.142a.451.451,0,0,1,.633-.079.425.425,0,0,1,.079.079h.047a.451.451,0,0,1,.633-.079.47.47,0,0,1,.08.079h.142a.267.267,0,0,0,.263-.272h0v-.778Z" transform="translate(-426.926 -121.136)" fill="#ffcc3e"/>
    <path id="Path_9" data-name="Path 9" d="M456.2,129.534a.167.167,0,0,1-.161.175h-2.224a.168.168,0,0,1-.161-.175v-.039a.168.168,0,0,1,.161-.175h2.224a.167.167,0,0,1,.161.175Z" transform="translate(-424.948 -121.136)" fill="#ffcc3e"/>
    <path id="Path_10" data-name="Path 10" d="M456.2,123.366a.168.168,0,0,1-.161.175h-2.224a.168.168,0,0,1-.161-.175v-.041a.168.168,0,0,1,.161-.175h2.224a.167.167,0,0,1,.161.175Z" transform="translate(-424.948 -115.357)" fill="#ffcc3e"/>
    <path id="Path_11" data-name="Path 11" d="M453.1,119.964a.392.392,0,0,1-.1.255.4.4,0,0,1-.273.127h-2.233a.2.2,0,0,1-.039,0,.394.394,0,0,1-.347-.4v-.061a.389.389,0,0,1,.1-.254.4.4,0,0,1,.272-.127c.74-.013,1.493,0,2.234,0a.264.264,0,0,1,.039,0,.393.393,0,0,1,.242.124h0a.388.388,0,0,1,.1.273Z" transform="translate(-421.615 -111.936)"/>
    <path id="Path_12" data-name="Path 12" d="M456.2,117.234a.169.169,0,0,1-.161.176h-2.224a.169.169,0,0,1-.161-.176v-.039a.168.168,0,0,1,.161-.175h2.224a.167.167,0,0,1,.161.175Z" transform="translate(-424.948 -109.614)" fill="#ffcc3e"/>
    <path id="Path_13" data-name="Path 13" d="M453.095,113.872a.391.391,0,0,1-.1.254h0a.4.4,0,0,1-.273.127h-2.233a.258.258,0,0,1-.038,0,.394.394,0,0,1-.245-.126l-.016-.02a.393.393,0,0,1-.087-.253V113.8a.393.393,0,0,1,.368-.382c.016-.008,2.035,0,2.241,0a.2.2,0,0,1,.039,0,.393.393,0,0,1,.244.124.388.388,0,0,1,.1.272A.369.369,0,0,1,453.095,113.872Z" transform="translate(-421.615 -106.234)"/>
    <path id="Path_14" data-name="Path 14" d="M456.23,86.11h2.2v1.956h-2.2Z" transform="translate(-427.358 -80.661)" fill="#ea3f2b"/>
    <path id="Path_15" data-name="Path 15" d="M458,59.236V58.38h-1.473v.856c-.437.134-.361.9-.361.9h2.193S458.435,59.37,458,59.236Z" transform="translate(-427.291 -54.685)" fill="#fac41a"/>
    <path id="Path_16" data-name="Path 16" d="M457.191,30.4h-1.2c-.619.174-.769,1.6-.151,1.77h1.506C457.962,32,457.811,30.574,457.191,30.4Z" transform="translate(-426.62 -28.476)" fill="#ffcc3e"/>
    <path id="Path_17" data-name="Path 17" d="M461.95,58.37h1.473v.28H461.95Z" transform="translate(-432.716 -54.676)" fill="#ff9210"/>
    <path id="Path_18" data-name="Path 18" d="M465.89,21.34h.973v.573h-.973Z" transform="translate(-436.407 -19.99)" fill="#e51f0a"/>
    <path id="Path_19" data-name="Path 19" d="M468.23,21.34h.328v.573h-.328Z" transform="translate(-438.599 -19.99)" fill="#f7392b"/>
    <path id="Path_20" data-name="Path 20" d="M459.31,88.71h1.806v1.812H459.31Z" transform="translate(-430.243 -83.096)" fill="#f28300"/>
    <path id="Path_21" data-name="Path 21" d="M471.151,90.564c0,.2-.079.355-.175.355s-.176-.158-.176-.355.078-.354.176-.354S471.151,90.366,471.151,90.564Z" transform="translate(-441.006 -84.501)" fill="#ffcc3e"/>
    <path id="Path_22" data-name="Path 22" d="M465.79,92.508c.116.159.145.331.067.39s-.237-.025-.351-.184-.146-.334-.066-.391S465.676,92.35,465.79,92.508Z" transform="translate(-435.944 -86.464)" fill="#ffcc3e"/>
    <path id="Path_23" data-name="Path 23" d="M461.8,97.571c.186.06.313.184.284.277s-.2.117-.392.057-.313-.185-.284-.278S461.612,97.509,461.8,97.571Z" transform="translate(-432.204 -91.365)" fill="#ffcc3e"/>
    <path id="Path_24" data-name="Path 24" d="M461.671,101.984c.186-.061.362-.035.392.058s-.095.217-.284.277-.363.035-.392-.057S461.484,102.044,461.671,101.984Z" transform="translate(-432.184 -95.499)" fill="#ffcc3e"/>
    <path id="Path_25" data-name="Path 25" d="M465.5,104.052c.115-.158.273-.24.351-.184s.048.232-.067.39-.272.242-.351.184S465.385,104.21,465.5,104.052Z" transform="translate(-435.939 -97.278)" fill="#ffcc3e"/>
    <path id="Path_26" data-name="Path 26" d="M470.8,104.785c0-.2.078-.355.176-.355s.176.159.176.355-.079.356-.176.356S470.8,104.981,470.8,104.785Z" transform="translate(-441.006 -97.821)" fill="#ffcc3e"/>
    <path id="Path_27" data-name="Path 27" d="M473.888,104.238c-.115-.159-.145-.332-.066-.39s.237.025.351.184.145.334.067.39S474,104.4,473.888,104.238Z" transform="translate(-443.795 -97.258)" fill="#ffcc3e"/>
    <path id="Path_28" data-name="Path 28" d="M475.233,102.318c-.186-.061-.313-.184-.284-.277s.206-.118.392-.058.314.185.284.277S475.419,102.378,475.233,102.318Z" transform="translate(-444.888 -95.499)" fill="#ffcc3e"/>
    <path id="Path_29" data-name="Path 29" d="M475.345,97.921c-.186.061-.361.035-.392-.056s.095-.217.284-.277.363-.035.392.057S475.531,97.86,475.345,97.921Z" transform="translate(-444.892 -91.381)" fill="#ffcc3e"/>
    <path id="Path_30" data-name="Path 30" d="M474.177,92.715c-.116.159-.273.241-.351.184s-.047-.232.066-.39.273-.241.351-.184S474.293,92.556,474.177,92.715Z" transform="translate(-443.8 -86.464)" fill="#ffcc3e"/>
    <path id="Path_31" data-name="Path 31" d="M468.338,97.3a.379.379,0,1,1-.379-.378A.379.379,0,0,1,468.338,97.3Z" transform="translate(-437.99 -90.786)"/>
    <path id="Path_32" data-name="Path 32" d="M457.051,129.32h-1.521v.779a.268.268,0,0,0,.263.272h.142a.451.451,0,0,1,.633-.079.474.474,0,0,1,.08.079h.047a.464.464,0,0,0,.356-.174.473.473,0,0,0,.356.174h.142a.268.268,0,0,0,.263-.272v-.778Z" transform="translate(-426.702 -121.136)" fill="#ff9210"/>
    <path id="Path_33" data-name="Path 33" d="M456.013,129.534a.168.168,0,0,1-.161.175h-2.224a.168.168,0,0,1-.16-.175v-.039a.168.168,0,0,1,.16-.175h2.224a.168.168,0,0,1,.161.175Z" transform="translate(-424.77 -121.136)" fill="#ffcc3e"/>
    <path id="Path_34" data-name="Path 34" d="M456.013,123.366a.168.168,0,0,1-.161.175h-2.224a.168.168,0,0,1-.16-.175v-.041a.168.168,0,0,1,.16-.175h2.224a.168.168,0,0,1,.161.175Z" transform="translate(-424.77 -115.357)" fill="#fac41a"/>
    <path id="Path_35" data-name="Path 35" d="M456.012,117.234a.169.169,0,0,1-.161.176h-2.224a.168.168,0,0,1-.16-.176v-.039a.168.168,0,0,1,.16-.175h2.224a.168.168,0,0,1,.161.175Z" transform="translate(-424.77 -109.614)" fill="#ffcc3e"/>
    <path id="Path_36" data-name="Path 36" d="M258.221,169.3a3.336,3.336,0,0,0,1.91-.547,3.738,3.738,0,0,0,1.277-1.483,4.484,4.484,0,0,0,.438-2.1,4.737,4.737,0,0,0-.438-2.082,3.63,3.63,0,0,0-1.24-1.459,3.328,3.328,0,0,0-1.921-.547,3.432,3.432,0,0,0-3.26,2.018,5.184,5.184,0,0,0,0,4.172,3.558,3.558,0,0,0,1.253,1.483A3.461,3.461,0,0,0,258.221,169.3Zm-.753,2.384a5.323,5.323,0,0,1-3.065-.875,5.722,5.722,0,0,1-1.982-2.347,7.518,7.518,0,0,1-.694-3.248,6.907,6.907,0,0,1,.79-3.319,5.908,5.908,0,0,1,2.262-2.335,6.822,6.822,0,0,1,3.514-.864,6.517,6.517,0,0,1,3.441.864,5.835,5.835,0,0,1,2.189,2.335,6.974,6.974,0,0,1,.766,3.271v6.226h-2.8v-2.311h-.048a5.594,5.594,0,0,1-.949,1.278,4.422,4.422,0,0,1-1.435.961,5.036,5.036,0,0,1-1.994.364Z" transform="translate(-235.796 -148.651)" fill="#28af2d" fill-rule="evenodd"/>
    <path id="Path_37" data-name="Path 37" d="M470,171.4v-7.15a5.572,5.572,0,0,1,.73-2.858,5.158,5.158,0,0,1,2.068-1.97,6.543,6.543,0,0,1,3.138-.718,6.467,6.467,0,0,1,3.122.718,5.169,5.169,0,0,1,2.054,1.97,5.57,5.57,0,0,1,.731,2.858v7.15h-2.771v-7.126a3.163,3.163,0,0,0-4.706-2.784,3.022,3.022,0,0,0-1.144,1.118,3.209,3.209,0,0,0-.425,1.666V171.4Z" transform="translate(-440.253 -148.656)" fill="#28af2d" fill-rule="evenodd"/>
    <path id="Path_38" data-name="Path 38" d="M677.07,94.453a3.467,3.467,0,0,1-1.9-.52,3.547,3.547,0,0,1-1.288-1.447,4.731,4.731,0,0,1-.463-2.14,4.663,4.663,0,0,1,.463-2.116,3.674,3.674,0,0,1,1.277-1.46,3.365,3.365,0,0,1,1.885-.534,3.475,3.475,0,0,1,1.9.52,3.553,3.553,0,0,1,1.289,1.448,5.188,5.188,0,0,1,0,4.28,3.551,3.551,0,0,1-1.289,1.447A3.43,3.43,0,0,1,677.07,94.453Zm0,2.384a6.843,6.843,0,0,0,3.356-.8,5.64,5.64,0,0,0,2.274-2.3,7.3,7.3,0,0,0,.815-3.539V78.79h-2.8v7.225h-.025a4.017,4.017,0,0,0-1.021-1.144,4.912,4.912,0,0,0-1.41-.754,5.065,5.065,0,0,0-1.656-.268,6.078,6.078,0,0,0-3.123.79,5.587,5.587,0,0,0-2.115,2.2,6.821,6.821,0,0,0-.766,3.307,7.854,7.854,0,0,0,.45,2.712,6.226,6.226,0,0,0,1.289,2.129,5.533,5.533,0,0,0,2.031,1.371,7.244,7.244,0,0,0,2.7.473Z" transform="translate(-628.161 -73.804)" fill="#28af2d" fill-rule="evenodd"/>
    <path id="Path_39" data-name="Path 39" d="M889.966,82.846a1.8,1.8,0,1,1,1.278-.535,1.718,1.718,0,0,1-1.278.535Zm-1.386,1.726h2.8v12.4h-2.8Zm0,12.4v0Z" transform="translate(-831.963 -74.235)" fill="#28af2d" fill-rule="evenodd"/>
    <path id="Path_40" data-name="Path 40" d="M628.606,133.43l-.026.072C628.589,133.477,628.6,133.455,628.606,133.43Z" transform="translate(-588.801 -124.986)" fill="#e78c47" fill-rule="evenodd"/>
    <path id="Path_41" data-name="Path 41" d="M613.111,18.841a.326.326,0,0,0-.254-.1.341.341,0,0,0-.254.137c-.041.053-.08.107-.117.163v-.563a.349.349,0,0,0-.7,0v.563c-.036-.056-.076-.11-.118-.163a.339.339,0,0,0-.254-.137.327.327,0,0,0-.256.1.377.377,0,0,0-.032.484,2.3,2.3,0,0,1,.411.981.641.641,0,0,0-.41.549v.006c.005.156.145,3.845.876,5.131a.149.149,0,0,0,.26,0c.731-1.286.87-4.975.876-5.131v-.006a.64.64,0,0,0-.41-.549,2.3,2.3,0,0,1,.411-.981.374.374,0,0,0-.032-.486h0Zm-.343,3.195h-.5a.15.15,0,1,0-.017.3h.5c-.037.41-.087.865-.154,1.317h-.325a.15.15,0,0,0,0,.3h.277a7.945,7.945,0,0,1-.406,1.622,10.568,10.568,0,0,1-.52-2.43h.392a.15.15,0,0,0,.017-.3h-.443c-.056-.5-.092-.963-.115-1.317h.542a.15.15,0,0,0,0-.3h-.56c-.012-.216-.017-.352-.018-.373,0-.116.123-.237.32-.31a1.031,1.031,0,0,1,.386-.065,1.322,1.322,0,0,1,.387.065c.2.073.318.2.32.31,0,.043-.02.524-.075,1.183Zm-1.392-2.986c.021-.023.047,0,.057.013a2.618,2.618,0,0,1,.364.649.151.151,0,0,0,.2.084.149.149,0,0,0,.094-.138V18.478a.049.049,0,0,1,.1,0v1.178a.148.148,0,0,0,.122.146.152.152,0,0,0,.167-.092,2.074,2.074,0,0,1,.364-.649c.036-.036.051-.02.057-.013a.078.078,0,0,1,.007.1,2.592,2.592,0,0,0-.459,1.063,1.572,1.572,0,0,0-.615,0,2.59,2.59,0,0,0-.457-1.063.078.078,0,0,1,.006-.1Z" transform="translate(-572.386 -16.983)" fill-rule="evenodd"/>
    <path id="Path_42" data-name="Path 42" d="M530.208,73.894l-.1-.034C530.141,73.871,530.173,73.883,530.208,73.894Z" transform="translate(-496.562 -69.186)" fill="#c46451" fill-rule="evenodd"/>
    <path id="Path_43" data-name="Path 43" d="M583.11,68.08l.1.047Z" transform="translate(-546.208 -63.772)" fill="#7db996" fill-rule="evenodd"/>
    <path id="Path_44" data-name="Path 44" d="M583.674,68.83l-.073.027Z" transform="translate(-546.667 -64.474)" fill="#7db996" fill-rule="evenodd"/>
    <path id="Path_45" data-name="Path 45" d="M581.26,67.29l.1.04C581.325,67.316,581.3,67.3,581.26,67.29Z" transform="translate(-544.475 -63.032)" fill="#7db996" fill-rule="evenodd"/>
    <line id="Line_1" data-name="Line 1" x2="0.097" y2="0.037" transform="translate(36.668 4.213)" fill="none"/>
    <line id="Line_2" data-name="Line 2" x1="0.026" y1="0.006" transform="translate(33.894 4.436)" fill="none"/>
    <line id="Line_3" data-name="Line 3" x1="0.013" y1="0.004" transform="translate(33.814 4.416)" fill="none"/>
    <line id="Line_4" data-name="Line 4" x1="0.022" y1="0.006" transform="translate(33.741 4.394)" fill="none"/>
    <line id="Line_5" data-name="Line 5" x1="0.018" y1="0.006" transform="translate(33.682 4.374)" fill="none"/>
    <line id="Line_6" data-name="Line 6" x1="0.025" y1="0.004" transform="translate(34.053 4.468)" fill="none"/>
    <path id="Path_46" data-name="Path 46" d="M577.85,66.04c.032.011.062.021.1.034C577.912,66.061,577.881,66.051,577.85,66.04Z" transform="translate(-541.281 -61.861)" fill="#7db996" fill-rule="evenodd"/>
    <line id="Line_7" data-name="Line 7" x1="0.029" y1="0.006" transform="translate(33.968 4.452)" fill="none"/>
    <path id="Path_47" data-name="Path 47" d="M573.1,64.69l.081.02A.73.73,0,0,0,573.1,64.69Z" transform="translate(-536.832 -60.596)" fill="#7db996" fill-rule="evenodd"/>
    <line id="Line_8" data-name="Line 8" x2="0.047" y2="0.004" transform="translate(35.753 4.01)" fill="none"/>
    <line id="Line_9" data-name="Line 9" x2="0.05" y2="0.005" transform="translate(35.807 4.015)" fill="none"/>
    <line id="Line_10" data-name="Line 10" x1="0.04" y1="0.003" transform="translate(35.706 4.007)" fill="none"/>
    <line id="Line_11" data-name="Line 11" x2="0.034" transform="translate(35.671 4.006)" fill="none"/>
    <path id="Path_48" data-name="Path 48" d="M566.72,63.55a.486.486,0,0,1,.058.007A.472.472,0,0,0,566.72,63.55Z" transform="translate(-530.856 -59.528)" fill="#7db996" fill-rule="evenodd"/>
    <line id="Line_12" data-name="Line 12" y1="0.021" x2="0.068" transform="translate(36.847 4.389)" fill="none"/>
    <line id="Line_13" data-name="Line 13" x2="0.066" y2="0.011" transform="translate(36.01 4.042)" fill="none"/>
    <path id="Path_49" data-name="Path 49" d="M574.46,65.03l.088.025Z" transform="translate(-538.106 -60.915)" fill="#7db996" fill-rule="evenodd"/>
    <line id="Line_14" data-name="Line 14" x2="0.077" y2="0.016" transform="translate(36.175 4.072)" fill="none"/>
    <path id="Path_50" data-name="Path 50" d="M517.347,72.661a.956.956,0,0,1,1.446,0c.8,0,1.5-1.125,1.652-1.9.2-1,.091-2.125-.949-2.357a1.732,1.732,0,0,0-.379-.045,1.183,1.183,0,0,1-2.093,0,1.732,1.732,0,0,0-.379.045c-1.04.232-1.145,1.356-.949,2.357C515.847,71.536,516.546,72.661,517.347,72.661Z" transform="translate(-482.984 -64.034)" fill="#ea3f2b" fill-rule="evenodd"/>
    <path id="Path_51" data-name="Path 51" d="M515.246,35.319a1.578,1.578,0,0,0-1.215-1.147l-.079-.016c.016-.014.032-.028.047-.044a1.982,1.982,0,0,0,.43-1.455l-.015-.151-.152-.016c-.007,0-.075-.008-.182-.008a1.835,1.835,0,0,0-1.273.438,1.345,1.345,0,0,0-.274.411,5.376,5.376,0,0,0-.452-1.031.187.187,0,0,0-.326.184,3.967,3.967,0,0,1,.582,1.885,1.549,1.549,0,0,0-.86-.244h0a2.106,2.106,0,0,0-.461.051A1.576,1.576,0,0,0,509.8,35.32a3.551,3.551,0,0,0-.02,1.647,3.5,3.5,0,0,0,.654,1.4,2.445,2.445,0,0,0,.586.554,1.416,1.416,0,0,0,.779.249,1.273,1.273,0,0,1,1.446,0,1.416,1.416,0,0,0,.779-.249,2.427,2.427,0,0,0,.586-.555,3.49,3.49,0,0,0,.654-1.4A3.564,3.564,0,0,0,515.246,35.319Zm-4.148-.782a1.727,1.727,0,0,1,.379-.045,1.183,1.183,0,0,0,2.093,0,1.728,1.728,0,0,1,.379.045c1.04.232,1.145,1.356.949,2.357-.152.774-.851,1.9-1.652,1.9a.956.956,0,0,0-1.446,0c-.8,0-1.5-1.125-1.652-1.9C509.953,35.893,510.059,34.77,511.1,34.537Zm2.964-1.681a1.465,1.465,0,0,1-.328.99,1.487,1.487,0,0,1-.99.328,1.469,1.469,0,0,1,.329-.99A1.486,1.486,0,0,1,514.063,32.857Z" transform="translate(-477.439 -30.166)" fill-rule="evenodd"/>
    <path id="Path_52" data-name="Path 52" d="M558.89,43.5a1.464,1.464,0,0,0,.328-.99,1.486,1.486,0,0,0-.989.328,1.469,1.469,0,0,0-.329.99A1.487,1.487,0,0,0,558.89,43.5Z" transform="translate(-522.594 -39.82)" fill="#28af2d" fill-rule="evenodd"/>
    <path id="Path_53" data-name="Path 53" d="M570.17,64.07l.074.015C570.22,64.079,570.195,64.074,570.17,64.07Z" transform="translate(-534.087 -60.015)" fill="#7db996" fill-rule="evenodd"/>
    <line id="Line_15" data-name="Line 15" x2="0.063" y2="0.009" transform="translate(35.934 4.031)" fill="none"/>
    <line id="Line_16" data-name="Line 16" x2="0.089" y2="0.027" transform="translate(36.464 4.146)" fill="none"/>
    <path id="Path_54" data-name="Path 54" d="M418.247,23.728,413.818,19.3a.945.945,0,0,0-.675-.279h-3.214a.958.958,0,0,0-.956.955v5.339a.618.618,0,0,1-.618.618H392.746a.957.957,0,0,0-.956.956v.266a.168.168,0,0,0,.168.168h26.4a.168.168,0,0,0,.168-.168h0V24.4A.959.959,0,0,0,418.247,23.728Zm-4.988-3.368a.524.524,0,0,0-.375-.16h-2.071a.521.521,0,0,0-.522.52V22.8a.522.522,0,0,0,.522.521h4.06a.521.521,0,0,0,.374-.876Z" transform="translate(-366.996 -17.816)" fill="#28af2d" fill-rule="evenodd"/>
    <path id="Path_55" data-name="Path 55" d="M3.068,86.323H9a2.556,2.556,0,0,0,1.3-.335,2.419,2.419,0,0,0,.9-.89,2.341,2.341,0,0,0,.322-1.2,2.4,2.4,0,0,0-2.369-2.424H3.066l0,4.847ZM0,96.815V78.768H9.951a4.746,4.746,0,0,1,2.385.594,4.4,4.4,0,0,1,1.65,1.624,4.647,4.647,0,0,1,.606,2.4,4.137,4.137,0,0,1-.374,1.726A4.453,4.453,0,0,1,13.2,86.542a4.646,4.646,0,0,1-1.5.942,4.485,4.485,0,0,1,1.74.953,4.886,4.886,0,0,1,1.2,1.6,4.588,4.588,0,0,1,.439,1.987A4.823,4.823,0,0,1,14.45,94.5a4.56,4.56,0,0,1-1.728,1.7,5.017,5.017,0,0,1-2.514.619L0,96.815Zm3.068-2.733H9.384a2.642,2.642,0,0,0,1.366-.348,2.381,2.381,0,0,0,.916-.954,2.682,2.682,0,0,0,.323-1.278,2.5,2.5,0,0,0-.336-1.277,2.592,2.592,0,0,0-2.318-1.3H3.07v5.157l0,0Z" transform="translate(0 -73.783)" fill="#28af2d" fill-rule="evenodd"/>
    <path id="Path_56" data-name="Path 56" d="M9.281,4.808V3.448a1.9,1.9,0,0,1-.821-.339,1.672,1.672,0,0,1-.532-.663,2.176,2.176,0,0,1-.186-.921V0h.818v1.58a1.268,1.268,0,0,0,.137.591,1.1,1.1,0,0,0,.392.427,1.227,1.227,0,0,0,1.218,0,1.057,1.057,0,0,0,.387-.427,1.292,1.292,0,0,0,.134-.591V0h.825V1.525a2.166,2.166,0,0,1-.189.921,1.732,1.732,0,0,1-.536.665,1.8,1.8,0,0,1-.827.337V4.808ZM0,4.808V0H.817V2H3.138V0h.818V4.808H3.138V2.727H.817V4.808H0Zm5.612,0a1.37,1.37,0,0,1-1.213-.7,1.407,1.407,0,0,1-.182-.7,1.223,1.223,0,0,1,.14-.573,1.308,1.308,0,0,1,.395-.457,1.293,1.293,0,0,1-.391-.45,1.177,1.177,0,0,1-.137-.552A1.36,1.36,0,0,1,4.406.679,1.4,1.4,0,0,1,4.9.185,1.3,1.3,0,0,1,5.584,0H7.52V.733H5.673a.6.6,0,0,0-.316.086.653.653,0,0,0-.23.23.628.628,0,0,0-.086.33.574.574,0,0,0,.09.309.68.68,0,0,0,.233.23A.62.62,0,0,0,5.687,2H7.28v.728H5.728a.676.676,0,0,0-.694.658v.029a.677.677,0,0,0,.085.332.663.663,0,0,0,.594.34H7.52v.721Z" transform="translate(0)" fill="#ea3f2b" fill-rule="evenodd"/>
    <path id="Path_57" data-name="Path 57" d="M221.75,417.193h2v.371H222.19v1.176h1.324v.37H222.19v1.557h-.44Zm3.057,1.648h.583a1.007,1.007,0,0,0,.625-.167.6.6,0,0,0,.218-.506.525.525,0,0,0-.218-.482,1.171,1.171,0,0,0-.625-.138h-.583Zm1.468,1.827-.837-1.467h-.63v1.467h-.44v-3.475h1.086a2.243,2.243,0,0,1,.49.051,1.044,1.044,0,0,1,.387.166.79.79,0,0,1,.252.3,1.033,1.033,0,0,1,.09.455.959.959,0,0,1-.211.652,1.077,1.077,0,0,1-.567.333l.88,1.515Zm1.171-3.475h2v.371h-1.563v1.092H229.2v.376h-1.319v1.261H229.5v.376h-2.055Zm2.8,2.717a1.446,1.446,0,0,0,.437.316,1.213,1.213,0,0,0,.522.119.82.82,0,0,0,.535-.156.506.506,0,0,0,.191-.411.518.518,0,0,0-.045-.225.5.5,0,0,0-.122-.159.905.905,0,0,0-.183-.119c-.07-.035-.146-.073-.228-.111l-.5-.217a2.376,2.376,0,0,1-.249-.127,1.013,1.013,0,0,1-.228-.18.858.858,0,0,1-.164-.251.836.836,0,0,1-.064-.337.821.821,0,0,1,.082-.365.886.886,0,0,1,.228-.294,1.049,1.049,0,0,1,.344-.193,1.317,1.317,0,0,1,.437-.069,1.384,1.384,0,0,1,.577.119,1.46,1.46,0,0,1,.451.31l-.239.286a1.239,1.239,0,0,0-.353-.241,1.048,1.048,0,0,0-.437-.087.756.756,0,0,0-.469.135.444.444,0,0,0-.178.373.424.424,0,0,0,.051.215.536.536,0,0,0,.135.154,1.114,1.114,0,0,0,.185.117q.1.05.207.093l.492.212a2.07,2.07,0,0,1,.281.146,1.018,1.018,0,0,1,.228.19.837.837,0,0,1,.151.254.939.939,0,0,1-.262,1.038,1.125,1.125,0,0,1-.371.212,1.488,1.488,0,0,1-.492.077,1.671,1.671,0,0,1-1.219-.514Zm2.818-2.717h.44v1.457h1.616v-1.457h.445v3.475h-.445v-1.637h-1.616v1.637h-.44Zm4.641,2.548a.638.638,0,0,0,.053.262.6.6,0,0,0,.146.2.632.632,0,0,0,.217.13.772.772,0,0,0,.268.046.828.828,0,0,0,.344-.075,1.316,1.316,0,0,0,.318-.206,5.552,5.552,0,0,1-.49-.487,4.781,4.781,0,0,1-.421-.546,1.838,1.838,0,0,0-.31.31A.581.581,0,0,0,237.706,419.742Zm.408-1.8a1.043,1.043,0,0,0,.045.3,2.184,2.184,0,0,0,.119.312c.078-.053.153-.106.225-.161a1.49,1.49,0,0,0,.191-.17.728.728,0,0,0,.13-.185.476.476,0,0,0,.048-.215.465.465,0,0,0-.077-.267.281.281,0,0,0-.251-.114.381.381,0,0,0-.313.143A.549.549,0,0,0,238.114,417.946Zm2.029,2.786a2.331,2.331,0,0,1-.387-.151,3.051,3.051,0,0,1-.413-.246,1.674,1.674,0,0,1-.448.289,1.349,1.349,0,0,1-.553.109,1.242,1.242,0,0,1-.432-.072,1.016,1.016,0,0,1-.334-.2.873.873,0,0,1-.217-.3.97.97,0,0,1-.077-.39.879.879,0,0,1,.056-.318,1.036,1.036,0,0,1,.151-.265,1.449,1.449,0,0,1,.22-.225c.083-.069.169-.133.257-.194a2.771,2.771,0,0,1-.166-.421,1.362,1.362,0,0,1-.061-.395.88.88,0,0,1,.058-.323.8.8,0,0,1,.165-.26.753.753,0,0,1,.254-.175.823.823,0,0,1,.328-.063.659.659,0,0,1,.5.191.7.7,0,0,1,.18.5.717.717,0,0,1-.069.313,1.172,1.172,0,0,1-.18.268,1.919,1.919,0,0,1-.251.233c-.094.072-.189.144-.284.215a3.49,3.49,0,0,0,.4.519,4.9,4.9,0,0,0,.479.456,3.084,3.084,0,0,0,.284-.471,2.978,2.978,0,0,0,.2-.556h.408a4.922,4.922,0,0,1-.254.657,3.4,3.4,0,0,1-.355.588,3.334,3.334,0,0,0,.344.207,1.811,1.811,0,0,0,.308.127Zm1.743-3.539h1.064a2.409,2.409,0,0,1,.525.053,1.092,1.092,0,0,1,.4.172.8.8,0,0,1,.26.315,1.29,1.29,0,0,1,0,.959.887.887,0,0,1-.263.334,1.144,1.144,0,0,1-.405.2,1.921,1.921,0,0,1-.522.066h-.625v1.377h-.44Zm1.012,1.738a1.091,1.091,0,0,0,.675-.172.648.648,0,0,0,.22-.543.578.578,0,0,0-.222-.522,1.247,1.247,0,0,0-.673-.146h-.572v1.383Zm2.023-1.738h.44v2.05a1.871,1.871,0,0,0,.063.524.918.918,0,0,0,.173.339.62.62,0,0,0,.257.183.891.891,0,0,0,.318.056.906.906,0,0,0,.323-.056.645.645,0,0,0,.26-.183.9.9,0,0,0,.175-.339,1.847,1.847,0,0,0,.063-.524v-2.05h.424v2.04a2.236,2.236,0,0,1-.1.7,1.231,1.231,0,0,1-.262.464.956.956,0,0,1-.395.254,1.549,1.549,0,0,1-.492.077,1.577,1.577,0,0,1-.5-.077.951.951,0,0,1-.4-.254,1.23,1.23,0,0,1-.262-.464,2.237,2.237,0,0,1-.1-.7Zm3.873,1.648h.582a1.009,1.009,0,0,0,.625-.167.6.6,0,0,0,.217-.506.525.525,0,0,0-.217-.482,1.174,1.174,0,0,0-.625-.138h-.582Zm1.467,1.827-.837-1.467h-.63v1.467h-.44v-3.475h1.086a2.243,2.243,0,0,1,.49.051,1.048,1.048,0,0,1,.387.166.8.8,0,0,1,.252.3,1.033,1.033,0,0,1,.09.455.96.96,0,0,1-.212.652,1.076,1.076,0,0,1-.566.333l.879,1.515Zm1.171-3.475h2v.371h-1.563v1.092h1.319v.376h-1.319v1.261h1.616v.376h-2.055Z" transform="translate(-207.717 -390.732)"/>
  </g>
  <path id="Path_58" data-name="Path 58" d="M616.285,24.641a1.572,1.572,0,0,1,.615,0,2.592,2.592,0,0,1,.459-1.063.078.078,0,0,0-.007-.1c-.007-.006-.021-.023-.058.013a2.076,2.076,0,0,0-.364.649.152.152,0,0,1-.167.092.148.148,0,0,1-.122-.146V22.909a.049.049,0,0,0-.1,0v1.178a.149.149,0,0,1-.094.138.151.151,0,0,1-.2-.084,2.622,2.622,0,0,0-.365-.649c-.009-.013-.035-.035-.055-.013a.078.078,0,0,0-.006.1A2.589,2.589,0,0,1,616.285,24.641Z" transform="translate(-576.842 -21.413)" fill="#28af2d" fill-rule="evenodd"/>
  <path id="Path_59" data-name="Path 59" d="M617.687,55.236a1.03,1.03,0,0,0-.386.065c-.2.073-.32.194-.32.31,0,.022.006.158.018.373h.559a.15.15,0,0,1,0,.3h-.542c.023.354.059.818.115,1.317h.443a.15.15,0,0,1-.017.3h-.392a10.572,10.572,0,0,0,.371,1.955h.306a7.943,7.943,0,0,0,.249-1.147h-.277a.15.15,0,0,1,0-.3h.325c.067-.452.117-.907.154-1.317h-.5a.15.15,0,1,1,.017-.3h.5c.054-.659.075-1.14.075-1.183,0-.115-.123-.237-.32-.31A1.322,1.322,0,0,0,617.687,55.236Z" transform="translate(-577.935 -51.74)" fill="#f28300" fill-rule="evenodd"/>
</svg>
